G04 EAGLE Gerber RS-274X export*
G75*
%MOMM*%
%FSLAX34Y34*%
%LPD*%
%INCopper Layer 2*%
%IPPOS*%
%AMOC8*
5,1,8,0,0,1.08239X$1,22.5*%
G01*
%ADD10C,0.355600*%
%ADD11C,9.750000*%
%ADD12C,1.371600*%
%ADD13C,0.600000*%

G36*
X941758Y327504D02*
X941758Y327504D01*
X941777Y327502D01*
X941879Y327524D01*
X941981Y327540D01*
X941998Y327550D01*
X942018Y327554D01*
X942107Y327607D01*
X942198Y327656D01*
X942212Y327670D01*
X942229Y327680D01*
X942296Y327759D01*
X942368Y327834D01*
X942376Y327852D01*
X942389Y327867D01*
X942428Y327963D01*
X942471Y328057D01*
X942473Y328077D01*
X942481Y328095D01*
X942499Y328262D01*
X942499Y776738D01*
X942496Y776758D01*
X942498Y776777D01*
X942476Y776879D01*
X942460Y776981D01*
X942450Y776998D01*
X942446Y777018D01*
X942393Y777107D01*
X942344Y777198D01*
X942330Y777212D01*
X942320Y777229D01*
X942241Y777296D01*
X942166Y777368D01*
X942148Y777376D01*
X942133Y777389D01*
X942037Y777428D01*
X941943Y777471D01*
X941923Y777473D01*
X941905Y777481D01*
X941738Y777499D01*
X613262Y777499D01*
X613242Y777496D01*
X613223Y777498D01*
X613121Y777476D01*
X613019Y777460D01*
X613002Y777450D01*
X612982Y777446D01*
X612893Y777393D01*
X612802Y777344D01*
X612788Y777330D01*
X612771Y777320D01*
X612704Y777241D01*
X612632Y777166D01*
X612624Y777148D01*
X612611Y777133D01*
X612572Y777037D01*
X612529Y776943D01*
X612527Y776923D01*
X612519Y776905D01*
X612501Y776738D01*
X612501Y328262D01*
X612504Y328242D01*
X612502Y328223D01*
X612524Y328121D01*
X612540Y328019D01*
X612550Y328002D01*
X612554Y327982D01*
X612607Y327893D01*
X612656Y327802D01*
X612670Y327788D01*
X612680Y327771D01*
X612759Y327704D01*
X612834Y327632D01*
X612852Y327624D01*
X612867Y327611D01*
X612963Y327572D01*
X613057Y327529D01*
X613077Y327527D01*
X613095Y327519D01*
X613262Y327501D01*
X941738Y327501D01*
X941758Y327504D01*
G37*
%LPC*%
G36*
X833384Y634749D02*
X833384Y634749D01*
X820604Y638174D01*
X809145Y644789D01*
X799789Y654145D01*
X793174Y665604D01*
X789749Y678384D01*
X789749Y691616D01*
X793174Y704396D01*
X799789Y715855D01*
X809145Y725211D01*
X820604Y731826D01*
X833384Y735251D01*
X846616Y735251D01*
X859396Y731826D01*
X870855Y725211D01*
X880211Y715855D01*
X886826Y704396D01*
X890251Y691616D01*
X890251Y678384D01*
X886826Y665604D01*
X880211Y654145D01*
X870855Y644789D01*
X859396Y638174D01*
X846616Y634749D01*
X833384Y634749D01*
G37*
%LPD*%
%LPC*%
G36*
X701523Y686523D02*
X701523Y686523D01*
X701523Y735751D01*
X702216Y735751D01*
X706630Y735365D01*
X710995Y734595D01*
X715276Y733448D01*
X719440Y731932D01*
X723457Y730059D01*
X727294Y727844D01*
X730925Y725302D01*
X734319Y722453D01*
X737453Y719319D01*
X740302Y715925D01*
X742844Y712294D01*
X745059Y708457D01*
X746932Y704440D01*
X748448Y700276D01*
X749595Y695995D01*
X750365Y691630D01*
X750751Y687216D01*
X750751Y686523D01*
X701523Y686523D01*
G37*
%LPD*%
%LPC*%
G36*
X649249Y686523D02*
X649249Y686523D01*
X649249Y687216D01*
X649635Y691630D01*
X650405Y695995D01*
X651552Y700276D01*
X653068Y704440D01*
X654941Y708457D01*
X657156Y712294D01*
X659698Y715925D01*
X662547Y719319D01*
X665681Y722453D01*
X669075Y725302D01*
X672706Y727844D01*
X676543Y730059D01*
X680560Y731932D01*
X684724Y733448D01*
X689005Y734595D01*
X693370Y735365D01*
X697784Y735751D01*
X698477Y735751D01*
X698477Y686523D01*
X649249Y686523D01*
G37*
%LPD*%
%LPC*%
G36*
X701523Y634249D02*
X701523Y634249D01*
X701523Y683477D01*
X750751Y683477D01*
X750751Y682784D01*
X750365Y678370D01*
X749595Y674005D01*
X748448Y669724D01*
X746932Y665560D01*
X745059Y661543D01*
X742844Y657706D01*
X740302Y654075D01*
X737453Y650681D01*
X734319Y647547D01*
X730925Y644698D01*
X727294Y642156D01*
X723457Y639941D01*
X719440Y638068D01*
X715276Y636552D01*
X710995Y635405D01*
X706630Y634635D01*
X702216Y634249D01*
X701523Y634249D01*
G37*
%LPD*%
%LPC*%
G36*
X697784Y634249D02*
X697784Y634249D01*
X693370Y634635D01*
X689005Y635405D01*
X684724Y636552D01*
X680560Y638068D01*
X676543Y639941D01*
X672706Y642156D01*
X669075Y644698D01*
X665681Y647547D01*
X662547Y650681D01*
X659698Y654075D01*
X657156Y657706D01*
X654941Y661543D01*
X653068Y665560D01*
X651552Y669724D01*
X650405Y674005D01*
X649635Y678370D01*
X649249Y682784D01*
X649249Y683477D01*
X698477Y683477D01*
X698477Y634249D01*
X697784Y634249D01*
G37*
%LPD*%
%LPC*%
G36*
X921149Y668659D02*
X921149Y668659D01*
X919561Y669173D01*
X917078Y671405D01*
X915719Y674455D01*
X915719Y677956D01*
X917551Y681128D01*
X920723Y682959D01*
X924011Y682959D01*
X926350Y681956D01*
X926361Y681954D01*
X926375Y681946D01*
X926689Y681811D01*
X927547Y680910D01*
X927569Y680894D01*
X927605Y680855D01*
X928689Y679934D01*
X928724Y679913D01*
X928754Y679885D01*
X928829Y679850D01*
X928900Y679807D01*
X928940Y679798D01*
X928977Y679781D01*
X929059Y679772D01*
X929140Y679754D01*
X929181Y679758D01*
X929221Y679754D01*
X929302Y679772D01*
X929384Y679780D01*
X929422Y679798D01*
X929462Y679806D01*
X929533Y679849D01*
X929608Y679883D01*
X929638Y679911D01*
X929673Y679932D01*
X929727Y679995D01*
X929787Y680052D01*
X929806Y680088D01*
X929833Y680119D01*
X929864Y680196D01*
X929903Y680269D01*
X929909Y680309D01*
X929925Y680347D01*
X929942Y680506D01*
X929943Y680511D01*
X929943Y680513D01*
X929943Y680514D01*
X929943Y681038D01*
X931864Y682959D01*
X934580Y682959D01*
X936501Y681038D01*
X936501Y671941D01*
X936504Y671919D01*
X936503Y671880D01*
X936602Y670665D01*
X936588Y670629D01*
X936555Y670575D01*
X936542Y670516D01*
X936519Y670460D01*
X936517Y670436D01*
X935656Y669575D01*
X935643Y669557D01*
X935614Y669530D01*
X934825Y668601D01*
X934790Y668586D01*
X934728Y668571D01*
X934677Y668538D01*
X934621Y668514D01*
X934602Y668499D01*
X933385Y668499D01*
X933363Y668496D01*
X933324Y668497D01*
X932109Y668398D01*
X932073Y668412D01*
X932019Y668445D01*
X931960Y668458D01*
X931904Y668481D01*
X931880Y668483D01*
X931019Y669344D01*
X931001Y669357D01*
X930974Y669386D01*
X926967Y672792D01*
X926884Y672842D01*
X926804Y672897D01*
X926779Y672905D01*
X926756Y672919D01*
X926661Y672940D01*
X926569Y672967D01*
X926542Y672966D01*
X926516Y672972D01*
X926420Y672962D01*
X926323Y672958D01*
X926298Y672948D01*
X926271Y672946D01*
X926184Y672905D01*
X926093Y672871D01*
X926072Y672854D01*
X926048Y672843D01*
X925978Y672776D01*
X925902Y672715D01*
X925888Y672692D01*
X925869Y672674D01*
X925823Y672588D01*
X925772Y672506D01*
X925766Y672481D01*
X925753Y672457D01*
X925737Y672361D01*
X925715Y672267D01*
X925717Y672241D01*
X925713Y672214D01*
X925724Y672144D01*
X924860Y669476D01*
X922441Y668240D01*
X921149Y668659D01*
G37*
%LPD*%
%LPC*%
G36*
X806037Y531641D02*
X806037Y531641D01*
X802965Y532914D01*
X800614Y535265D01*
X799341Y538337D01*
X799341Y541663D01*
X800614Y544735D01*
X802965Y547086D01*
X806037Y548359D01*
X809363Y548359D01*
X812435Y547086D01*
X814786Y544735D01*
X816059Y541663D01*
X816059Y538337D01*
X814786Y535265D01*
X812435Y532914D01*
X809363Y531641D01*
X806037Y531641D01*
G37*
%LPD*%
%LPC*%
G36*
X780637Y531641D02*
X780637Y531641D01*
X777565Y532914D01*
X775214Y535265D01*
X773941Y538337D01*
X773941Y541663D01*
X775214Y544735D01*
X777565Y547086D01*
X780637Y548359D01*
X783963Y548359D01*
X787035Y547086D01*
X789386Y544735D01*
X790659Y541663D01*
X790659Y538337D01*
X789386Y535265D01*
X787035Y532914D01*
X783963Y531641D01*
X780637Y531641D01*
G37*
%LPD*%
%LPC*%
G36*
X672037Y378541D02*
X672037Y378541D01*
X668965Y379814D01*
X666614Y382165D01*
X665341Y385237D01*
X665341Y388563D01*
X666614Y391635D01*
X668965Y393986D01*
X672037Y395259D01*
X675363Y395259D01*
X678435Y393986D01*
X680786Y391635D01*
X682059Y388563D01*
X682059Y385237D01*
X680786Y382165D01*
X678435Y379814D01*
X675363Y378541D01*
X672037Y378541D01*
G37*
%LPD*%
%LPC*%
G36*
X646637Y378541D02*
X646637Y378541D01*
X643565Y379814D01*
X641214Y382165D01*
X639941Y385237D01*
X639941Y388563D01*
X641214Y391635D01*
X643565Y393986D01*
X646637Y395259D01*
X649963Y395259D01*
X653035Y393986D01*
X655386Y391635D01*
X656659Y388563D01*
X656659Y385237D01*
X655386Y382165D01*
X653035Y379814D01*
X649963Y378541D01*
X646637Y378541D01*
G37*
%LPD*%
%LPC*%
G36*
X858136Y345499D02*
X858136Y345499D01*
X855499Y348136D01*
X855499Y351864D01*
X858136Y354501D01*
X861864Y354501D01*
X864501Y351864D01*
X864501Y348136D01*
X861864Y345499D01*
X858136Y345499D01*
G37*
%LPD*%
%LPC*%
G36*
X713136Y475499D02*
X713136Y475499D01*
X710499Y478136D01*
X710499Y481864D01*
X713136Y484501D01*
X716864Y484501D01*
X719501Y481864D01*
X719501Y478136D01*
X716864Y475499D01*
X713136Y475499D01*
G37*
%LPD*%
%LPC*%
G36*
X818136Y590499D02*
X818136Y590499D01*
X815499Y593136D01*
X815499Y596864D01*
X818136Y599501D01*
X821864Y599501D01*
X824501Y596864D01*
X824501Y593136D01*
X821864Y590499D01*
X818136Y590499D01*
G37*
%LPD*%
%LPC*%
G36*
X763136Y515499D02*
X763136Y515499D01*
X760499Y518136D01*
X760499Y521864D01*
X763136Y524501D01*
X766864Y524501D01*
X769501Y521864D01*
X769501Y518136D01*
X766864Y515499D01*
X763136Y515499D01*
G37*
%LPD*%
%LPC*%
G36*
X668136Y555499D02*
X668136Y555499D01*
X665499Y558136D01*
X665499Y561864D01*
X668136Y564501D01*
X671864Y564501D01*
X674501Y561864D01*
X674501Y558136D01*
X671864Y555499D01*
X668136Y555499D01*
G37*
%LPD*%
%LPC*%
G36*
X838136Y515499D02*
X838136Y515499D01*
X835499Y518136D01*
X835499Y521864D01*
X838136Y524501D01*
X841864Y524501D01*
X844501Y521864D01*
X844501Y518136D01*
X841864Y515499D01*
X838136Y515499D01*
G37*
%LPD*%
%LPC*%
G36*
X808136Y345499D02*
X808136Y345499D01*
X805499Y348136D01*
X805499Y351864D01*
X808136Y354501D01*
X811864Y354501D01*
X814501Y351864D01*
X814501Y348136D01*
X811864Y345499D01*
X808136Y345499D01*
G37*
%LPD*%
%LPC*%
G36*
X635874Y625874D02*
X635874Y625874D01*
X635874Y629943D01*
X636930Y629660D01*
X638071Y629002D01*
X639002Y628071D01*
X639660Y626930D01*
X639943Y625874D01*
X635874Y625874D01*
G37*
%LPD*%
%LPC*%
G36*
X730874Y540874D02*
X730874Y540874D01*
X730874Y544943D01*
X731930Y544660D01*
X733071Y544002D01*
X734002Y543071D01*
X734660Y541930D01*
X734943Y540874D01*
X730874Y540874D01*
G37*
%LPD*%
%LPC*%
G36*
X730874Y450874D02*
X730874Y450874D01*
X730874Y454943D01*
X731930Y454660D01*
X733071Y454002D01*
X734002Y453071D01*
X734660Y451930D01*
X734943Y450874D01*
X730874Y450874D01*
G37*
%LPD*%
%LPC*%
G36*
X905874Y615874D02*
X905874Y615874D01*
X905874Y619943D01*
X906930Y619660D01*
X908071Y619002D01*
X909002Y618071D01*
X909660Y616930D01*
X909943Y615874D01*
X905874Y615874D01*
G37*
%LPD*%
%LPC*%
G36*
X630874Y450874D02*
X630874Y450874D01*
X630874Y454943D01*
X631930Y454660D01*
X633071Y454002D01*
X634002Y453071D01*
X634660Y451930D01*
X634943Y450874D01*
X630874Y450874D01*
G37*
%LPD*%
%LPC*%
G36*
X790874Y580874D02*
X790874Y580874D01*
X790874Y584943D01*
X791930Y584660D01*
X793071Y584002D01*
X794002Y583071D01*
X794660Y581930D01*
X794943Y580874D01*
X790874Y580874D01*
G37*
%LPD*%
%LPC*%
G36*
X825874Y510874D02*
X825874Y510874D01*
X825874Y514943D01*
X826930Y514660D01*
X828071Y514002D01*
X829002Y513071D01*
X829660Y511930D01*
X829943Y510874D01*
X825874Y510874D01*
G37*
%LPD*%
%LPC*%
G36*
X815874Y460874D02*
X815874Y460874D01*
X815874Y464943D01*
X816930Y464660D01*
X818071Y464002D01*
X819002Y463071D01*
X819660Y461930D01*
X819943Y460874D01*
X815874Y460874D01*
G37*
%LPD*%
%LPC*%
G36*
X645874Y555874D02*
X645874Y555874D01*
X645874Y559943D01*
X646930Y559660D01*
X648071Y559002D01*
X649002Y558071D01*
X649660Y556930D01*
X649943Y555874D01*
X645874Y555874D01*
G37*
%LPD*%
%LPC*%
G36*
X890874Y490874D02*
X890874Y490874D01*
X890874Y494943D01*
X891930Y494660D01*
X893071Y494002D01*
X894002Y493071D01*
X894660Y491930D01*
X894943Y490874D01*
X890874Y490874D01*
G37*
%LPD*%
%LPC*%
G36*
X910874Y490874D02*
X910874Y490874D01*
X910874Y494943D01*
X911930Y494660D01*
X913071Y494002D01*
X914002Y493071D01*
X914660Y491930D01*
X914943Y490874D01*
X910874Y490874D01*
G37*
%LPD*%
%LPC*%
G36*
X895874Y365874D02*
X895874Y365874D01*
X895874Y369943D01*
X896930Y369660D01*
X898071Y369002D01*
X899002Y368071D01*
X899660Y366930D01*
X899943Y365874D01*
X895874Y365874D01*
G37*
%LPD*%
%LPC*%
G36*
X835874Y345874D02*
X835874Y345874D01*
X835874Y349943D01*
X836930Y349660D01*
X838071Y349002D01*
X839002Y348071D01*
X839660Y346930D01*
X839943Y345874D01*
X835874Y345874D01*
G37*
%LPD*%
%LPC*%
G36*
X785874Y345874D02*
X785874Y345874D01*
X785874Y349943D01*
X786930Y349660D01*
X788071Y349002D01*
X789002Y348071D01*
X789660Y346930D01*
X789943Y345874D01*
X785874Y345874D01*
G37*
%LPD*%
%LPC*%
G36*
X645874Y554126D02*
X645874Y554126D01*
X649943Y554126D01*
X649660Y553070D01*
X649002Y551929D01*
X648071Y550998D01*
X646930Y550340D01*
X645874Y550057D01*
X645874Y554126D01*
G37*
%LPD*%
%LPC*%
G36*
X725057Y540874D02*
X725057Y540874D01*
X725340Y541930D01*
X725998Y543071D01*
X726929Y544002D01*
X728070Y544660D01*
X729126Y544943D01*
X729126Y540874D01*
X725057Y540874D01*
G37*
%LPD*%
%LPC*%
G36*
X730874Y539126D02*
X730874Y539126D01*
X734943Y539126D01*
X734660Y538070D01*
X734002Y536929D01*
X733071Y535998D01*
X731930Y535340D01*
X730874Y535057D01*
X730874Y539126D01*
G37*
%LPD*%
%LPC*%
G36*
X820057Y510874D02*
X820057Y510874D01*
X820340Y511930D01*
X820998Y513071D01*
X821929Y514002D01*
X823070Y514660D01*
X824126Y514943D01*
X824126Y510874D01*
X820057Y510874D01*
G37*
%LPD*%
%LPC*%
G36*
X825874Y509126D02*
X825874Y509126D01*
X829943Y509126D01*
X829660Y508070D01*
X829002Y506929D01*
X828071Y505998D01*
X826930Y505340D01*
X825874Y505057D01*
X825874Y509126D01*
G37*
%LPD*%
%LPC*%
G36*
X630057Y625874D02*
X630057Y625874D01*
X630340Y626930D01*
X630998Y628071D01*
X631929Y629002D01*
X633070Y629660D01*
X634126Y629943D01*
X634126Y625874D01*
X630057Y625874D01*
G37*
%LPD*%
%LPC*%
G36*
X885057Y490874D02*
X885057Y490874D01*
X885340Y491930D01*
X885998Y493071D01*
X886929Y494002D01*
X888070Y494660D01*
X889126Y494943D01*
X889126Y490874D01*
X885057Y490874D01*
G37*
%LPD*%
%LPC*%
G36*
X905057Y490874D02*
X905057Y490874D01*
X905340Y491930D01*
X905998Y493071D01*
X906929Y494002D01*
X908070Y494660D01*
X909126Y494943D01*
X909126Y490874D01*
X905057Y490874D01*
G37*
%LPD*%
%LPC*%
G36*
X910874Y489126D02*
X910874Y489126D01*
X914943Y489126D01*
X914660Y488070D01*
X914002Y486929D01*
X913071Y485998D01*
X911930Y485340D01*
X910874Y485057D01*
X910874Y489126D01*
G37*
%LPD*%
%LPC*%
G36*
X890874Y489126D02*
X890874Y489126D01*
X894943Y489126D01*
X894660Y488070D01*
X894002Y486929D01*
X893071Y485998D01*
X891930Y485340D01*
X890874Y485057D01*
X890874Y489126D01*
G37*
%LPD*%
%LPC*%
G36*
X810057Y460874D02*
X810057Y460874D01*
X810340Y461930D01*
X810998Y463071D01*
X811929Y464002D01*
X813070Y464660D01*
X814126Y464943D01*
X814126Y460874D01*
X810057Y460874D01*
G37*
%LPD*%
%LPC*%
G36*
X815874Y459126D02*
X815874Y459126D01*
X819943Y459126D01*
X819660Y458070D01*
X819002Y456929D01*
X818071Y455998D01*
X816930Y455340D01*
X815874Y455057D01*
X815874Y459126D01*
G37*
%LPD*%
%LPC*%
G36*
X625057Y450874D02*
X625057Y450874D01*
X625340Y451930D01*
X625998Y453071D01*
X626929Y454002D01*
X628070Y454660D01*
X629126Y454943D01*
X629126Y450874D01*
X625057Y450874D01*
G37*
%LPD*%
%LPC*%
G36*
X725057Y450874D02*
X725057Y450874D01*
X725340Y451930D01*
X725998Y453071D01*
X726929Y454002D01*
X728070Y454660D01*
X729126Y454943D01*
X729126Y450874D01*
X725057Y450874D01*
G37*
%LPD*%
%LPC*%
G36*
X730874Y449126D02*
X730874Y449126D01*
X734943Y449126D01*
X734660Y448070D01*
X734002Y446929D01*
X733071Y445998D01*
X731930Y445340D01*
X730874Y445057D01*
X730874Y449126D01*
G37*
%LPD*%
%LPC*%
G36*
X630874Y449126D02*
X630874Y449126D01*
X634943Y449126D01*
X634660Y448070D01*
X634002Y446929D01*
X633071Y445998D01*
X631930Y445340D01*
X630874Y445057D01*
X630874Y449126D01*
G37*
%LPD*%
%LPC*%
G36*
X635874Y624126D02*
X635874Y624126D01*
X639943Y624126D01*
X639660Y623070D01*
X639002Y621929D01*
X638071Y620998D01*
X636930Y620340D01*
X635874Y620057D01*
X635874Y624126D01*
G37*
%LPD*%
%LPC*%
G36*
X900057Y615874D02*
X900057Y615874D01*
X900340Y616930D01*
X900998Y618071D01*
X901929Y619002D01*
X903070Y619660D01*
X904126Y619943D01*
X904126Y615874D01*
X900057Y615874D01*
G37*
%LPD*%
%LPC*%
G36*
X905874Y614126D02*
X905874Y614126D01*
X909943Y614126D01*
X909660Y613070D01*
X909002Y611929D01*
X908071Y610998D01*
X906930Y610340D01*
X905874Y610057D01*
X905874Y614126D01*
G37*
%LPD*%
%LPC*%
G36*
X890057Y365874D02*
X890057Y365874D01*
X890340Y366930D01*
X890998Y368071D01*
X891929Y369002D01*
X893070Y369660D01*
X894126Y369943D01*
X894126Y365874D01*
X890057Y365874D01*
G37*
%LPD*%
%LPC*%
G36*
X895874Y364126D02*
X895874Y364126D01*
X899943Y364126D01*
X899660Y363070D01*
X899002Y361929D01*
X898071Y360998D01*
X896930Y360340D01*
X895874Y360057D01*
X895874Y364126D01*
G37*
%LPD*%
%LPC*%
G36*
X785057Y580874D02*
X785057Y580874D01*
X785340Y581930D01*
X785998Y583071D01*
X786929Y584002D01*
X788070Y584660D01*
X789126Y584943D01*
X789126Y580874D01*
X785057Y580874D01*
G37*
%LPD*%
%LPC*%
G36*
X790874Y579126D02*
X790874Y579126D01*
X794943Y579126D01*
X794660Y578070D01*
X794002Y576929D01*
X793071Y575998D01*
X791930Y575340D01*
X790874Y575057D01*
X790874Y579126D01*
G37*
%LPD*%
%LPC*%
G36*
X640057Y555874D02*
X640057Y555874D01*
X640340Y556930D01*
X640998Y558071D01*
X641929Y559002D01*
X643070Y559660D01*
X644126Y559943D01*
X644126Y555874D01*
X640057Y555874D01*
G37*
%LPD*%
%LPC*%
G36*
X780057Y345874D02*
X780057Y345874D01*
X780340Y346930D01*
X780998Y348071D01*
X781929Y349002D01*
X783070Y349660D01*
X784126Y349943D01*
X784126Y345874D01*
X780057Y345874D01*
G37*
%LPD*%
%LPC*%
G36*
X830057Y345874D02*
X830057Y345874D01*
X830340Y346930D01*
X830998Y348071D01*
X831929Y349002D01*
X833070Y349660D01*
X834126Y349943D01*
X834126Y345874D01*
X830057Y345874D01*
G37*
%LPD*%
%LPC*%
G36*
X785874Y344126D02*
X785874Y344126D01*
X789943Y344126D01*
X789660Y343070D01*
X789002Y341929D01*
X788071Y340998D01*
X786930Y340340D01*
X785874Y340057D01*
X785874Y344126D01*
G37*
%LPD*%
%LPC*%
G36*
X835874Y344126D02*
X835874Y344126D01*
X839943Y344126D01*
X839660Y343070D01*
X839002Y341929D01*
X838071Y340998D01*
X836930Y340340D01*
X835874Y340057D01*
X835874Y344126D01*
G37*
%LPD*%
%LPC*%
G36*
X908070Y485340D02*
X908070Y485340D01*
X906929Y485998D01*
X905998Y486929D01*
X905340Y488070D01*
X905057Y489126D01*
X909126Y489126D01*
X909126Y485057D01*
X908070Y485340D01*
G37*
%LPD*%
%LPC*%
G36*
X813070Y455340D02*
X813070Y455340D01*
X811929Y455998D01*
X810998Y456929D01*
X810340Y458070D01*
X810057Y459126D01*
X814126Y459126D01*
X814126Y455057D01*
X813070Y455340D01*
G37*
%LPD*%
%LPC*%
G36*
X903070Y610340D02*
X903070Y610340D01*
X901929Y610998D01*
X900998Y611929D01*
X900340Y613070D01*
X900057Y614126D01*
X904126Y614126D01*
X904126Y610057D01*
X903070Y610340D01*
G37*
%LPD*%
%LPC*%
G36*
X633070Y620340D02*
X633070Y620340D01*
X631929Y620998D01*
X630998Y621929D01*
X630340Y623070D01*
X630057Y624126D01*
X634126Y624126D01*
X634126Y620057D01*
X633070Y620340D01*
G37*
%LPD*%
%LPC*%
G36*
X893070Y360340D02*
X893070Y360340D01*
X891929Y360998D01*
X890998Y361929D01*
X890340Y363070D01*
X890057Y364126D01*
X894126Y364126D01*
X894126Y360057D01*
X893070Y360340D01*
G37*
%LPD*%
%LPC*%
G36*
X728070Y445340D02*
X728070Y445340D01*
X726929Y445998D01*
X725998Y446929D01*
X725340Y448070D01*
X725057Y449126D01*
X729126Y449126D01*
X729126Y445057D01*
X728070Y445340D01*
G37*
%LPD*%
%LPC*%
G36*
X643070Y550340D02*
X643070Y550340D01*
X641929Y550998D01*
X640998Y551929D01*
X640340Y553070D01*
X640057Y554126D01*
X644126Y554126D01*
X644126Y550057D01*
X643070Y550340D01*
G37*
%LPD*%
%LPC*%
G36*
X888070Y485340D02*
X888070Y485340D01*
X886929Y485998D01*
X885998Y486929D01*
X885340Y488070D01*
X885057Y489126D01*
X889126Y489126D01*
X889126Y485057D01*
X888070Y485340D01*
G37*
%LPD*%
%LPC*%
G36*
X823070Y505340D02*
X823070Y505340D01*
X821929Y505998D01*
X820998Y506929D01*
X820340Y508070D01*
X820057Y509126D01*
X824126Y509126D01*
X824126Y505057D01*
X823070Y505340D01*
G37*
%LPD*%
%LPC*%
G36*
X788070Y575340D02*
X788070Y575340D01*
X786929Y575998D01*
X785998Y576929D01*
X785340Y578070D01*
X785057Y579126D01*
X789126Y579126D01*
X789126Y575057D01*
X788070Y575340D01*
G37*
%LPD*%
%LPC*%
G36*
X628070Y445340D02*
X628070Y445340D01*
X626929Y445998D01*
X625998Y446929D01*
X625340Y448070D01*
X625057Y449126D01*
X629126Y449126D01*
X629126Y445057D01*
X628070Y445340D01*
G37*
%LPD*%
%LPC*%
G36*
X783070Y340340D02*
X783070Y340340D01*
X781929Y340998D01*
X780998Y341929D01*
X780340Y343070D01*
X780057Y344126D01*
X784126Y344126D01*
X784126Y340057D01*
X783070Y340340D01*
G37*
%LPD*%
%LPC*%
G36*
X728070Y535340D02*
X728070Y535340D01*
X726929Y535998D01*
X725998Y536929D01*
X725340Y538070D01*
X725057Y539126D01*
X729126Y539126D01*
X729126Y535057D01*
X728070Y535340D01*
G37*
%LPD*%
%LPC*%
G36*
X833070Y340340D02*
X833070Y340340D01*
X831929Y340998D01*
X830998Y341929D01*
X830340Y343070D01*
X830057Y344126D01*
X834126Y344126D01*
X834126Y340057D01*
X833070Y340340D01*
G37*
%LPD*%
%LPC*%
G36*
X699999Y684999D02*
X699999Y684999D01*
X699999Y685001D01*
X700001Y685001D01*
X700001Y684999D01*
X699999Y684999D01*
G37*
%LPD*%
D10*
X922554Y679680D02*
X922438Y679678D01*
X922321Y679672D01*
X922205Y679663D01*
X922090Y679650D01*
X921975Y679633D01*
X921860Y679612D01*
X921747Y679587D01*
X921634Y679559D01*
X921522Y679527D01*
X921411Y679491D01*
X921301Y679452D01*
X921193Y679409D01*
X921086Y679363D01*
X920981Y679313D01*
X920878Y679260D01*
X920776Y679204D01*
X920676Y679144D01*
X920578Y679081D01*
X920483Y679014D01*
X920389Y678945D01*
X920298Y678873D01*
X920209Y678798D01*
X920123Y678719D01*
X920040Y678638D01*
X919959Y678555D01*
X919880Y678469D01*
X919805Y678380D01*
X919733Y678289D01*
X919664Y678195D01*
X919597Y678100D01*
X919534Y678002D01*
X919474Y677902D01*
X919418Y677800D01*
X919365Y677697D01*
X919315Y677592D01*
X919269Y677485D01*
X919226Y677377D01*
X919187Y677267D01*
X919151Y677156D01*
X919119Y677044D01*
X919091Y676931D01*
X919066Y676818D01*
X919045Y676703D01*
X919028Y676588D01*
X919015Y676473D01*
X919006Y676357D01*
X919000Y676240D01*
X918998Y676124D01*
X919000Y675990D01*
X919006Y675857D01*
X919016Y675724D01*
X919029Y675591D01*
X919047Y675458D01*
X919068Y675327D01*
X919093Y675195D01*
X919122Y675065D01*
X919155Y674935D01*
X919192Y674807D01*
X919232Y674680D01*
X919276Y674554D01*
X919324Y674429D01*
X919376Y674305D01*
X919431Y674184D01*
X919489Y674064D01*
X919551Y673945D01*
X919616Y673829D01*
X919685Y673714D01*
X919757Y673602D01*
X919833Y673492D01*
X919911Y673383D01*
X919993Y673278D01*
X920078Y673175D01*
X920166Y673074D01*
X920256Y672976D01*
X920350Y672880D01*
X920446Y672788D01*
X920545Y672698D01*
X920646Y672611D01*
X920750Y672527D01*
X920857Y672446D01*
X920965Y672369D01*
X921076Y672294D01*
X921189Y672223D01*
X921304Y672155D01*
X921422Y672091D01*
X921540Y672030D01*
X921661Y671972D01*
X921783Y671918D01*
X921907Y671868D01*
X922032Y671821D01*
X922159Y671778D01*
X925320Y678495D02*
X925236Y678580D01*
X925150Y678662D01*
X925062Y678741D01*
X924971Y678818D01*
X924878Y678892D01*
X924782Y678963D01*
X924684Y679031D01*
X924585Y679095D01*
X924483Y679157D01*
X924379Y679216D01*
X924274Y679271D01*
X924167Y679323D01*
X924058Y679371D01*
X923948Y679416D01*
X923837Y679458D01*
X923724Y679496D01*
X923611Y679531D01*
X923496Y679562D01*
X923380Y679590D01*
X923264Y679614D01*
X923146Y679634D01*
X923029Y679650D01*
X922910Y679663D01*
X922792Y679673D01*
X922673Y679678D01*
X922554Y679680D01*
X925320Y678495D02*
X933222Y671778D01*
X933222Y679680D01*
D11*
X840000Y685000D03*
D12*
X782300Y540000D03*
X807700Y540000D03*
X648300Y386900D03*
X673700Y386900D03*
D11*
X700000Y685000D03*
D13*
X820000Y595000D03*
X810000Y350000D03*
X860000Y350000D03*
X840000Y520000D03*
X765000Y520000D03*
X670000Y560000D03*
X715000Y480000D03*
X905000Y615000D03*
X890000Y490000D03*
X910000Y490000D03*
X895000Y365000D03*
X645000Y555000D03*
X630000Y450000D03*
X635000Y625000D03*
X730000Y450000D03*
X730000Y540000D03*
X790000Y580000D03*
X835000Y345000D03*
X785000Y345000D03*
X825000Y510000D03*
X815000Y460000D03*
M02*
