G04 EAGLE Gerber RS-274X export*
G75*
%MOMM*%
%FSLAX34Y34*%
%LPD*%
%INTop Copper*%
%IPPOS*%
%AMOC8*
5,1,8,0,0,1.08239X$1,22.5*%
G01*
%ADD10C,0.355600*%
%ADD11R,0.700000X0.600000*%
%ADD12R,0.600000X0.700000*%
%ADD13C,0.331800*%
%ADD14R,2.600000X2.600000*%
%ADD15C,12.000000*%
%ADD16R,2.300000X0.700000*%
%ADD17R,4.900000X1.580000*%
%ADD18R,2.350000X1.500000*%
%ADD19R,4.900000X1.600000*%
%ADD20C,0.508000*%
%ADD21C,1.371600*%
%ADD22R,1.000000X1.400000*%
%ADD23R,0.900000X1.600000*%
%ADD24R,1.300000X1.300000*%
%ADD25C,0.600000*%
%ADD26R,1.130000X2.440000*%
%ADD27R,1.200000X1.200000*%
%ADD28C,0.337300*%
%ADD29C,0.713500*%


D10*
X922159Y656778D02*
X918998Y660729D01*
X933222Y660729D01*
X933222Y656778D02*
X933222Y664680D01*
D11*
X755000Y505000D03*
X755000Y495000D03*
D12*
X740000Y480000D03*
X750000Y480000D03*
D13*
X773100Y499750D02*
X777900Y499750D01*
X777900Y493250D02*
X773100Y493250D01*
X773100Y486750D02*
X777900Y486750D01*
X777900Y480250D02*
X773100Y480250D01*
X785250Y472900D02*
X785250Y468100D01*
X791750Y468100D02*
X791750Y472900D01*
X798250Y472900D02*
X798250Y468100D01*
X804750Y468100D02*
X804750Y472900D01*
X812100Y480250D02*
X816900Y480250D01*
X816900Y486750D02*
X812100Y486750D01*
X812100Y493250D02*
X816900Y493250D01*
X816900Y499750D02*
X812100Y499750D01*
X804750Y507100D02*
X804750Y511900D01*
X798250Y511900D02*
X798250Y507100D01*
X791750Y507100D02*
X791750Y511900D01*
X785250Y511900D02*
X785250Y507100D01*
D14*
X795000Y490000D03*
D15*
X840000Y685000D03*
D11*
X675000Y495000D03*
X675000Y505000D03*
X730000Y530000D03*
X730000Y520000D03*
D12*
X730000Y460000D03*
X740000Y460000D03*
D16*
X624800Y497800D03*
D17*
X637800Y527800D03*
X637800Y467800D03*
D18*
X928250Y550000D03*
D19*
X914000Y507500D03*
X914000Y592500D03*
D12*
X800000Y595000D03*
X810000Y595000D03*
X800000Y580000D03*
X810000Y580000D03*
D11*
X690000Y505000D03*
X690000Y495000D03*
D18*
X928250Y430000D03*
D19*
X914000Y387500D03*
X914000Y472500D03*
D12*
X835000Y495000D03*
X845000Y495000D03*
X845000Y485000D03*
X835000Y485000D03*
X780000Y450000D03*
X770000Y450000D03*
D20*
X930000Y765000D03*
X625000Y765000D03*
X625000Y340000D03*
X930000Y340000D03*
D21*
X782300Y533142D02*
X782300Y546858D01*
X807700Y546858D02*
X807700Y533142D01*
D22*
X645000Y589000D03*
X635500Y611000D03*
X654500Y611000D03*
D12*
X710000Y595000D03*
X720000Y595000D03*
D11*
X700000Y460000D03*
X700000Y470000D03*
D21*
X648300Y393758D02*
X648300Y380042D01*
X673700Y380042D02*
X673700Y393758D01*
D12*
X658400Y342500D03*
X668400Y342500D03*
X820000Y445000D03*
X810000Y445000D03*
D23*
X776000Y362850D03*
X804000Y362850D03*
D24*
X790000Y387150D03*
D25*
X820000Y370000D03*
D11*
X825000Y460000D03*
X825000Y470000D03*
D23*
X836000Y362850D03*
X864000Y362850D03*
D24*
X850000Y387150D03*
D25*
X819500Y383500D03*
D26*
X717300Y342850D03*
X742700Y342850D03*
X742700Y407150D03*
X717300Y407150D03*
D15*
X700000Y685000D03*
D27*
X665000Y440500D03*
X665000Y419500D03*
D28*
X755000Y495000D02*
X770997Y495000D01*
X771093Y494905D01*
X773846Y494905D01*
X775500Y493250D01*
X690000Y505000D02*
X675000Y505000D01*
X690000Y505000D02*
X705000Y520000D01*
X730000Y520000D01*
X750000Y520000D01*
X755000Y515000D01*
X755000Y505000D01*
X740000Y480000D02*
X740000Y460000D01*
X773846Y485096D02*
X775500Y486750D01*
X773846Y485096D02*
X771093Y485096D01*
X770997Y485000D01*
X760000Y485000D01*
X755000Y480000D01*
X750000Y480000D01*
X658400Y342500D02*
X652500Y342500D01*
X648300Y346700D02*
X648300Y386900D01*
X648300Y346700D02*
X652500Y342500D01*
X810000Y580000D02*
X810000Y595000D01*
X820000Y595000D01*
D25*
X820000Y595000D03*
D28*
X804000Y362850D02*
X804000Y356000D01*
X810000Y350000D01*
D25*
X810000Y350000D03*
D28*
X864000Y354000D02*
X864000Y362850D01*
X864000Y354000D02*
X860000Y350000D01*
D25*
X860000Y350000D03*
D28*
X804750Y509500D02*
X815250Y520000D01*
X840000Y520000D01*
D25*
X840000Y520000D03*
D28*
X785250Y509500D02*
X775250Y519500D01*
X765500Y519500D01*
X765000Y520000D01*
D25*
X765000Y520000D03*
D28*
X675000Y495000D02*
X627600Y495000D01*
X624800Y497800D01*
X675000Y495000D02*
X690000Y495000D01*
X814500Y493250D02*
X830775Y493250D01*
X830926Y493252D01*
X831078Y493258D01*
X831229Y493267D01*
X831379Y493281D01*
X831530Y493298D01*
X831680Y493319D01*
X831829Y493344D01*
X831978Y493372D01*
X832126Y493405D01*
X832273Y493441D01*
X832419Y493481D01*
X832564Y493524D01*
X832708Y493571D01*
X832850Y493622D01*
X832991Y493676D01*
X833131Y493734D01*
X833270Y493796D01*
X833406Y493861D01*
X833541Y493929D01*
X833675Y494001D01*
X833806Y494076D01*
X833936Y494154D01*
X834063Y494236D01*
X834188Y494321D01*
X834311Y494409D01*
X834432Y494500D01*
X834551Y494594D01*
X834667Y494691D01*
X834781Y494791D01*
X834892Y494894D01*
X835000Y495000D01*
D29*
X845000Y495000D02*
X892561Y542561D01*
X892560Y542561D02*
X893007Y542996D01*
X893463Y543420D01*
X893930Y543833D01*
X894407Y544234D01*
X894894Y544624D01*
X895390Y545001D01*
X895895Y545367D01*
X896410Y545719D01*
X896932Y546059D01*
X897463Y546386D01*
X898001Y546700D01*
X898548Y547001D01*
X899101Y547288D01*
X899661Y547561D01*
X900228Y547821D01*
X900801Y548067D01*
X901380Y548298D01*
X901964Y548515D01*
X902553Y548718D01*
X903148Y548906D01*
X903746Y549080D01*
X904349Y549239D01*
X904956Y549383D01*
X905566Y549512D01*
X906179Y549626D01*
X906794Y549725D01*
X907412Y549809D01*
X908031Y549878D01*
X908652Y549931D01*
X909275Y549969D01*
X909898Y549992D01*
X910521Y550000D01*
X928250Y550000D01*
D28*
X830775Y486750D02*
X814500Y486750D01*
X830775Y486750D02*
X830926Y486748D01*
X831078Y486742D01*
X831229Y486733D01*
X831379Y486719D01*
X831530Y486702D01*
X831680Y486681D01*
X831829Y486656D01*
X831978Y486628D01*
X832126Y486595D01*
X832273Y486559D01*
X832419Y486519D01*
X832564Y486476D01*
X832708Y486429D01*
X832850Y486378D01*
X832991Y486324D01*
X833131Y486266D01*
X833270Y486204D01*
X833406Y486139D01*
X833541Y486071D01*
X833675Y485999D01*
X833806Y485924D01*
X833936Y485846D01*
X834063Y485764D01*
X834188Y485679D01*
X834311Y485591D01*
X834432Y485500D01*
X834551Y485406D01*
X834667Y485309D01*
X834781Y485209D01*
X834892Y485106D01*
X835000Y485000D01*
D29*
X845000Y485000D02*
X892561Y437440D01*
X892560Y437439D02*
X893007Y437004D01*
X893463Y436580D01*
X893930Y436167D01*
X894407Y435766D01*
X894894Y435376D01*
X895390Y434999D01*
X895895Y434633D01*
X896410Y434281D01*
X896932Y433941D01*
X897463Y433614D01*
X898001Y433300D01*
X898548Y432999D01*
X899101Y432712D01*
X899661Y432439D01*
X900228Y432179D01*
X900801Y431933D01*
X901380Y431702D01*
X901964Y431485D01*
X902553Y431282D01*
X903148Y431094D01*
X903746Y430920D01*
X904349Y430761D01*
X904956Y430617D01*
X905566Y430488D01*
X906179Y430374D01*
X906794Y430275D01*
X907412Y430191D01*
X908031Y430122D01*
X908652Y430069D01*
X909275Y430031D01*
X909898Y430008D01*
X910521Y430000D01*
X928250Y430000D01*
D28*
X770000Y450000D02*
X770000Y460000D01*
X780500Y470500D02*
X785250Y470500D01*
X780500Y470500D02*
X770000Y460000D01*
X791750Y451750D02*
X791750Y470500D01*
X791750Y451750D02*
X790000Y450000D01*
X780000Y450000D01*
X791750Y509500D02*
X791750Y530550D01*
X782300Y540000D01*
X782300Y557700D01*
X745000Y595000D01*
X720000Y595000D01*
X798250Y530550D02*
X798250Y509500D01*
X798250Y530550D02*
X807700Y540000D01*
X710000Y595000D02*
X670500Y595000D01*
X654500Y611000D01*
X673700Y410800D02*
X673700Y386900D01*
X673700Y410800D02*
X665000Y419500D01*
X665000Y440500D02*
X695500Y440500D01*
X700000Y445000D01*
X700000Y460000D01*
X670000Y564000D02*
X645000Y589000D01*
X670000Y564000D02*
X670000Y560000D01*
D25*
X670000Y560000D03*
X715000Y480000D03*
D28*
X705000Y470000D01*
X700000Y470000D01*
X717300Y427300D02*
X717300Y407150D01*
X717300Y427300D02*
X725000Y435000D01*
X750000Y435000D01*
X755000Y440000D01*
X755000Y459723D01*
X775250Y480000D02*
X775500Y480250D01*
X775250Y480000D02*
X765000Y480000D01*
X760000Y475000D01*
X760000Y464723D02*
X755000Y459723D01*
X760000Y464723D02*
X760000Y475000D01*
X760550Y425000D02*
X742700Y407150D01*
X760550Y425000D02*
X785000Y425000D01*
X798250Y438250D02*
X798250Y470500D01*
X798250Y438250D02*
X785000Y425000D01*
X677500Y342500D02*
X668400Y342500D01*
X677500Y342500D02*
X690000Y330000D01*
X717300Y342850D02*
X720000Y342850D01*
X742700Y342850D01*
X707150Y330000D02*
X690000Y330000D01*
X707150Y330000D02*
X720000Y342850D01*
X810000Y445000D02*
X804750Y450250D01*
X804750Y470500D01*
X810000Y445000D02*
X810000Y405000D01*
X792150Y387150D01*
X790000Y387150D01*
X802850Y387150D01*
X820000Y370000D01*
X819500Y383500D02*
X846350Y383500D01*
X850000Y387150D01*
X825000Y470000D02*
X814750Y480250D01*
X814500Y480250D01*
X825000Y470000D02*
X830000Y470000D01*
X835000Y465000D01*
X835000Y400000D01*
X847850Y387150D01*
X850000Y387150D01*
X914000Y606000D02*
X905000Y615000D01*
X914000Y606000D02*
X914000Y592500D01*
D25*
X905000Y615000D03*
D28*
X907500Y507500D02*
X914000Y507500D01*
X907500Y507500D02*
X890000Y490000D01*
D25*
X890000Y490000D03*
D28*
X910000Y490000D02*
X914000Y486000D01*
X914000Y472500D01*
D25*
X910000Y490000D03*
D28*
X914000Y387500D02*
X914000Y384000D01*
X895000Y365000D01*
D25*
X895000Y365000D03*
D28*
X637800Y527800D02*
X637800Y547800D01*
X645000Y555000D01*
D25*
X645000Y555000D03*
D28*
X637800Y467800D02*
X637800Y457800D01*
X630000Y450000D01*
D25*
X630000Y450000D03*
D28*
X635500Y611000D02*
X635000Y611500D01*
X635000Y625000D01*
D25*
X635000Y625000D03*
D28*
X800000Y595000D02*
X800000Y580000D01*
X730000Y460000D02*
X730000Y450000D01*
D25*
X730000Y450000D03*
D28*
X730000Y530000D02*
X730000Y540000D01*
D25*
X730000Y540000D03*
D28*
X790000Y580000D02*
X800000Y580000D01*
D25*
X790000Y580000D03*
D28*
X836000Y362850D02*
X836000Y346000D01*
X835000Y345000D01*
D25*
X835000Y345000D03*
D28*
X820000Y445000D02*
X825000Y450000D01*
X825000Y460000D01*
X776000Y362850D02*
X776000Y354000D01*
X785000Y345000D01*
D25*
X785000Y345000D03*
D28*
X814500Y499750D02*
X814750Y499750D01*
X825000Y510000D01*
D25*
X825000Y510000D03*
D28*
X814500Y499750D02*
X812873Y498123D01*
X801997Y490000D02*
X795000Y490000D01*
X810120Y498123D02*
X812873Y498123D01*
X810120Y498123D02*
X801997Y490000D01*
X815000Y460000D02*
X825000Y460000D01*
D25*
X815000Y460000D03*
M02*
