G04 EAGLE Gerber RS-274X export*
G75*
%MOMM*%
%FSLAX34Y34*%
%LPD*%
%INSilkscreen Top*%
%IPPOS*%
%AMOC8*
5,1,8,0,0,1.08239X$1,22.5*%
G01*
%ADD10C,0.050800*%
%ADD11C,0.076200*%
%ADD12C,0.500000*%
%ADD13C,0.120000*%
%ADD14C,0.127000*%
%ADD15C,0.203200*%
%ADD16C,0.152400*%
%ADD17C,0.200000*%
%ADD18C,0.101600*%
%ADD19R,1.000000X0.250000*%
%ADD20R,1.500000X1.500000*%
%ADD21R,0.150000X0.300000*%
%ADD22R,0.300000X0.300000*%


D10*
X642117Y774130D02*
X642117Y769784D01*
X642115Y769714D01*
X642109Y769645D01*
X642099Y769576D01*
X642086Y769508D01*
X642068Y769440D01*
X642047Y769374D01*
X642022Y769309D01*
X641994Y769245D01*
X641962Y769183D01*
X641927Y769123D01*
X641888Y769065D01*
X641846Y769010D01*
X641801Y768956D01*
X641753Y768906D01*
X641703Y768858D01*
X641649Y768813D01*
X641594Y768771D01*
X641536Y768732D01*
X641476Y768697D01*
X641414Y768665D01*
X641350Y768637D01*
X641285Y768612D01*
X641219Y768591D01*
X641151Y768573D01*
X641083Y768560D01*
X641014Y768550D01*
X640945Y768544D01*
X640875Y768542D01*
X640254Y768542D01*
X645661Y770715D02*
X647058Y770715D01*
X645661Y770716D02*
X645597Y770714D01*
X645532Y770708D01*
X645469Y770699D01*
X645406Y770686D01*
X645344Y770669D01*
X645283Y770648D01*
X645223Y770624D01*
X645165Y770596D01*
X645108Y770565D01*
X645054Y770531D01*
X645001Y770493D01*
X644951Y770452D01*
X644904Y770409D01*
X644859Y770363D01*
X644817Y770314D01*
X644778Y770263D01*
X644742Y770209D01*
X644709Y770154D01*
X644680Y770096D01*
X644654Y770038D01*
X644631Y769977D01*
X644612Y769916D01*
X644597Y769853D01*
X644586Y769789D01*
X644578Y769726D01*
X644574Y769661D01*
X644574Y769597D01*
X644578Y769532D01*
X644586Y769469D01*
X644597Y769405D01*
X644612Y769342D01*
X644631Y769281D01*
X644654Y769220D01*
X644680Y769162D01*
X644709Y769104D01*
X644742Y769049D01*
X644778Y768995D01*
X644817Y768944D01*
X644859Y768895D01*
X644904Y768849D01*
X644951Y768806D01*
X645001Y768765D01*
X645054Y768727D01*
X645108Y768693D01*
X645165Y768662D01*
X645223Y768634D01*
X645283Y768610D01*
X645344Y768589D01*
X645406Y768572D01*
X645469Y768559D01*
X645532Y768550D01*
X645597Y768544D01*
X645661Y768542D01*
X647058Y768542D01*
X647058Y771336D01*
X647056Y771394D01*
X647051Y771453D01*
X647042Y771510D01*
X647029Y771568D01*
X647012Y771624D01*
X646993Y771679D01*
X646969Y771732D01*
X646943Y771785D01*
X646913Y771835D01*
X646880Y771883D01*
X646844Y771929D01*
X646806Y771973D01*
X646764Y772015D01*
X646720Y772053D01*
X646674Y772089D01*
X646626Y772122D01*
X646576Y772152D01*
X646523Y772178D01*
X646470Y772202D01*
X646415Y772221D01*
X646359Y772238D01*
X646301Y772251D01*
X646244Y772260D01*
X646185Y772265D01*
X646127Y772267D01*
X644885Y772267D01*
X649358Y772267D02*
X650600Y768542D01*
X651842Y772267D01*
X654988Y770715D02*
X656385Y770715D01*
X654988Y770716D02*
X654924Y770714D01*
X654859Y770708D01*
X654796Y770699D01*
X654733Y770686D01*
X654671Y770669D01*
X654610Y770648D01*
X654550Y770624D01*
X654492Y770596D01*
X654435Y770565D01*
X654381Y770531D01*
X654328Y770493D01*
X654278Y770452D01*
X654231Y770409D01*
X654186Y770363D01*
X654144Y770314D01*
X654105Y770263D01*
X654069Y770209D01*
X654036Y770154D01*
X654007Y770096D01*
X653981Y770038D01*
X653958Y769977D01*
X653939Y769916D01*
X653924Y769853D01*
X653913Y769789D01*
X653905Y769726D01*
X653901Y769661D01*
X653901Y769597D01*
X653905Y769532D01*
X653913Y769469D01*
X653924Y769405D01*
X653939Y769342D01*
X653958Y769281D01*
X653981Y769220D01*
X654007Y769162D01*
X654036Y769104D01*
X654069Y769049D01*
X654105Y768995D01*
X654144Y768944D01*
X654186Y768895D01*
X654231Y768849D01*
X654278Y768806D01*
X654328Y768765D01*
X654381Y768727D01*
X654435Y768693D01*
X654492Y768662D01*
X654550Y768634D01*
X654610Y768610D01*
X654671Y768589D01*
X654733Y768572D01*
X654796Y768559D01*
X654859Y768550D01*
X654924Y768544D01*
X654988Y768542D01*
X656385Y768542D01*
X656385Y771336D01*
X656383Y771394D01*
X656378Y771453D01*
X656369Y771510D01*
X656356Y771568D01*
X656339Y771624D01*
X656320Y771679D01*
X656296Y771732D01*
X656270Y771785D01*
X656240Y771835D01*
X656207Y771883D01*
X656171Y771929D01*
X656133Y771973D01*
X656091Y772015D01*
X656047Y772053D01*
X656001Y772089D01*
X655953Y772122D01*
X655903Y772152D01*
X655850Y772178D01*
X655797Y772202D01*
X655742Y772221D01*
X655686Y772238D01*
X655628Y772251D01*
X655571Y772260D01*
X655512Y772265D01*
X655454Y772267D01*
X654212Y772267D01*
X661323Y774130D02*
X661323Y768542D01*
X659770Y768542D01*
X659712Y768544D01*
X659653Y768549D01*
X659596Y768558D01*
X659538Y768571D01*
X659482Y768588D01*
X659427Y768607D01*
X659374Y768631D01*
X659321Y768657D01*
X659271Y768687D01*
X659223Y768720D01*
X659177Y768756D01*
X659133Y768794D01*
X659091Y768836D01*
X659053Y768880D01*
X659017Y768926D01*
X658984Y768974D01*
X658954Y769024D01*
X658928Y769077D01*
X658904Y769130D01*
X658885Y769185D01*
X658868Y769241D01*
X658855Y769299D01*
X658846Y769356D01*
X658841Y769415D01*
X658839Y769473D01*
X658839Y771336D01*
X658841Y771394D01*
X658846Y771453D01*
X658855Y771510D01*
X658868Y771568D01*
X658885Y771624D01*
X658904Y771679D01*
X658928Y771732D01*
X658954Y771785D01*
X658984Y771835D01*
X659017Y771883D01*
X659053Y771929D01*
X659091Y771973D01*
X659133Y772015D01*
X659177Y772053D01*
X659223Y772089D01*
X659271Y772122D01*
X659321Y772152D01*
X659374Y772178D01*
X659427Y772202D01*
X659482Y772221D01*
X659538Y772238D01*
X659596Y772251D01*
X659653Y772260D01*
X659712Y772265D01*
X659770Y772267D01*
X661323Y772267D01*
X640254Y764986D02*
X640254Y759398D01*
X643358Y759398D02*
X640254Y764986D01*
X643358Y764986D02*
X643358Y759398D01*
X646799Y759398D02*
X648351Y759398D01*
X646799Y759398D02*
X646741Y759400D01*
X646682Y759405D01*
X646625Y759414D01*
X646567Y759427D01*
X646511Y759444D01*
X646456Y759463D01*
X646403Y759487D01*
X646350Y759513D01*
X646300Y759543D01*
X646252Y759576D01*
X646206Y759612D01*
X646162Y759650D01*
X646120Y759692D01*
X646082Y759736D01*
X646046Y759782D01*
X646013Y759830D01*
X645983Y759880D01*
X645957Y759933D01*
X645933Y759986D01*
X645914Y760041D01*
X645897Y760097D01*
X645884Y760155D01*
X645875Y760212D01*
X645870Y760271D01*
X645868Y760329D01*
X645868Y761882D01*
X645870Y761952D01*
X645876Y762021D01*
X645886Y762090D01*
X645899Y762158D01*
X645917Y762226D01*
X645938Y762292D01*
X645963Y762357D01*
X645991Y762421D01*
X646023Y762483D01*
X646058Y762543D01*
X646097Y762601D01*
X646139Y762656D01*
X646184Y762710D01*
X646232Y762760D01*
X646282Y762808D01*
X646336Y762853D01*
X646391Y762895D01*
X646449Y762934D01*
X646509Y762969D01*
X646571Y763001D01*
X646635Y763029D01*
X646700Y763054D01*
X646766Y763075D01*
X646834Y763093D01*
X646902Y763106D01*
X646971Y763116D01*
X647040Y763122D01*
X647110Y763124D01*
X647180Y763122D01*
X647249Y763116D01*
X647318Y763106D01*
X647386Y763093D01*
X647454Y763075D01*
X647520Y763054D01*
X647585Y763029D01*
X647649Y763001D01*
X647711Y762969D01*
X647771Y762934D01*
X647829Y762895D01*
X647884Y762853D01*
X647938Y762808D01*
X647988Y762760D01*
X648036Y762710D01*
X648081Y762656D01*
X648123Y762601D01*
X648162Y762543D01*
X648197Y762483D01*
X648229Y762421D01*
X648257Y762357D01*
X648282Y762292D01*
X648303Y762226D01*
X648321Y762158D01*
X648334Y762090D01*
X648344Y762021D01*
X648350Y761952D01*
X648352Y761882D01*
X648351Y761882D02*
X648351Y761261D01*
X645868Y761261D01*
X650916Y759398D02*
X650916Y763123D01*
X653710Y763123D01*
X653768Y763121D01*
X653827Y763116D01*
X653884Y763107D01*
X653942Y763094D01*
X653998Y763077D01*
X654053Y763058D01*
X654106Y763034D01*
X654159Y763008D01*
X654209Y762978D01*
X654257Y762945D01*
X654303Y762909D01*
X654347Y762871D01*
X654389Y762829D01*
X654427Y762785D01*
X654463Y762739D01*
X654496Y762691D01*
X654526Y762641D01*
X654552Y762588D01*
X654576Y762535D01*
X654595Y762480D01*
X654612Y762424D01*
X654625Y762366D01*
X654634Y762309D01*
X654639Y762250D01*
X654641Y762192D01*
X654642Y762192D02*
X654642Y759398D01*
X652779Y759398D02*
X652779Y763123D01*
X658264Y761571D02*
X659661Y761571D01*
X658264Y761572D02*
X658200Y761570D01*
X658135Y761564D01*
X658072Y761555D01*
X658009Y761542D01*
X657947Y761525D01*
X657886Y761504D01*
X657826Y761480D01*
X657768Y761452D01*
X657711Y761421D01*
X657657Y761387D01*
X657604Y761349D01*
X657554Y761308D01*
X657507Y761265D01*
X657462Y761219D01*
X657420Y761170D01*
X657381Y761119D01*
X657345Y761065D01*
X657312Y761010D01*
X657283Y760952D01*
X657257Y760894D01*
X657234Y760833D01*
X657215Y760772D01*
X657200Y760709D01*
X657189Y760645D01*
X657181Y760582D01*
X657177Y760517D01*
X657177Y760453D01*
X657181Y760388D01*
X657189Y760325D01*
X657200Y760261D01*
X657215Y760198D01*
X657234Y760137D01*
X657257Y760076D01*
X657283Y760018D01*
X657312Y759960D01*
X657345Y759905D01*
X657381Y759851D01*
X657420Y759800D01*
X657462Y759751D01*
X657507Y759705D01*
X657554Y759662D01*
X657604Y759621D01*
X657657Y759583D01*
X657711Y759549D01*
X657768Y759518D01*
X657826Y759490D01*
X657886Y759466D01*
X657947Y759445D01*
X658009Y759428D01*
X658072Y759415D01*
X658135Y759406D01*
X658200Y759400D01*
X658264Y759398D01*
X659661Y759398D01*
X659661Y762192D01*
X659659Y762250D01*
X659654Y762309D01*
X659645Y762366D01*
X659632Y762424D01*
X659615Y762480D01*
X659596Y762535D01*
X659572Y762588D01*
X659546Y762641D01*
X659516Y762691D01*
X659483Y762739D01*
X659447Y762785D01*
X659409Y762829D01*
X659367Y762871D01*
X659323Y762909D01*
X659277Y762945D01*
X659229Y762978D01*
X659179Y763008D01*
X659126Y763034D01*
X659073Y763058D01*
X659018Y763077D01*
X658962Y763094D01*
X658904Y763107D01*
X658847Y763116D01*
X658788Y763121D01*
X658730Y763123D01*
X657488Y763123D01*
X661678Y763123D02*
X663541Y763123D01*
X662299Y764986D02*
X662299Y760329D01*
X662301Y760271D01*
X662306Y760212D01*
X662315Y760155D01*
X662328Y760097D01*
X662345Y760041D01*
X662364Y759986D01*
X662388Y759933D01*
X662414Y759880D01*
X662444Y759830D01*
X662477Y759782D01*
X662513Y759736D01*
X662551Y759692D01*
X662593Y759650D01*
X662637Y759612D01*
X662683Y759576D01*
X662731Y759543D01*
X662782Y759513D01*
X662834Y759487D01*
X662887Y759463D01*
X662942Y759444D01*
X662998Y759427D01*
X663056Y759414D01*
X663113Y759405D01*
X663172Y759400D01*
X663230Y759398D01*
X663541Y759398D01*
X665688Y760329D02*
X665688Y764986D01*
X665689Y760329D02*
X665691Y760271D01*
X665696Y760212D01*
X665705Y760155D01*
X665718Y760097D01*
X665735Y760041D01*
X665754Y759986D01*
X665778Y759933D01*
X665804Y759880D01*
X665834Y759830D01*
X665867Y759782D01*
X665903Y759736D01*
X665941Y759692D01*
X665983Y759650D01*
X666027Y759612D01*
X666073Y759576D01*
X666121Y759543D01*
X666171Y759513D01*
X666224Y759487D01*
X666277Y759463D01*
X666332Y759444D01*
X666388Y759427D01*
X666446Y759414D01*
X666503Y759405D01*
X666562Y759400D01*
X666620Y759398D01*
X668507Y759398D02*
X668507Y763123D01*
X668351Y764676D02*
X668351Y764986D01*
X668662Y764986D01*
X668662Y764676D01*
X668351Y764676D01*
X640254Y755842D02*
X640254Y750254D01*
X640254Y752427D02*
X643358Y755842D01*
X641496Y753669D02*
X643358Y750254D01*
X645657Y751806D02*
X645657Y755842D01*
X645658Y751806D02*
X645660Y751729D01*
X645666Y751651D01*
X645675Y751575D01*
X645689Y751498D01*
X645706Y751423D01*
X645727Y751349D01*
X645752Y751275D01*
X645780Y751203D01*
X645812Y751133D01*
X645847Y751064D01*
X645886Y750997D01*
X645928Y750932D01*
X645973Y750869D01*
X646021Y750808D01*
X646072Y750750D01*
X646126Y750695D01*
X646183Y750642D01*
X646242Y750593D01*
X646304Y750546D01*
X646368Y750502D01*
X646434Y750462D01*
X646502Y750425D01*
X646572Y750391D01*
X646643Y750361D01*
X646716Y750335D01*
X646790Y750312D01*
X646865Y750293D01*
X646940Y750278D01*
X647017Y750266D01*
X647094Y750258D01*
X647171Y750254D01*
X647249Y750254D01*
X647326Y750258D01*
X647403Y750266D01*
X647480Y750278D01*
X647555Y750293D01*
X647630Y750312D01*
X647704Y750335D01*
X647777Y750361D01*
X647848Y750391D01*
X647918Y750425D01*
X647986Y750462D01*
X648052Y750502D01*
X648116Y750546D01*
X648178Y750593D01*
X648237Y750642D01*
X648294Y750695D01*
X648348Y750750D01*
X648399Y750808D01*
X648447Y750869D01*
X648492Y750932D01*
X648534Y750997D01*
X648573Y751064D01*
X648608Y751133D01*
X648640Y751203D01*
X648668Y751275D01*
X648693Y751349D01*
X648714Y751423D01*
X648731Y751498D01*
X648745Y751575D01*
X648754Y751651D01*
X648760Y751729D01*
X648762Y751806D01*
X648762Y755842D01*
X654447Y755842D02*
X654447Y750254D01*
X656930Y750254D01*
X659883Y750254D02*
X661436Y750254D01*
X659883Y750254D02*
X659825Y750256D01*
X659766Y750261D01*
X659709Y750270D01*
X659651Y750283D01*
X659595Y750300D01*
X659540Y750319D01*
X659487Y750343D01*
X659434Y750369D01*
X659384Y750399D01*
X659336Y750432D01*
X659290Y750468D01*
X659246Y750506D01*
X659204Y750548D01*
X659166Y750592D01*
X659130Y750638D01*
X659097Y750686D01*
X659067Y750736D01*
X659041Y750789D01*
X659017Y750842D01*
X658998Y750897D01*
X658981Y750953D01*
X658968Y751011D01*
X658959Y751068D01*
X658954Y751127D01*
X658952Y751185D01*
X658952Y752738D01*
X658954Y752808D01*
X658960Y752877D01*
X658970Y752946D01*
X658983Y753014D01*
X659001Y753082D01*
X659022Y753148D01*
X659047Y753213D01*
X659075Y753277D01*
X659107Y753339D01*
X659142Y753399D01*
X659181Y753457D01*
X659223Y753512D01*
X659268Y753566D01*
X659316Y753616D01*
X659366Y753664D01*
X659420Y753709D01*
X659475Y753751D01*
X659533Y753790D01*
X659593Y753825D01*
X659655Y753857D01*
X659719Y753885D01*
X659784Y753910D01*
X659850Y753931D01*
X659918Y753949D01*
X659986Y753962D01*
X660055Y753972D01*
X660124Y753978D01*
X660194Y753980D01*
X660264Y753978D01*
X660333Y753972D01*
X660402Y753962D01*
X660470Y753949D01*
X660538Y753931D01*
X660604Y753910D01*
X660669Y753885D01*
X660733Y753857D01*
X660795Y753825D01*
X660855Y753790D01*
X660913Y753751D01*
X660968Y753709D01*
X661022Y753664D01*
X661072Y753616D01*
X661120Y753566D01*
X661165Y753512D01*
X661207Y753457D01*
X661246Y753399D01*
X661281Y753339D01*
X661313Y753277D01*
X661341Y753213D01*
X661366Y753148D01*
X661387Y753082D01*
X661405Y753014D01*
X661418Y752946D01*
X661428Y752877D01*
X661434Y752808D01*
X661436Y752738D01*
X661436Y752117D01*
X658952Y752117D01*
X663890Y751185D02*
X663890Y753979D01*
X663890Y751185D02*
X663892Y751127D01*
X663897Y751068D01*
X663906Y751011D01*
X663919Y750953D01*
X663936Y750897D01*
X663955Y750842D01*
X663979Y750789D01*
X664005Y750736D01*
X664035Y750686D01*
X664068Y750638D01*
X664104Y750592D01*
X664142Y750548D01*
X664184Y750506D01*
X664228Y750468D01*
X664274Y750432D01*
X664322Y750399D01*
X664372Y750369D01*
X664425Y750343D01*
X664478Y750319D01*
X664533Y750300D01*
X664589Y750283D01*
X664647Y750270D01*
X664704Y750261D01*
X664763Y750256D01*
X664821Y750254D01*
X666373Y750254D01*
X666373Y753979D01*
X668645Y753979D02*
X669886Y750254D01*
X671128Y753979D01*
X674148Y750254D02*
X675700Y750254D01*
X674148Y750254D02*
X674090Y750256D01*
X674031Y750261D01*
X673974Y750270D01*
X673916Y750283D01*
X673860Y750300D01*
X673805Y750319D01*
X673752Y750343D01*
X673699Y750369D01*
X673649Y750399D01*
X673601Y750432D01*
X673555Y750468D01*
X673511Y750506D01*
X673469Y750548D01*
X673431Y750592D01*
X673395Y750638D01*
X673362Y750686D01*
X673332Y750736D01*
X673306Y750789D01*
X673282Y750842D01*
X673263Y750897D01*
X673246Y750953D01*
X673233Y751011D01*
X673224Y751068D01*
X673219Y751127D01*
X673217Y751185D01*
X673217Y752738D01*
X673216Y752738D02*
X673218Y752808D01*
X673224Y752877D01*
X673234Y752946D01*
X673247Y753014D01*
X673265Y753082D01*
X673286Y753148D01*
X673311Y753213D01*
X673339Y753277D01*
X673371Y753339D01*
X673406Y753399D01*
X673445Y753457D01*
X673487Y753512D01*
X673532Y753566D01*
X673580Y753616D01*
X673630Y753664D01*
X673684Y753709D01*
X673739Y753751D01*
X673797Y753790D01*
X673857Y753825D01*
X673919Y753857D01*
X673983Y753885D01*
X674048Y753910D01*
X674114Y753931D01*
X674182Y753949D01*
X674250Y753962D01*
X674319Y753972D01*
X674388Y753978D01*
X674458Y753980D01*
X674528Y753978D01*
X674597Y753972D01*
X674666Y753962D01*
X674734Y753949D01*
X674802Y753931D01*
X674868Y753910D01*
X674933Y753885D01*
X674997Y753857D01*
X675059Y753825D01*
X675119Y753790D01*
X675177Y753751D01*
X675232Y753709D01*
X675286Y753664D01*
X675336Y753616D01*
X675384Y753566D01*
X675429Y753512D01*
X675471Y753457D01*
X675510Y753399D01*
X675545Y753339D01*
X675577Y753277D01*
X675605Y753213D01*
X675630Y753148D01*
X675651Y753082D01*
X675669Y753014D01*
X675682Y752946D01*
X675692Y752877D01*
X675698Y752808D01*
X675700Y752738D01*
X675700Y752117D01*
X673217Y752117D01*
X678154Y750254D02*
X678154Y753979D01*
X679707Y753979D01*
X679765Y753977D01*
X679824Y753972D01*
X679881Y753963D01*
X679939Y753950D01*
X679995Y753933D01*
X680050Y753914D01*
X680103Y753890D01*
X680156Y753864D01*
X680206Y753834D01*
X680254Y753801D01*
X680300Y753765D01*
X680344Y753727D01*
X680386Y753685D01*
X680424Y753641D01*
X680460Y753595D01*
X680493Y753547D01*
X680523Y753497D01*
X680549Y753444D01*
X680573Y753391D01*
X680592Y753336D01*
X680609Y753280D01*
X680622Y753222D01*
X680631Y753165D01*
X680636Y753106D01*
X680638Y753048D01*
X680638Y750254D01*
X687299Y750254D02*
X688541Y750254D01*
X687299Y750254D02*
X687229Y750256D01*
X687160Y750262D01*
X687091Y750272D01*
X687023Y750285D01*
X686955Y750303D01*
X686889Y750324D01*
X686824Y750349D01*
X686760Y750377D01*
X686698Y750409D01*
X686638Y750444D01*
X686580Y750483D01*
X686525Y750525D01*
X686471Y750570D01*
X686421Y750618D01*
X686373Y750668D01*
X686328Y750722D01*
X686286Y750777D01*
X686247Y750835D01*
X686212Y750895D01*
X686180Y750957D01*
X686152Y751021D01*
X686127Y751086D01*
X686106Y751152D01*
X686088Y751220D01*
X686075Y751288D01*
X686065Y751357D01*
X686059Y751426D01*
X686057Y751496D01*
X686057Y754600D01*
X686059Y754670D01*
X686065Y754739D01*
X686075Y754808D01*
X686088Y754876D01*
X686106Y754944D01*
X686127Y755010D01*
X686152Y755075D01*
X686180Y755139D01*
X686212Y755201D01*
X686247Y755261D01*
X686286Y755319D01*
X686328Y755374D01*
X686373Y755428D01*
X686421Y755478D01*
X686471Y755526D01*
X686525Y755571D01*
X686580Y755613D01*
X686638Y755652D01*
X686698Y755687D01*
X686760Y755719D01*
X686824Y755747D01*
X686889Y755772D01*
X686955Y755793D01*
X687023Y755811D01*
X687091Y755824D01*
X687160Y755834D01*
X687229Y755840D01*
X687299Y755842D01*
X688541Y755842D01*
X691648Y752427D02*
X693045Y752427D01*
X691648Y752428D02*
X691584Y752426D01*
X691519Y752420D01*
X691456Y752411D01*
X691393Y752398D01*
X691331Y752381D01*
X691270Y752360D01*
X691210Y752336D01*
X691152Y752308D01*
X691095Y752277D01*
X691041Y752243D01*
X690988Y752205D01*
X690938Y752164D01*
X690891Y752121D01*
X690846Y752075D01*
X690804Y752026D01*
X690765Y751975D01*
X690729Y751921D01*
X690696Y751866D01*
X690667Y751808D01*
X690641Y751750D01*
X690618Y751689D01*
X690599Y751628D01*
X690584Y751565D01*
X690573Y751501D01*
X690565Y751438D01*
X690561Y751373D01*
X690561Y751309D01*
X690565Y751244D01*
X690573Y751181D01*
X690584Y751117D01*
X690599Y751054D01*
X690618Y750993D01*
X690641Y750932D01*
X690667Y750874D01*
X690696Y750816D01*
X690729Y750761D01*
X690765Y750707D01*
X690804Y750656D01*
X690846Y750607D01*
X690891Y750561D01*
X690938Y750518D01*
X690988Y750477D01*
X691041Y750439D01*
X691095Y750405D01*
X691152Y750374D01*
X691210Y750346D01*
X691270Y750322D01*
X691331Y750301D01*
X691393Y750284D01*
X691456Y750271D01*
X691519Y750262D01*
X691584Y750256D01*
X691648Y750254D01*
X693045Y750254D01*
X693045Y753048D01*
X693044Y753048D02*
X693042Y753106D01*
X693037Y753165D01*
X693028Y753222D01*
X693015Y753280D01*
X692998Y753336D01*
X692979Y753391D01*
X692955Y753444D01*
X692929Y753497D01*
X692899Y753547D01*
X692866Y753595D01*
X692830Y753641D01*
X692792Y753685D01*
X692750Y753727D01*
X692706Y753765D01*
X692660Y753801D01*
X692612Y753834D01*
X692562Y753864D01*
X692509Y753890D01*
X692456Y753914D01*
X692401Y753933D01*
X692345Y753950D01*
X692287Y753963D01*
X692230Y753972D01*
X692171Y753977D01*
X692113Y753979D01*
X690872Y753979D01*
X695821Y753979D02*
X695821Y750254D01*
X695821Y753979D02*
X698615Y753979D01*
X698673Y753977D01*
X698732Y753972D01*
X698789Y753963D01*
X698847Y753950D01*
X698903Y753933D01*
X698958Y753914D01*
X699011Y753890D01*
X699064Y753864D01*
X699114Y753834D01*
X699162Y753801D01*
X699208Y753765D01*
X699252Y753727D01*
X699294Y753685D01*
X699332Y753641D01*
X699368Y753595D01*
X699401Y753547D01*
X699431Y753497D01*
X699457Y753444D01*
X699481Y753391D01*
X699500Y753336D01*
X699517Y753280D01*
X699530Y753222D01*
X699539Y753165D01*
X699544Y753106D01*
X699546Y753048D01*
X699547Y753048D02*
X699547Y750254D01*
X697684Y750254D02*
X697684Y753979D01*
X702323Y753979D02*
X702323Y748391D01*
X702323Y753979D02*
X703875Y753979D01*
X703933Y753977D01*
X703992Y753972D01*
X704049Y753963D01*
X704107Y753950D01*
X704163Y753933D01*
X704218Y753914D01*
X704271Y753890D01*
X704324Y753864D01*
X704374Y753834D01*
X704422Y753801D01*
X704468Y753765D01*
X704512Y753727D01*
X704554Y753685D01*
X704592Y753641D01*
X704628Y753595D01*
X704661Y753547D01*
X704691Y753497D01*
X704717Y753444D01*
X704741Y753391D01*
X704760Y753336D01*
X704777Y753280D01*
X704790Y753222D01*
X704799Y753165D01*
X704804Y753106D01*
X704806Y753048D01*
X704807Y753048D02*
X704807Y751185D01*
X704806Y751185D02*
X704804Y751127D01*
X704799Y751068D01*
X704790Y751011D01*
X704777Y750953D01*
X704760Y750897D01*
X704741Y750842D01*
X704717Y750789D01*
X704691Y750736D01*
X704661Y750686D01*
X704628Y750638D01*
X704592Y750592D01*
X704554Y750548D01*
X704512Y750506D01*
X704468Y750468D01*
X704422Y750432D01*
X704374Y750399D01*
X704324Y750369D01*
X704271Y750343D01*
X704218Y750319D01*
X704163Y750300D01*
X704107Y750283D01*
X704049Y750270D01*
X703992Y750261D01*
X703933Y750256D01*
X703875Y750254D01*
X702323Y750254D01*
X707232Y751185D02*
X707232Y753979D01*
X707232Y751185D02*
X707234Y751127D01*
X707239Y751068D01*
X707248Y751011D01*
X707261Y750953D01*
X707278Y750897D01*
X707297Y750842D01*
X707321Y750789D01*
X707347Y750736D01*
X707377Y750686D01*
X707410Y750638D01*
X707446Y750592D01*
X707484Y750548D01*
X707526Y750506D01*
X707570Y750468D01*
X707616Y750432D01*
X707664Y750399D01*
X707714Y750369D01*
X707767Y750343D01*
X707820Y750319D01*
X707875Y750300D01*
X707931Y750283D01*
X707989Y750270D01*
X708046Y750261D01*
X708105Y750256D01*
X708163Y750254D01*
X709716Y750254D01*
X709716Y753979D01*
X712635Y752427D02*
X714188Y751806D01*
X712635Y752427D02*
X712584Y752449D01*
X712535Y752475D01*
X712487Y752504D01*
X712442Y752537D01*
X712399Y752573D01*
X712358Y752611D01*
X712321Y752653D01*
X712286Y752696D01*
X712254Y752742D01*
X712226Y752791D01*
X712201Y752841D01*
X712180Y752892D01*
X712162Y752945D01*
X712148Y752999D01*
X712138Y753054D01*
X712132Y753110D01*
X712129Y753165D01*
X712130Y753221D01*
X712136Y753277D01*
X712145Y753332D01*
X712157Y753386D01*
X712174Y753440D01*
X712194Y753492D01*
X712218Y753542D01*
X712245Y753591D01*
X712276Y753638D01*
X712310Y753682D01*
X712346Y753724D01*
X712386Y753764D01*
X712428Y753800D01*
X712473Y753834D01*
X712520Y753864D01*
X712568Y753891D01*
X712619Y753915D01*
X712671Y753935D01*
X712725Y753951D01*
X712779Y753964D01*
X712834Y753973D01*
X712890Y753978D01*
X712946Y753979D01*
X712946Y753980D02*
X713057Y753976D01*
X713168Y753970D01*
X713278Y753959D01*
X713388Y753945D01*
X713498Y753928D01*
X713607Y753908D01*
X713715Y753884D01*
X713822Y753856D01*
X713929Y753825D01*
X714034Y753791D01*
X714139Y753754D01*
X714242Y753713D01*
X714344Y753669D01*
X714188Y751806D02*
X714239Y751784D01*
X714288Y751758D01*
X714336Y751729D01*
X714381Y751696D01*
X714424Y751660D01*
X714465Y751622D01*
X714502Y751580D01*
X714537Y751537D01*
X714569Y751491D01*
X714597Y751442D01*
X714622Y751392D01*
X714643Y751341D01*
X714661Y751288D01*
X714675Y751234D01*
X714685Y751179D01*
X714691Y751123D01*
X714694Y751068D01*
X714693Y751012D01*
X714687Y750956D01*
X714678Y750901D01*
X714666Y750847D01*
X714649Y750793D01*
X714629Y750741D01*
X714605Y750691D01*
X714578Y750642D01*
X714547Y750595D01*
X714513Y750551D01*
X714477Y750509D01*
X714437Y750469D01*
X714395Y750433D01*
X714350Y750399D01*
X714303Y750369D01*
X714255Y750342D01*
X714204Y750318D01*
X714152Y750298D01*
X714098Y750282D01*
X714044Y750269D01*
X713989Y750260D01*
X713933Y750255D01*
X713877Y750254D01*
X713743Y750257D01*
X713609Y750264D01*
X713475Y750275D01*
X713342Y750288D01*
X713209Y750306D01*
X713076Y750326D01*
X712944Y750350D01*
X712813Y750378D01*
X712682Y750408D01*
X712553Y750442D01*
X712424Y750480D01*
X712296Y750520D01*
X712169Y750564D01*
X722262Y753358D02*
X723193Y753358D01*
X723193Y750254D01*
X721331Y750254D01*
X721261Y750256D01*
X721192Y750262D01*
X721123Y750272D01*
X721055Y750285D01*
X720987Y750303D01*
X720921Y750324D01*
X720856Y750349D01*
X720792Y750377D01*
X720730Y750409D01*
X720670Y750444D01*
X720612Y750483D01*
X720557Y750525D01*
X720503Y750570D01*
X720453Y750618D01*
X720405Y750668D01*
X720360Y750722D01*
X720318Y750777D01*
X720279Y750835D01*
X720244Y750895D01*
X720212Y750957D01*
X720184Y751021D01*
X720159Y751086D01*
X720138Y751152D01*
X720120Y751220D01*
X720107Y751288D01*
X720097Y751357D01*
X720091Y751426D01*
X720089Y751496D01*
X720089Y754600D01*
X720091Y754670D01*
X720097Y754739D01*
X720107Y754808D01*
X720120Y754876D01*
X720138Y754944D01*
X720159Y755010D01*
X720184Y755075D01*
X720212Y755139D01*
X720244Y755201D01*
X720279Y755261D01*
X720318Y755319D01*
X720360Y755374D01*
X720405Y755428D01*
X720453Y755478D01*
X720503Y755526D01*
X720557Y755571D01*
X720612Y755613D01*
X720670Y755652D01*
X720730Y755687D01*
X720792Y755719D01*
X720856Y755747D01*
X720921Y755772D01*
X720987Y755793D01*
X721055Y755811D01*
X721123Y755824D01*
X721192Y755834D01*
X721261Y755840D01*
X721331Y755842D01*
X723193Y755842D01*
X725918Y753979D02*
X725918Y750254D01*
X725918Y753979D02*
X727781Y753979D01*
X727781Y753358D01*
X729543Y752738D02*
X729543Y751496D01*
X729543Y752738D02*
X729545Y752808D01*
X729551Y752877D01*
X729561Y752946D01*
X729574Y753014D01*
X729592Y753082D01*
X729613Y753148D01*
X729638Y753213D01*
X729666Y753277D01*
X729698Y753339D01*
X729733Y753399D01*
X729772Y753457D01*
X729814Y753512D01*
X729859Y753566D01*
X729907Y753616D01*
X729957Y753664D01*
X730011Y753709D01*
X730066Y753751D01*
X730124Y753790D01*
X730184Y753825D01*
X730246Y753857D01*
X730310Y753885D01*
X730375Y753910D01*
X730441Y753931D01*
X730509Y753949D01*
X730577Y753962D01*
X730646Y753972D01*
X730715Y753978D01*
X730785Y753980D01*
X730855Y753978D01*
X730924Y753972D01*
X730993Y753962D01*
X731061Y753949D01*
X731129Y753931D01*
X731195Y753910D01*
X731260Y753885D01*
X731324Y753857D01*
X731386Y753825D01*
X731446Y753790D01*
X731504Y753751D01*
X731559Y753709D01*
X731613Y753664D01*
X731663Y753616D01*
X731711Y753566D01*
X731756Y753512D01*
X731798Y753457D01*
X731837Y753399D01*
X731872Y753339D01*
X731904Y753277D01*
X731932Y753213D01*
X731957Y753148D01*
X731978Y753082D01*
X731996Y753014D01*
X732009Y752946D01*
X732019Y752877D01*
X732025Y752808D01*
X732027Y752738D01*
X732027Y751496D01*
X732025Y751426D01*
X732019Y751357D01*
X732009Y751288D01*
X731996Y751220D01*
X731978Y751152D01*
X731957Y751086D01*
X731932Y751021D01*
X731904Y750957D01*
X731872Y750895D01*
X731837Y750835D01*
X731798Y750777D01*
X731756Y750722D01*
X731711Y750668D01*
X731663Y750618D01*
X731613Y750570D01*
X731559Y750525D01*
X731504Y750483D01*
X731446Y750444D01*
X731386Y750409D01*
X731324Y750377D01*
X731260Y750349D01*
X731195Y750324D01*
X731129Y750303D01*
X731061Y750285D01*
X730993Y750272D01*
X730924Y750262D01*
X730855Y750256D01*
X730785Y750254D01*
X730715Y750256D01*
X730646Y750262D01*
X730577Y750272D01*
X730509Y750285D01*
X730441Y750303D01*
X730375Y750324D01*
X730310Y750349D01*
X730246Y750377D01*
X730184Y750409D01*
X730124Y750444D01*
X730066Y750483D01*
X730011Y750525D01*
X729957Y750570D01*
X729907Y750618D01*
X729859Y750668D01*
X729814Y750722D01*
X729772Y750777D01*
X729733Y750835D01*
X729698Y750895D01*
X729666Y750957D01*
X729638Y751021D01*
X729613Y751086D01*
X729592Y751152D01*
X729574Y751220D01*
X729561Y751288D01*
X729551Y751357D01*
X729545Y751426D01*
X729543Y751496D01*
X734481Y751185D02*
X734481Y753979D01*
X734481Y751185D02*
X734483Y751127D01*
X734488Y751068D01*
X734497Y751011D01*
X734510Y750953D01*
X734527Y750897D01*
X734546Y750842D01*
X734570Y750789D01*
X734596Y750736D01*
X734626Y750686D01*
X734659Y750638D01*
X734695Y750592D01*
X734733Y750548D01*
X734775Y750506D01*
X734819Y750468D01*
X734865Y750432D01*
X734913Y750399D01*
X734963Y750369D01*
X735016Y750343D01*
X735069Y750319D01*
X735124Y750300D01*
X735180Y750283D01*
X735238Y750270D01*
X735295Y750261D01*
X735354Y750256D01*
X735412Y750254D01*
X736965Y750254D01*
X736965Y753979D01*
X739630Y753979D02*
X739630Y748391D01*
X739630Y753979D02*
X741183Y753979D01*
X741241Y753977D01*
X741300Y753972D01*
X741357Y753963D01*
X741415Y753950D01*
X741471Y753933D01*
X741526Y753914D01*
X741579Y753890D01*
X741632Y753864D01*
X741682Y753834D01*
X741730Y753801D01*
X741776Y753765D01*
X741820Y753727D01*
X741862Y753685D01*
X741900Y753641D01*
X741936Y753595D01*
X741969Y753547D01*
X741999Y753497D01*
X742025Y753444D01*
X742049Y753391D01*
X742068Y753336D01*
X742085Y753280D01*
X742098Y753222D01*
X742107Y753165D01*
X742112Y753106D01*
X742114Y753048D01*
X742114Y751185D01*
X742112Y751127D01*
X742107Y751068D01*
X742098Y751011D01*
X742085Y750953D01*
X742068Y750897D01*
X742049Y750842D01*
X742025Y750789D01*
X741999Y750736D01*
X741969Y750686D01*
X741936Y750638D01*
X741900Y750592D01*
X741862Y750548D01*
X741820Y750506D01*
X741776Y750468D01*
X741730Y750432D01*
X741682Y750399D01*
X741632Y750369D01*
X741579Y750343D01*
X741526Y750319D01*
X741471Y750300D01*
X741415Y750283D01*
X741357Y750270D01*
X741300Y750261D01*
X741241Y750256D01*
X741183Y750254D01*
X739630Y750254D01*
X748524Y750254D02*
X748524Y755842D01*
X746972Y755842D02*
X750076Y755842D01*
X810279Y769017D02*
X812142Y774605D01*
X814005Y769017D01*
X813539Y770414D02*
X810745Y770414D01*
X818475Y769017D02*
X818475Y774605D01*
X818475Y769017D02*
X816923Y769017D01*
X816865Y769019D01*
X816806Y769024D01*
X816749Y769033D01*
X816691Y769046D01*
X816635Y769063D01*
X816580Y769082D01*
X816527Y769106D01*
X816474Y769132D01*
X816424Y769162D01*
X816376Y769195D01*
X816330Y769231D01*
X816286Y769269D01*
X816244Y769311D01*
X816206Y769355D01*
X816170Y769401D01*
X816137Y769449D01*
X816107Y769499D01*
X816081Y769552D01*
X816057Y769605D01*
X816038Y769660D01*
X816021Y769716D01*
X816008Y769774D01*
X815999Y769831D01*
X815994Y769890D01*
X815992Y769948D01*
X815992Y771811D01*
X815994Y771869D01*
X815999Y771928D01*
X816008Y771985D01*
X816021Y772043D01*
X816038Y772099D01*
X816057Y772154D01*
X816081Y772207D01*
X816107Y772260D01*
X816137Y772310D01*
X816170Y772358D01*
X816206Y772404D01*
X816244Y772448D01*
X816286Y772490D01*
X816330Y772528D01*
X816376Y772564D01*
X816424Y772597D01*
X816474Y772627D01*
X816527Y772653D01*
X816580Y772677D01*
X816635Y772696D01*
X816691Y772713D01*
X816749Y772726D01*
X816806Y772735D01*
X816865Y772740D01*
X816923Y772742D01*
X818475Y772742D01*
X822016Y771190D02*
X823413Y771190D01*
X822016Y771191D02*
X821952Y771189D01*
X821887Y771183D01*
X821824Y771174D01*
X821761Y771161D01*
X821699Y771144D01*
X821638Y771123D01*
X821578Y771099D01*
X821520Y771071D01*
X821463Y771040D01*
X821409Y771006D01*
X821356Y770968D01*
X821306Y770927D01*
X821259Y770884D01*
X821214Y770838D01*
X821172Y770789D01*
X821133Y770738D01*
X821097Y770684D01*
X821064Y770629D01*
X821035Y770571D01*
X821009Y770513D01*
X820986Y770452D01*
X820967Y770391D01*
X820952Y770328D01*
X820941Y770264D01*
X820933Y770201D01*
X820929Y770136D01*
X820929Y770072D01*
X820933Y770007D01*
X820941Y769944D01*
X820952Y769880D01*
X820967Y769817D01*
X820986Y769756D01*
X821009Y769695D01*
X821035Y769637D01*
X821064Y769579D01*
X821097Y769524D01*
X821133Y769470D01*
X821172Y769419D01*
X821214Y769370D01*
X821259Y769324D01*
X821306Y769281D01*
X821356Y769240D01*
X821409Y769202D01*
X821463Y769168D01*
X821520Y769137D01*
X821578Y769109D01*
X821638Y769085D01*
X821699Y769064D01*
X821761Y769047D01*
X821824Y769034D01*
X821887Y769025D01*
X821952Y769019D01*
X822016Y769017D01*
X823413Y769017D01*
X823413Y771811D01*
X823411Y771869D01*
X823406Y771928D01*
X823397Y771985D01*
X823384Y772043D01*
X823367Y772099D01*
X823348Y772154D01*
X823324Y772207D01*
X823298Y772260D01*
X823268Y772310D01*
X823235Y772358D01*
X823199Y772404D01*
X823161Y772448D01*
X823119Y772490D01*
X823075Y772528D01*
X823029Y772564D01*
X822981Y772597D01*
X822931Y772627D01*
X822878Y772653D01*
X822825Y772677D01*
X822770Y772696D01*
X822714Y772713D01*
X822656Y772726D01*
X822599Y772735D01*
X822540Y772740D01*
X822482Y772742D01*
X821240Y772742D01*
X826108Y772742D02*
X826108Y767154D01*
X826108Y772742D02*
X827660Y772742D01*
X827718Y772740D01*
X827777Y772735D01*
X827834Y772726D01*
X827892Y772713D01*
X827948Y772696D01*
X828003Y772677D01*
X828056Y772653D01*
X828109Y772627D01*
X828159Y772597D01*
X828207Y772564D01*
X828253Y772528D01*
X828297Y772490D01*
X828339Y772448D01*
X828377Y772404D01*
X828413Y772358D01*
X828446Y772310D01*
X828476Y772260D01*
X828502Y772207D01*
X828526Y772154D01*
X828545Y772099D01*
X828562Y772043D01*
X828575Y771985D01*
X828584Y771928D01*
X828589Y771869D01*
X828591Y771811D01*
X828591Y769948D01*
X828589Y769890D01*
X828584Y769831D01*
X828575Y769774D01*
X828562Y769716D01*
X828545Y769660D01*
X828526Y769605D01*
X828502Y769552D01*
X828476Y769499D01*
X828446Y769449D01*
X828413Y769401D01*
X828377Y769355D01*
X828339Y769311D01*
X828297Y769269D01*
X828253Y769231D01*
X828207Y769195D01*
X828159Y769162D01*
X828109Y769132D01*
X828056Y769106D01*
X828003Y769082D01*
X827948Y769063D01*
X827892Y769046D01*
X827834Y769033D01*
X827777Y769024D01*
X827718Y769019D01*
X827660Y769017D01*
X826108Y769017D01*
X830368Y772742D02*
X832230Y772742D01*
X830988Y774605D02*
X830988Y769948D01*
X830989Y769948D02*
X830991Y769890D01*
X830996Y769831D01*
X831005Y769774D01*
X831018Y769716D01*
X831035Y769660D01*
X831054Y769605D01*
X831078Y769552D01*
X831104Y769499D01*
X831134Y769449D01*
X831167Y769401D01*
X831203Y769355D01*
X831241Y769311D01*
X831283Y769269D01*
X831327Y769231D01*
X831373Y769195D01*
X831421Y769162D01*
X831472Y769132D01*
X831524Y769106D01*
X831577Y769082D01*
X831632Y769063D01*
X831688Y769046D01*
X831746Y769033D01*
X831803Y769024D01*
X831862Y769019D01*
X831920Y769017D01*
X832230Y769017D01*
X834270Y769017D02*
X834270Y772742D01*
X834115Y774295D02*
X834115Y774605D01*
X834425Y774605D01*
X834425Y774295D01*
X834115Y774295D01*
X836320Y772742D02*
X837562Y769017D01*
X838804Y772742D01*
X841824Y769017D02*
X843376Y769017D01*
X841824Y769017D02*
X841766Y769019D01*
X841707Y769024D01*
X841650Y769033D01*
X841592Y769046D01*
X841536Y769063D01*
X841481Y769082D01*
X841428Y769106D01*
X841375Y769132D01*
X841325Y769162D01*
X841277Y769195D01*
X841231Y769231D01*
X841187Y769269D01*
X841145Y769311D01*
X841107Y769355D01*
X841071Y769401D01*
X841038Y769449D01*
X841008Y769499D01*
X840982Y769552D01*
X840958Y769605D01*
X840939Y769660D01*
X840922Y769716D01*
X840909Y769774D01*
X840900Y769831D01*
X840895Y769890D01*
X840893Y769948D01*
X840892Y769948D02*
X840892Y771501D01*
X840894Y771571D01*
X840900Y771640D01*
X840910Y771709D01*
X840923Y771777D01*
X840941Y771845D01*
X840962Y771911D01*
X840987Y771976D01*
X841015Y772040D01*
X841047Y772102D01*
X841082Y772162D01*
X841121Y772220D01*
X841163Y772275D01*
X841208Y772329D01*
X841256Y772379D01*
X841306Y772427D01*
X841360Y772472D01*
X841415Y772514D01*
X841473Y772553D01*
X841533Y772588D01*
X841595Y772620D01*
X841659Y772648D01*
X841724Y772673D01*
X841790Y772694D01*
X841858Y772712D01*
X841926Y772725D01*
X841995Y772735D01*
X842064Y772741D01*
X842134Y772743D01*
X842204Y772741D01*
X842273Y772735D01*
X842342Y772725D01*
X842410Y772712D01*
X842478Y772694D01*
X842544Y772673D01*
X842609Y772648D01*
X842673Y772620D01*
X842735Y772588D01*
X842795Y772553D01*
X842853Y772514D01*
X842908Y772472D01*
X842962Y772427D01*
X843012Y772379D01*
X843060Y772329D01*
X843105Y772275D01*
X843147Y772220D01*
X843186Y772162D01*
X843221Y772102D01*
X843253Y772040D01*
X843281Y771976D01*
X843306Y771911D01*
X843327Y771845D01*
X843345Y771777D01*
X843358Y771709D01*
X843368Y771640D01*
X843374Y771571D01*
X843376Y771501D01*
X843376Y770880D01*
X840892Y770880D01*
X849854Y769017D02*
X851096Y769017D01*
X849854Y769017D02*
X849784Y769019D01*
X849715Y769025D01*
X849646Y769035D01*
X849578Y769048D01*
X849510Y769066D01*
X849444Y769087D01*
X849379Y769112D01*
X849315Y769140D01*
X849253Y769172D01*
X849193Y769207D01*
X849135Y769246D01*
X849080Y769288D01*
X849026Y769333D01*
X848976Y769381D01*
X848928Y769431D01*
X848883Y769485D01*
X848841Y769540D01*
X848802Y769598D01*
X848767Y769658D01*
X848735Y769720D01*
X848707Y769784D01*
X848682Y769849D01*
X848661Y769915D01*
X848643Y769983D01*
X848630Y770051D01*
X848620Y770120D01*
X848614Y770189D01*
X848612Y770259D01*
X848612Y773363D01*
X848614Y773433D01*
X848620Y773502D01*
X848630Y773571D01*
X848643Y773639D01*
X848661Y773707D01*
X848682Y773773D01*
X848707Y773838D01*
X848735Y773902D01*
X848767Y773964D01*
X848802Y774024D01*
X848841Y774082D01*
X848883Y774137D01*
X848928Y774191D01*
X848976Y774241D01*
X849026Y774289D01*
X849080Y774334D01*
X849135Y774376D01*
X849193Y774415D01*
X849253Y774450D01*
X849315Y774482D01*
X849379Y774510D01*
X849444Y774535D01*
X849510Y774556D01*
X849578Y774574D01*
X849646Y774587D01*
X849715Y774597D01*
X849784Y774603D01*
X849854Y774605D01*
X851096Y774605D01*
X854203Y771190D02*
X855600Y771190D01*
X854203Y771191D02*
X854139Y771189D01*
X854074Y771183D01*
X854011Y771174D01*
X853948Y771161D01*
X853886Y771144D01*
X853825Y771123D01*
X853765Y771099D01*
X853707Y771071D01*
X853650Y771040D01*
X853596Y771006D01*
X853543Y770968D01*
X853493Y770927D01*
X853446Y770884D01*
X853401Y770838D01*
X853359Y770789D01*
X853320Y770738D01*
X853284Y770684D01*
X853251Y770629D01*
X853222Y770571D01*
X853196Y770513D01*
X853173Y770452D01*
X853154Y770391D01*
X853139Y770328D01*
X853128Y770264D01*
X853120Y770201D01*
X853116Y770136D01*
X853116Y770072D01*
X853120Y770007D01*
X853128Y769944D01*
X853139Y769880D01*
X853154Y769817D01*
X853173Y769756D01*
X853196Y769695D01*
X853222Y769637D01*
X853251Y769579D01*
X853284Y769524D01*
X853320Y769470D01*
X853359Y769419D01*
X853401Y769370D01*
X853446Y769324D01*
X853493Y769281D01*
X853543Y769240D01*
X853596Y769202D01*
X853650Y769168D01*
X853707Y769137D01*
X853765Y769109D01*
X853825Y769085D01*
X853886Y769064D01*
X853948Y769047D01*
X854011Y769034D01*
X854074Y769025D01*
X854139Y769019D01*
X854203Y769017D01*
X855600Y769017D01*
X855600Y771811D01*
X855599Y771811D02*
X855597Y771869D01*
X855592Y771928D01*
X855583Y771985D01*
X855570Y772043D01*
X855553Y772099D01*
X855534Y772154D01*
X855510Y772207D01*
X855484Y772260D01*
X855454Y772310D01*
X855421Y772358D01*
X855385Y772404D01*
X855347Y772448D01*
X855305Y772490D01*
X855261Y772528D01*
X855215Y772564D01*
X855167Y772597D01*
X855117Y772627D01*
X855064Y772653D01*
X855011Y772677D01*
X854956Y772696D01*
X854900Y772713D01*
X854842Y772726D01*
X854785Y772735D01*
X854726Y772740D01*
X854668Y772742D01*
X853427Y772742D01*
X858294Y774605D02*
X858294Y769017D01*
X859847Y769017D01*
X859905Y769019D01*
X859964Y769024D01*
X860021Y769033D01*
X860079Y769046D01*
X860135Y769063D01*
X860190Y769082D01*
X860243Y769106D01*
X860296Y769132D01*
X860346Y769162D01*
X860394Y769195D01*
X860440Y769231D01*
X860484Y769269D01*
X860526Y769311D01*
X860564Y769355D01*
X860600Y769401D01*
X860633Y769449D01*
X860663Y769499D01*
X860689Y769552D01*
X860713Y769605D01*
X860732Y769660D01*
X860749Y769716D01*
X860762Y769774D01*
X860771Y769831D01*
X860776Y769890D01*
X860778Y769948D01*
X860778Y771811D01*
X860776Y771869D01*
X860771Y771928D01*
X860762Y771985D01*
X860749Y772043D01*
X860732Y772099D01*
X860713Y772154D01*
X860689Y772207D01*
X860663Y772260D01*
X860633Y772310D01*
X860600Y772358D01*
X860564Y772404D01*
X860526Y772448D01*
X860484Y772490D01*
X860440Y772528D01*
X860394Y772564D01*
X860346Y772597D01*
X860296Y772627D01*
X860243Y772653D01*
X860190Y772677D01*
X860135Y772696D01*
X860079Y772713D01*
X860021Y772726D01*
X859964Y772735D01*
X859905Y772740D01*
X859847Y772742D01*
X858294Y772742D01*
X863090Y774605D02*
X863090Y769948D01*
X863092Y769890D01*
X863097Y769831D01*
X863106Y769774D01*
X863119Y769716D01*
X863136Y769660D01*
X863155Y769605D01*
X863179Y769552D01*
X863205Y769499D01*
X863235Y769449D01*
X863268Y769401D01*
X863304Y769355D01*
X863342Y769311D01*
X863384Y769269D01*
X863428Y769231D01*
X863474Y769195D01*
X863522Y769162D01*
X863572Y769132D01*
X863625Y769106D01*
X863678Y769082D01*
X863733Y769063D01*
X863789Y769046D01*
X863847Y769033D01*
X863904Y769024D01*
X863963Y769019D01*
X864021Y769017D01*
X866878Y769017D02*
X868430Y769017D01*
X866878Y769017D02*
X866820Y769019D01*
X866761Y769024D01*
X866704Y769033D01*
X866646Y769046D01*
X866590Y769063D01*
X866535Y769082D01*
X866482Y769106D01*
X866429Y769132D01*
X866379Y769162D01*
X866331Y769195D01*
X866285Y769231D01*
X866241Y769269D01*
X866199Y769311D01*
X866161Y769355D01*
X866125Y769401D01*
X866092Y769449D01*
X866062Y769499D01*
X866036Y769552D01*
X866012Y769605D01*
X865993Y769660D01*
X865976Y769716D01*
X865963Y769774D01*
X865954Y769831D01*
X865949Y769890D01*
X865947Y769948D01*
X865947Y771501D01*
X865946Y771501D02*
X865948Y771571D01*
X865954Y771640D01*
X865964Y771709D01*
X865977Y771777D01*
X865995Y771845D01*
X866016Y771911D01*
X866041Y771976D01*
X866069Y772040D01*
X866101Y772102D01*
X866136Y772162D01*
X866175Y772220D01*
X866217Y772275D01*
X866262Y772329D01*
X866310Y772379D01*
X866360Y772427D01*
X866414Y772472D01*
X866469Y772514D01*
X866527Y772553D01*
X866587Y772588D01*
X866649Y772620D01*
X866713Y772648D01*
X866778Y772673D01*
X866844Y772694D01*
X866912Y772712D01*
X866980Y772725D01*
X867049Y772735D01*
X867118Y772741D01*
X867188Y772743D01*
X867258Y772741D01*
X867327Y772735D01*
X867396Y772725D01*
X867464Y772712D01*
X867532Y772694D01*
X867598Y772673D01*
X867663Y772648D01*
X867727Y772620D01*
X867789Y772588D01*
X867849Y772553D01*
X867907Y772514D01*
X867962Y772472D01*
X868016Y772427D01*
X868066Y772379D01*
X868114Y772329D01*
X868159Y772275D01*
X868201Y772220D01*
X868240Y772162D01*
X868275Y772102D01*
X868307Y772040D01*
X868335Y771976D01*
X868360Y771911D01*
X868381Y771845D01*
X868399Y771777D01*
X868412Y771709D01*
X868422Y771640D01*
X868428Y771571D01*
X868430Y771501D01*
X868430Y770880D01*
X865947Y770880D01*
X873877Y769017D02*
X876360Y769017D01*
X873877Y769017D02*
X873877Y774605D01*
X876360Y774605D01*
X875739Y772121D02*
X873877Y772121D01*
X880837Y772742D02*
X880837Y767154D01*
X880837Y772742D02*
X879285Y772742D01*
X879227Y772740D01*
X879168Y772735D01*
X879111Y772726D01*
X879053Y772713D01*
X878997Y772696D01*
X878942Y772677D01*
X878889Y772653D01*
X878836Y772627D01*
X878786Y772597D01*
X878738Y772564D01*
X878692Y772528D01*
X878648Y772490D01*
X878606Y772448D01*
X878568Y772404D01*
X878532Y772358D01*
X878499Y772310D01*
X878469Y772260D01*
X878443Y772207D01*
X878419Y772154D01*
X878400Y772099D01*
X878383Y772043D01*
X878370Y771985D01*
X878361Y771928D01*
X878356Y771869D01*
X878354Y771811D01*
X878353Y771811D02*
X878353Y769948D01*
X878354Y769948D02*
X878356Y769890D01*
X878361Y769831D01*
X878370Y769774D01*
X878383Y769716D01*
X878400Y769660D01*
X878419Y769605D01*
X878443Y769552D01*
X878469Y769499D01*
X878499Y769449D01*
X878532Y769401D01*
X878568Y769355D01*
X878606Y769311D01*
X878648Y769269D01*
X878692Y769231D01*
X878738Y769195D01*
X878786Y769162D01*
X878836Y769132D01*
X878889Y769106D01*
X878942Y769082D01*
X878997Y769063D01*
X879053Y769046D01*
X879111Y769033D01*
X879168Y769024D01*
X879227Y769019D01*
X879285Y769017D01*
X880837Y769017D01*
X883503Y769948D02*
X883503Y772742D01*
X883503Y769948D02*
X883505Y769890D01*
X883510Y769831D01*
X883519Y769774D01*
X883532Y769716D01*
X883549Y769660D01*
X883568Y769605D01*
X883592Y769552D01*
X883618Y769499D01*
X883648Y769449D01*
X883681Y769401D01*
X883717Y769355D01*
X883755Y769311D01*
X883797Y769269D01*
X883841Y769231D01*
X883887Y769195D01*
X883935Y769162D01*
X883985Y769132D01*
X884038Y769106D01*
X884091Y769082D01*
X884146Y769063D01*
X884202Y769046D01*
X884260Y769033D01*
X884317Y769024D01*
X884376Y769019D01*
X884434Y769017D01*
X885986Y769017D01*
X885986Y772742D01*
X889498Y771190D02*
X890895Y771190D01*
X889498Y771191D02*
X889434Y771189D01*
X889369Y771183D01*
X889306Y771174D01*
X889243Y771161D01*
X889181Y771144D01*
X889120Y771123D01*
X889060Y771099D01*
X889002Y771071D01*
X888945Y771040D01*
X888891Y771006D01*
X888838Y770968D01*
X888788Y770927D01*
X888741Y770884D01*
X888696Y770838D01*
X888654Y770789D01*
X888615Y770738D01*
X888579Y770684D01*
X888546Y770629D01*
X888517Y770571D01*
X888491Y770513D01*
X888468Y770452D01*
X888449Y770391D01*
X888434Y770328D01*
X888423Y770264D01*
X888415Y770201D01*
X888411Y770136D01*
X888411Y770072D01*
X888415Y770007D01*
X888423Y769944D01*
X888434Y769880D01*
X888449Y769817D01*
X888468Y769756D01*
X888491Y769695D01*
X888517Y769637D01*
X888546Y769579D01*
X888579Y769524D01*
X888615Y769470D01*
X888654Y769419D01*
X888696Y769370D01*
X888741Y769324D01*
X888788Y769281D01*
X888838Y769240D01*
X888891Y769202D01*
X888945Y769168D01*
X889002Y769137D01*
X889060Y769109D01*
X889120Y769085D01*
X889181Y769064D01*
X889243Y769047D01*
X889306Y769034D01*
X889369Y769025D01*
X889434Y769019D01*
X889498Y769017D01*
X890895Y769017D01*
X890895Y771811D01*
X890893Y771869D01*
X890888Y771928D01*
X890879Y771985D01*
X890866Y772043D01*
X890849Y772099D01*
X890830Y772154D01*
X890806Y772207D01*
X890780Y772260D01*
X890750Y772310D01*
X890717Y772358D01*
X890681Y772404D01*
X890643Y772448D01*
X890601Y772490D01*
X890557Y772528D01*
X890511Y772564D01*
X890463Y772597D01*
X890413Y772627D01*
X890360Y772653D01*
X890307Y772677D01*
X890252Y772696D01*
X890196Y772713D01*
X890138Y772726D01*
X890081Y772735D01*
X890022Y772740D01*
X889964Y772742D01*
X888722Y772742D01*
X893448Y774605D02*
X893448Y769948D01*
X893450Y769890D01*
X893455Y769831D01*
X893464Y769774D01*
X893477Y769716D01*
X893494Y769660D01*
X893513Y769605D01*
X893537Y769552D01*
X893563Y769499D01*
X893593Y769449D01*
X893626Y769401D01*
X893662Y769355D01*
X893700Y769311D01*
X893742Y769269D01*
X893786Y769231D01*
X893832Y769195D01*
X893880Y769162D01*
X893930Y769132D01*
X893983Y769106D01*
X894036Y769082D01*
X894091Y769063D01*
X894147Y769046D01*
X894205Y769033D01*
X894262Y769024D01*
X894321Y769019D01*
X894379Y769017D01*
X896266Y769017D02*
X896266Y772742D01*
X896111Y774295D02*
X896111Y774605D01*
X896421Y774605D01*
X896421Y774295D01*
X896111Y774295D01*
X898316Y772742D02*
X900799Y772742D01*
X898316Y769017D01*
X900799Y769017D01*
X903819Y769017D02*
X905371Y769017D01*
X903819Y769017D02*
X903761Y769019D01*
X903702Y769024D01*
X903645Y769033D01*
X903587Y769046D01*
X903531Y769063D01*
X903476Y769082D01*
X903423Y769106D01*
X903370Y769132D01*
X903320Y769162D01*
X903272Y769195D01*
X903226Y769231D01*
X903182Y769269D01*
X903140Y769311D01*
X903102Y769355D01*
X903066Y769401D01*
X903033Y769449D01*
X903003Y769499D01*
X902977Y769552D01*
X902953Y769605D01*
X902934Y769660D01*
X902917Y769716D01*
X902904Y769774D01*
X902895Y769831D01*
X902890Y769890D01*
X902888Y769948D01*
X902888Y771501D01*
X902890Y771571D01*
X902896Y771640D01*
X902906Y771709D01*
X902919Y771777D01*
X902937Y771845D01*
X902958Y771911D01*
X902983Y771976D01*
X903011Y772040D01*
X903043Y772102D01*
X903078Y772162D01*
X903117Y772220D01*
X903159Y772275D01*
X903204Y772329D01*
X903252Y772379D01*
X903302Y772427D01*
X903356Y772472D01*
X903411Y772514D01*
X903469Y772553D01*
X903529Y772588D01*
X903591Y772620D01*
X903655Y772648D01*
X903720Y772673D01*
X903786Y772694D01*
X903854Y772712D01*
X903922Y772725D01*
X903991Y772735D01*
X904060Y772741D01*
X904130Y772743D01*
X904200Y772741D01*
X904269Y772735D01*
X904338Y772725D01*
X904406Y772712D01*
X904474Y772694D01*
X904540Y772673D01*
X904605Y772648D01*
X904669Y772620D01*
X904731Y772588D01*
X904791Y772553D01*
X904849Y772514D01*
X904904Y772472D01*
X904958Y772427D01*
X905008Y772379D01*
X905056Y772329D01*
X905101Y772275D01*
X905143Y772220D01*
X905182Y772162D01*
X905217Y772102D01*
X905249Y772040D01*
X905277Y771976D01*
X905302Y771911D01*
X905323Y771845D01*
X905341Y771777D01*
X905354Y771709D01*
X905364Y771640D01*
X905370Y771571D01*
X905372Y771501D01*
X905371Y771501D02*
X905371Y770880D01*
X902888Y770880D01*
X907858Y769017D02*
X907858Y772742D01*
X909721Y772742D01*
X909721Y772121D01*
X829274Y761115D02*
X829272Y761045D01*
X829266Y760976D01*
X829256Y760907D01*
X829243Y760839D01*
X829225Y760771D01*
X829204Y760705D01*
X829179Y760640D01*
X829151Y760576D01*
X829119Y760514D01*
X829084Y760454D01*
X829045Y760396D01*
X829003Y760341D01*
X828958Y760287D01*
X828910Y760237D01*
X828860Y760189D01*
X828806Y760144D01*
X828751Y760102D01*
X828693Y760063D01*
X828633Y760028D01*
X828571Y759996D01*
X828507Y759968D01*
X828442Y759943D01*
X828376Y759922D01*
X828308Y759904D01*
X828240Y759891D01*
X828171Y759881D01*
X828102Y759875D01*
X828032Y759873D01*
X827933Y759875D01*
X827835Y759880D01*
X827737Y759890D01*
X827639Y759903D01*
X827542Y759919D01*
X827445Y759939D01*
X827350Y759963D01*
X827255Y759991D01*
X827161Y760022D01*
X827069Y760056D01*
X826978Y760094D01*
X826888Y760135D01*
X826800Y760180D01*
X826714Y760228D01*
X826630Y760279D01*
X826548Y760333D01*
X826467Y760391D01*
X826389Y760451D01*
X826314Y760514D01*
X826240Y760580D01*
X826170Y760649D01*
X826325Y764219D02*
X826327Y764289D01*
X826333Y764358D01*
X826343Y764427D01*
X826356Y764495D01*
X826374Y764563D01*
X826395Y764629D01*
X826420Y764694D01*
X826448Y764758D01*
X826480Y764820D01*
X826515Y764880D01*
X826554Y764938D01*
X826596Y764993D01*
X826641Y765047D01*
X826689Y765097D01*
X826739Y765145D01*
X826793Y765190D01*
X826848Y765232D01*
X826906Y765271D01*
X826966Y765306D01*
X827028Y765338D01*
X827092Y765366D01*
X827157Y765391D01*
X827223Y765412D01*
X827291Y765430D01*
X827359Y765443D01*
X827428Y765453D01*
X827497Y765459D01*
X827567Y765461D01*
X827661Y765459D01*
X827754Y765453D01*
X827847Y765444D01*
X827940Y765431D01*
X828032Y765414D01*
X828123Y765394D01*
X828214Y765369D01*
X828303Y765342D01*
X828391Y765310D01*
X828478Y765275D01*
X828564Y765237D01*
X828647Y765195D01*
X828729Y765150D01*
X828810Y765102D01*
X828888Y765050D01*
X828964Y764995D01*
X826946Y763133D02*
X826887Y763169D01*
X826831Y763209D01*
X826777Y763252D01*
X826725Y763297D01*
X826676Y763346D01*
X826630Y763397D01*
X826587Y763450D01*
X826546Y763506D01*
X826509Y763564D01*
X826474Y763624D01*
X826444Y763685D01*
X826416Y763748D01*
X826392Y763813D01*
X826372Y763879D01*
X826355Y763946D01*
X826342Y764013D01*
X826333Y764081D01*
X826327Y764150D01*
X826325Y764219D01*
X828653Y762201D02*
X828712Y762165D01*
X828768Y762125D01*
X828822Y762082D01*
X828874Y762037D01*
X828923Y761988D01*
X828969Y761937D01*
X829012Y761884D01*
X829053Y761828D01*
X829090Y761770D01*
X829125Y761710D01*
X829155Y761649D01*
X829183Y761586D01*
X829207Y761521D01*
X829227Y761455D01*
X829244Y761388D01*
X829257Y761321D01*
X829266Y761253D01*
X829272Y761184D01*
X829274Y761115D01*
X828653Y762201D02*
X826946Y763133D01*
X832349Y759873D02*
X833901Y759873D01*
X832349Y759873D02*
X832291Y759875D01*
X832232Y759880D01*
X832175Y759889D01*
X832117Y759902D01*
X832061Y759919D01*
X832006Y759938D01*
X831953Y759962D01*
X831900Y759988D01*
X831850Y760018D01*
X831802Y760051D01*
X831756Y760087D01*
X831712Y760125D01*
X831670Y760167D01*
X831632Y760211D01*
X831596Y760257D01*
X831563Y760305D01*
X831533Y760355D01*
X831507Y760408D01*
X831483Y760461D01*
X831464Y760516D01*
X831447Y760572D01*
X831434Y760630D01*
X831425Y760687D01*
X831420Y760746D01*
X831418Y760804D01*
X831418Y762357D01*
X831420Y762427D01*
X831426Y762496D01*
X831436Y762565D01*
X831449Y762633D01*
X831467Y762701D01*
X831488Y762767D01*
X831513Y762832D01*
X831541Y762896D01*
X831573Y762958D01*
X831608Y763018D01*
X831647Y763076D01*
X831689Y763131D01*
X831734Y763185D01*
X831782Y763235D01*
X831832Y763283D01*
X831886Y763328D01*
X831941Y763370D01*
X831999Y763409D01*
X832059Y763444D01*
X832121Y763476D01*
X832185Y763504D01*
X832250Y763529D01*
X832316Y763550D01*
X832384Y763568D01*
X832452Y763581D01*
X832521Y763591D01*
X832590Y763597D01*
X832660Y763599D01*
X832730Y763597D01*
X832799Y763591D01*
X832868Y763581D01*
X832936Y763568D01*
X833004Y763550D01*
X833070Y763529D01*
X833135Y763504D01*
X833199Y763476D01*
X833261Y763444D01*
X833321Y763409D01*
X833379Y763370D01*
X833434Y763328D01*
X833488Y763283D01*
X833538Y763235D01*
X833586Y763185D01*
X833631Y763131D01*
X833673Y763076D01*
X833712Y763018D01*
X833747Y762958D01*
X833779Y762896D01*
X833807Y762832D01*
X833832Y762767D01*
X833853Y762701D01*
X833871Y762633D01*
X833884Y762565D01*
X833894Y762496D01*
X833900Y762427D01*
X833902Y762357D01*
X833901Y762357D02*
X833901Y761736D01*
X831418Y761736D01*
X836466Y759873D02*
X836466Y763598D01*
X839260Y763598D01*
X839318Y763596D01*
X839377Y763591D01*
X839434Y763582D01*
X839492Y763569D01*
X839548Y763552D01*
X839603Y763533D01*
X839656Y763509D01*
X839709Y763483D01*
X839759Y763453D01*
X839807Y763420D01*
X839853Y763384D01*
X839897Y763346D01*
X839939Y763304D01*
X839977Y763260D01*
X840013Y763214D01*
X840046Y763166D01*
X840076Y763116D01*
X840102Y763063D01*
X840126Y763010D01*
X840145Y762955D01*
X840162Y762899D01*
X840175Y762841D01*
X840184Y762784D01*
X840189Y762725D01*
X840191Y762667D01*
X840192Y762667D02*
X840192Y759873D01*
X838329Y759873D02*
X838329Y763598D01*
X842290Y763598D02*
X844153Y763598D01*
X842911Y765461D02*
X842911Y760804D01*
X842913Y760746D01*
X842918Y760687D01*
X842927Y760630D01*
X842940Y760572D01*
X842957Y760516D01*
X842976Y760461D01*
X843000Y760408D01*
X843026Y760355D01*
X843056Y760305D01*
X843089Y760257D01*
X843125Y760211D01*
X843163Y760167D01*
X843205Y760125D01*
X843249Y760087D01*
X843295Y760051D01*
X843343Y760018D01*
X843394Y759988D01*
X843446Y759962D01*
X843499Y759938D01*
X843554Y759919D01*
X843610Y759902D01*
X843668Y759889D01*
X843725Y759880D01*
X843784Y759875D01*
X843842Y759873D01*
X844153Y759873D01*
X847162Y759873D02*
X848715Y759873D01*
X847162Y759873D02*
X847104Y759875D01*
X847045Y759880D01*
X846988Y759889D01*
X846930Y759902D01*
X846874Y759919D01*
X846819Y759938D01*
X846766Y759962D01*
X846713Y759988D01*
X846663Y760018D01*
X846615Y760051D01*
X846569Y760087D01*
X846525Y760125D01*
X846483Y760167D01*
X846445Y760211D01*
X846409Y760257D01*
X846376Y760305D01*
X846346Y760355D01*
X846320Y760408D01*
X846296Y760461D01*
X846277Y760516D01*
X846260Y760572D01*
X846247Y760630D01*
X846238Y760687D01*
X846233Y760746D01*
X846231Y760804D01*
X846231Y762357D01*
X846233Y762427D01*
X846239Y762496D01*
X846249Y762565D01*
X846262Y762633D01*
X846280Y762701D01*
X846301Y762767D01*
X846326Y762832D01*
X846354Y762896D01*
X846386Y762958D01*
X846421Y763018D01*
X846460Y763076D01*
X846502Y763131D01*
X846547Y763185D01*
X846595Y763235D01*
X846645Y763283D01*
X846699Y763328D01*
X846754Y763370D01*
X846812Y763409D01*
X846872Y763444D01*
X846934Y763476D01*
X846998Y763504D01*
X847063Y763529D01*
X847129Y763550D01*
X847197Y763568D01*
X847265Y763581D01*
X847334Y763591D01*
X847403Y763597D01*
X847473Y763599D01*
X847543Y763597D01*
X847612Y763591D01*
X847681Y763581D01*
X847749Y763568D01*
X847817Y763550D01*
X847883Y763529D01*
X847948Y763504D01*
X848012Y763476D01*
X848074Y763444D01*
X848134Y763409D01*
X848192Y763370D01*
X848247Y763328D01*
X848301Y763283D01*
X848351Y763235D01*
X848399Y763185D01*
X848444Y763131D01*
X848486Y763076D01*
X848525Y763018D01*
X848560Y762958D01*
X848592Y762896D01*
X848620Y762832D01*
X848645Y762767D01*
X848666Y762701D01*
X848684Y762633D01*
X848697Y762565D01*
X848707Y762496D01*
X848713Y762427D01*
X848715Y762357D01*
X848715Y761736D01*
X846231Y761736D01*
X851924Y759873D02*
X853166Y759873D01*
X851924Y759873D02*
X851866Y759875D01*
X851807Y759880D01*
X851750Y759889D01*
X851692Y759902D01*
X851636Y759919D01*
X851581Y759938D01*
X851528Y759962D01*
X851475Y759988D01*
X851425Y760018D01*
X851377Y760051D01*
X851331Y760087D01*
X851287Y760125D01*
X851245Y760167D01*
X851207Y760211D01*
X851171Y760257D01*
X851138Y760305D01*
X851108Y760355D01*
X851082Y760408D01*
X851058Y760461D01*
X851039Y760516D01*
X851022Y760572D01*
X851009Y760630D01*
X851000Y760687D01*
X850995Y760746D01*
X850993Y760804D01*
X850992Y760804D02*
X850992Y762667D01*
X850993Y762667D02*
X850995Y762725D01*
X851000Y762784D01*
X851009Y762841D01*
X851022Y762899D01*
X851039Y762955D01*
X851058Y763010D01*
X851082Y763063D01*
X851108Y763116D01*
X851138Y763166D01*
X851171Y763214D01*
X851207Y763260D01*
X851245Y763304D01*
X851287Y763346D01*
X851331Y763384D01*
X851377Y763420D01*
X851425Y763453D01*
X851475Y763483D01*
X851528Y763509D01*
X851581Y763533D01*
X851636Y763552D01*
X851692Y763569D01*
X851750Y763582D01*
X851807Y763591D01*
X851866Y763596D01*
X851924Y763598D01*
X853166Y763598D01*
X855375Y765461D02*
X855375Y759873D01*
X855375Y763598D02*
X856927Y763598D01*
X856985Y763596D01*
X857044Y763591D01*
X857101Y763582D01*
X857159Y763569D01*
X857215Y763552D01*
X857270Y763533D01*
X857323Y763509D01*
X857376Y763483D01*
X857426Y763453D01*
X857474Y763420D01*
X857520Y763384D01*
X857564Y763346D01*
X857606Y763304D01*
X857644Y763260D01*
X857680Y763214D01*
X857713Y763166D01*
X857743Y763116D01*
X857769Y763063D01*
X857793Y763010D01*
X857812Y762955D01*
X857829Y762899D01*
X857842Y762841D01*
X857851Y762784D01*
X857856Y762725D01*
X857858Y762667D01*
X857859Y762667D02*
X857859Y759873D01*
X865650Y762977D02*
X866581Y762977D01*
X866581Y759873D01*
X864719Y759873D01*
X864649Y759875D01*
X864580Y759881D01*
X864511Y759891D01*
X864443Y759904D01*
X864375Y759922D01*
X864309Y759943D01*
X864244Y759968D01*
X864180Y759996D01*
X864118Y760028D01*
X864058Y760063D01*
X864000Y760102D01*
X863945Y760144D01*
X863891Y760189D01*
X863841Y760237D01*
X863793Y760287D01*
X863748Y760341D01*
X863706Y760396D01*
X863667Y760454D01*
X863632Y760514D01*
X863600Y760576D01*
X863572Y760640D01*
X863547Y760705D01*
X863526Y760771D01*
X863508Y760839D01*
X863495Y760907D01*
X863485Y760976D01*
X863479Y761045D01*
X863477Y761115D01*
X863477Y764219D01*
X863479Y764289D01*
X863485Y764358D01*
X863495Y764427D01*
X863508Y764495D01*
X863526Y764563D01*
X863547Y764629D01*
X863572Y764694D01*
X863600Y764758D01*
X863632Y764820D01*
X863667Y764880D01*
X863706Y764938D01*
X863748Y764993D01*
X863793Y765047D01*
X863841Y765097D01*
X863891Y765145D01*
X863945Y765190D01*
X864000Y765232D01*
X864058Y765271D01*
X864118Y765306D01*
X864180Y765338D01*
X864244Y765366D01*
X864309Y765391D01*
X864375Y765412D01*
X864443Y765430D01*
X864511Y765443D01*
X864580Y765453D01*
X864649Y765459D01*
X864719Y765461D01*
X866581Y765461D01*
X872068Y761115D02*
X872066Y761045D01*
X872060Y760976D01*
X872050Y760907D01*
X872037Y760839D01*
X872019Y760771D01*
X871998Y760705D01*
X871973Y760640D01*
X871945Y760576D01*
X871913Y760514D01*
X871878Y760454D01*
X871839Y760396D01*
X871797Y760341D01*
X871752Y760287D01*
X871704Y760237D01*
X871654Y760189D01*
X871600Y760144D01*
X871545Y760102D01*
X871487Y760063D01*
X871427Y760028D01*
X871365Y759996D01*
X871301Y759968D01*
X871236Y759943D01*
X871170Y759922D01*
X871102Y759904D01*
X871034Y759891D01*
X870965Y759881D01*
X870896Y759875D01*
X870826Y759873D01*
X870727Y759875D01*
X870629Y759880D01*
X870531Y759890D01*
X870433Y759903D01*
X870336Y759919D01*
X870239Y759939D01*
X870144Y759963D01*
X870049Y759991D01*
X869955Y760022D01*
X869863Y760056D01*
X869772Y760094D01*
X869682Y760135D01*
X869594Y760180D01*
X869508Y760228D01*
X869424Y760279D01*
X869342Y760333D01*
X869261Y760391D01*
X869183Y760451D01*
X869108Y760514D01*
X869034Y760580D01*
X868964Y760649D01*
X869118Y764219D02*
X869120Y764289D01*
X869126Y764358D01*
X869136Y764427D01*
X869149Y764495D01*
X869167Y764563D01*
X869188Y764629D01*
X869213Y764694D01*
X869241Y764758D01*
X869273Y764820D01*
X869308Y764880D01*
X869347Y764938D01*
X869389Y764993D01*
X869434Y765047D01*
X869482Y765097D01*
X869532Y765145D01*
X869586Y765190D01*
X869641Y765232D01*
X869699Y765271D01*
X869759Y765306D01*
X869821Y765338D01*
X869885Y765366D01*
X869950Y765391D01*
X870016Y765412D01*
X870084Y765430D01*
X870152Y765443D01*
X870221Y765453D01*
X870290Y765459D01*
X870360Y765461D01*
X870454Y765459D01*
X870547Y765453D01*
X870640Y765444D01*
X870733Y765431D01*
X870825Y765414D01*
X870916Y765394D01*
X871007Y765369D01*
X871096Y765342D01*
X871184Y765310D01*
X871271Y765275D01*
X871357Y765237D01*
X871440Y765195D01*
X871522Y765150D01*
X871603Y765102D01*
X871681Y765050D01*
X871757Y764995D01*
X869740Y763133D02*
X869681Y763169D01*
X869625Y763209D01*
X869571Y763252D01*
X869519Y763297D01*
X869470Y763346D01*
X869424Y763397D01*
X869381Y763450D01*
X869340Y763506D01*
X869303Y763564D01*
X869268Y763624D01*
X869238Y763685D01*
X869210Y763748D01*
X869186Y763813D01*
X869166Y763879D01*
X869149Y763946D01*
X869136Y764013D01*
X869127Y764081D01*
X869121Y764150D01*
X869119Y764219D01*
X871447Y762201D02*
X871506Y762165D01*
X871562Y762125D01*
X871616Y762082D01*
X871668Y762037D01*
X871717Y761988D01*
X871763Y761937D01*
X871806Y761884D01*
X871847Y761828D01*
X871884Y761770D01*
X871919Y761710D01*
X871949Y761649D01*
X871977Y761586D01*
X872001Y761521D01*
X872021Y761455D01*
X872038Y761388D01*
X872051Y761321D01*
X872060Y761253D01*
X872066Y761184D01*
X872068Y761115D01*
X871447Y762201D02*
X869739Y763133D01*
X874267Y759873D02*
X875819Y759873D01*
X875896Y759875D01*
X875974Y759881D01*
X876050Y759890D01*
X876127Y759904D01*
X876202Y759921D01*
X876276Y759942D01*
X876350Y759967D01*
X876422Y759995D01*
X876492Y760027D01*
X876561Y760062D01*
X876628Y760101D01*
X876693Y760143D01*
X876756Y760188D01*
X876817Y760236D01*
X876875Y760287D01*
X876930Y760341D01*
X876983Y760398D01*
X877032Y760457D01*
X877079Y760519D01*
X877123Y760583D01*
X877163Y760649D01*
X877200Y760717D01*
X877234Y760787D01*
X877264Y760858D01*
X877290Y760931D01*
X877313Y761005D01*
X877332Y761080D01*
X877347Y761155D01*
X877359Y761232D01*
X877367Y761309D01*
X877371Y761386D01*
X877371Y761464D01*
X877367Y761541D01*
X877359Y761618D01*
X877347Y761695D01*
X877332Y761770D01*
X877313Y761845D01*
X877290Y761919D01*
X877264Y761992D01*
X877234Y762063D01*
X877200Y762133D01*
X877163Y762201D01*
X877123Y762267D01*
X877079Y762331D01*
X877032Y762393D01*
X876983Y762452D01*
X876930Y762509D01*
X876875Y762563D01*
X876817Y762614D01*
X876756Y762662D01*
X876693Y762707D01*
X876628Y762749D01*
X876561Y762788D01*
X876492Y762823D01*
X876422Y762855D01*
X876350Y762883D01*
X876276Y762908D01*
X876202Y762929D01*
X876127Y762946D01*
X876050Y762960D01*
X875974Y762969D01*
X875896Y762975D01*
X875819Y762977D01*
X876129Y765461D02*
X874267Y765461D01*
X876129Y765461D02*
X876199Y765459D01*
X876268Y765453D01*
X876337Y765443D01*
X876405Y765430D01*
X876473Y765412D01*
X876539Y765391D01*
X876604Y765366D01*
X876668Y765338D01*
X876730Y765306D01*
X876790Y765271D01*
X876848Y765232D01*
X876903Y765190D01*
X876957Y765145D01*
X877007Y765097D01*
X877055Y765047D01*
X877100Y764993D01*
X877142Y764938D01*
X877181Y764880D01*
X877216Y764820D01*
X877248Y764758D01*
X877276Y764694D01*
X877301Y764629D01*
X877322Y764563D01*
X877340Y764495D01*
X877353Y764427D01*
X877363Y764358D01*
X877369Y764289D01*
X877371Y764219D01*
X877369Y764149D01*
X877363Y764080D01*
X877353Y764011D01*
X877340Y763943D01*
X877322Y763875D01*
X877301Y763809D01*
X877276Y763744D01*
X877248Y763680D01*
X877216Y763618D01*
X877181Y763558D01*
X877142Y763500D01*
X877100Y763445D01*
X877055Y763391D01*
X877007Y763341D01*
X876957Y763293D01*
X876903Y763248D01*
X876848Y763206D01*
X876790Y763167D01*
X876730Y763132D01*
X876668Y763100D01*
X876604Y763072D01*
X876539Y763047D01*
X876473Y763026D01*
X876405Y763008D01*
X876337Y762995D01*
X876268Y762985D01*
X876199Y762979D01*
X876129Y762977D01*
X874888Y762977D01*
X879753Y761115D02*
X880995Y765461D01*
X879753Y761115D02*
X882858Y761115D01*
X881926Y762357D02*
X881926Y759873D01*
X885240Y761115D02*
X886481Y765461D01*
X885240Y761115D02*
X888344Y761115D01*
X887413Y762357D02*
X887413Y759873D01*
X890726Y762667D02*
X890728Y762798D01*
X890733Y762928D01*
X890743Y763058D01*
X890756Y763188D01*
X890772Y763318D01*
X890792Y763447D01*
X890816Y763575D01*
X890844Y763702D01*
X890875Y763829D01*
X890910Y763955D01*
X890948Y764080D01*
X890990Y764204D01*
X891035Y764326D01*
X891084Y764447D01*
X891136Y764567D01*
X891192Y764685D01*
X891191Y764685D02*
X891214Y764745D01*
X891240Y764805D01*
X891269Y764862D01*
X891302Y764918D01*
X891338Y764972D01*
X891376Y765024D01*
X891418Y765074D01*
X891462Y765121D01*
X891509Y765166D01*
X891559Y765208D01*
X891610Y765247D01*
X891664Y765283D01*
X891720Y765316D01*
X891777Y765346D01*
X891836Y765373D01*
X891897Y765396D01*
X891958Y765416D01*
X892021Y765432D01*
X892085Y765445D01*
X892149Y765454D01*
X892213Y765459D01*
X892278Y765461D01*
X892343Y765459D01*
X892407Y765454D01*
X892471Y765445D01*
X892535Y765432D01*
X892598Y765416D01*
X892659Y765396D01*
X892720Y765373D01*
X892779Y765346D01*
X892836Y765316D01*
X892892Y765283D01*
X892946Y765247D01*
X892997Y765208D01*
X893047Y765166D01*
X893094Y765121D01*
X893138Y765074D01*
X893180Y765024D01*
X893218Y764972D01*
X893254Y764918D01*
X893287Y764862D01*
X893316Y764805D01*
X893342Y764745D01*
X893365Y764685D01*
X893421Y764567D01*
X893473Y764447D01*
X893522Y764326D01*
X893567Y764204D01*
X893609Y764080D01*
X893647Y763955D01*
X893682Y763829D01*
X893713Y763703D01*
X893741Y763575D01*
X893765Y763447D01*
X893785Y763318D01*
X893801Y763188D01*
X893814Y763058D01*
X893824Y762928D01*
X893829Y762798D01*
X893831Y762667D01*
X890726Y762667D02*
X890728Y762536D01*
X890733Y762406D01*
X890743Y762276D01*
X890756Y762146D01*
X890772Y762016D01*
X890792Y761887D01*
X890816Y761759D01*
X890844Y761632D01*
X890875Y761505D01*
X890910Y761379D01*
X890948Y761254D01*
X890990Y761130D01*
X891035Y761008D01*
X891084Y760887D01*
X891136Y760767D01*
X891192Y760649D01*
X891191Y760649D02*
X891214Y760589D01*
X891240Y760529D01*
X891269Y760472D01*
X891302Y760416D01*
X891338Y760362D01*
X891376Y760310D01*
X891418Y760260D01*
X891462Y760213D01*
X891509Y760168D01*
X891559Y760126D01*
X891610Y760087D01*
X891664Y760051D01*
X891720Y760018D01*
X891777Y759988D01*
X891836Y759961D01*
X891897Y759938D01*
X891958Y759918D01*
X892021Y759902D01*
X892085Y759889D01*
X892149Y759880D01*
X892213Y759875D01*
X892278Y759873D01*
X893364Y760649D02*
X893420Y760767D01*
X893472Y760887D01*
X893521Y761008D01*
X893566Y761130D01*
X893608Y761254D01*
X893646Y761379D01*
X893681Y761505D01*
X893712Y761631D01*
X893740Y761759D01*
X893764Y761887D01*
X893784Y762016D01*
X893800Y762146D01*
X893813Y762276D01*
X893823Y762406D01*
X893828Y762536D01*
X893830Y762667D01*
X893365Y760649D02*
X893342Y760589D01*
X893316Y760529D01*
X893287Y760472D01*
X893254Y760416D01*
X893218Y760362D01*
X893180Y760310D01*
X893138Y760260D01*
X893094Y760213D01*
X893047Y760168D01*
X892997Y760126D01*
X892946Y760087D01*
X892892Y760051D01*
X892836Y760018D01*
X892779Y759988D01*
X892720Y759961D01*
X892659Y759938D01*
X892598Y759918D01*
X892535Y759902D01*
X892471Y759889D01*
X892407Y759880D01*
X892343Y759875D01*
X892278Y759873D01*
X891036Y761115D02*
X893520Y764219D01*
X843653Y756317D02*
X843653Y750729D01*
X843653Y756317D02*
X845205Y756317D01*
X845282Y756315D01*
X845360Y756309D01*
X845436Y756300D01*
X845513Y756286D01*
X845588Y756269D01*
X845662Y756248D01*
X845736Y756223D01*
X845808Y756195D01*
X845878Y756163D01*
X845947Y756128D01*
X846014Y756089D01*
X846079Y756047D01*
X846142Y756002D01*
X846203Y755954D01*
X846261Y755903D01*
X846316Y755849D01*
X846369Y755792D01*
X846418Y755733D01*
X846465Y755671D01*
X846509Y755607D01*
X846549Y755541D01*
X846586Y755473D01*
X846620Y755403D01*
X846650Y755332D01*
X846676Y755259D01*
X846699Y755185D01*
X846718Y755110D01*
X846733Y755035D01*
X846745Y754958D01*
X846753Y754881D01*
X846757Y754804D01*
X846757Y754726D01*
X846753Y754649D01*
X846745Y754572D01*
X846733Y754495D01*
X846718Y754420D01*
X846699Y754345D01*
X846676Y754271D01*
X846650Y754198D01*
X846620Y754127D01*
X846586Y754057D01*
X846549Y753989D01*
X846509Y753923D01*
X846465Y753859D01*
X846418Y753797D01*
X846369Y753738D01*
X846316Y753681D01*
X846261Y753627D01*
X846203Y753576D01*
X846142Y753528D01*
X846079Y753483D01*
X846014Y753441D01*
X845947Y753402D01*
X845878Y753367D01*
X845808Y753335D01*
X845736Y753307D01*
X845662Y753282D01*
X845588Y753261D01*
X845513Y753244D01*
X845436Y753230D01*
X845360Y753221D01*
X845282Y753215D01*
X845205Y753213D01*
X843653Y753213D01*
X845515Y753213D02*
X846757Y750729D01*
X849979Y750729D02*
X851531Y750729D01*
X849979Y750729D02*
X849921Y750731D01*
X849862Y750736D01*
X849805Y750745D01*
X849747Y750758D01*
X849691Y750775D01*
X849636Y750794D01*
X849583Y750818D01*
X849530Y750844D01*
X849480Y750874D01*
X849432Y750907D01*
X849386Y750943D01*
X849342Y750981D01*
X849300Y751023D01*
X849262Y751067D01*
X849226Y751113D01*
X849193Y751161D01*
X849163Y751211D01*
X849137Y751264D01*
X849113Y751317D01*
X849094Y751372D01*
X849077Y751428D01*
X849064Y751486D01*
X849055Y751543D01*
X849050Y751602D01*
X849048Y751660D01*
X849048Y753213D01*
X849047Y753213D02*
X849049Y753283D01*
X849055Y753352D01*
X849065Y753421D01*
X849078Y753489D01*
X849096Y753557D01*
X849117Y753623D01*
X849142Y753688D01*
X849170Y753752D01*
X849202Y753814D01*
X849237Y753874D01*
X849276Y753932D01*
X849318Y753987D01*
X849363Y754041D01*
X849411Y754091D01*
X849461Y754139D01*
X849515Y754184D01*
X849570Y754226D01*
X849628Y754265D01*
X849688Y754300D01*
X849750Y754332D01*
X849814Y754360D01*
X849879Y754385D01*
X849945Y754406D01*
X850013Y754424D01*
X850081Y754437D01*
X850150Y754447D01*
X850219Y754453D01*
X850289Y754455D01*
X850359Y754453D01*
X850428Y754447D01*
X850497Y754437D01*
X850565Y754424D01*
X850633Y754406D01*
X850699Y754385D01*
X850764Y754360D01*
X850828Y754332D01*
X850890Y754300D01*
X850950Y754265D01*
X851008Y754226D01*
X851063Y754184D01*
X851117Y754139D01*
X851167Y754091D01*
X851215Y754041D01*
X851260Y753987D01*
X851302Y753932D01*
X851341Y753874D01*
X851376Y753814D01*
X851408Y753752D01*
X851436Y753688D01*
X851461Y753623D01*
X851482Y753557D01*
X851500Y753489D01*
X851513Y753421D01*
X851523Y753352D01*
X851529Y753283D01*
X851531Y753213D01*
X851531Y752592D01*
X849048Y752592D01*
X853620Y754454D02*
X854861Y750729D01*
X856103Y754454D01*
X860935Y754454D02*
X862177Y750729D01*
X863418Y754454D01*
X865562Y755075D02*
X867114Y756317D01*
X867114Y750729D01*
X865562Y750729D02*
X868666Y750729D01*
X870799Y750729D02*
X870799Y751039D01*
X871110Y751039D01*
X871110Y750729D01*
X870799Y750729D01*
X873243Y753523D02*
X873245Y753654D01*
X873250Y753784D01*
X873260Y753914D01*
X873273Y754044D01*
X873289Y754174D01*
X873309Y754303D01*
X873333Y754431D01*
X873361Y754558D01*
X873392Y754685D01*
X873427Y754811D01*
X873465Y754936D01*
X873507Y755060D01*
X873552Y755182D01*
X873601Y755303D01*
X873653Y755423D01*
X873709Y755541D01*
X873708Y755541D02*
X873731Y755601D01*
X873757Y755661D01*
X873786Y755718D01*
X873819Y755774D01*
X873855Y755828D01*
X873893Y755880D01*
X873935Y755930D01*
X873979Y755977D01*
X874026Y756022D01*
X874076Y756064D01*
X874127Y756103D01*
X874181Y756139D01*
X874237Y756172D01*
X874294Y756202D01*
X874353Y756229D01*
X874414Y756252D01*
X874475Y756272D01*
X874538Y756288D01*
X874602Y756301D01*
X874666Y756310D01*
X874730Y756315D01*
X874795Y756317D01*
X874860Y756315D01*
X874924Y756310D01*
X874988Y756301D01*
X875052Y756288D01*
X875115Y756272D01*
X875176Y756252D01*
X875237Y756229D01*
X875296Y756202D01*
X875353Y756172D01*
X875409Y756139D01*
X875463Y756103D01*
X875514Y756064D01*
X875564Y756022D01*
X875611Y755977D01*
X875655Y755930D01*
X875697Y755880D01*
X875735Y755828D01*
X875771Y755774D01*
X875804Y755718D01*
X875833Y755661D01*
X875859Y755601D01*
X875882Y755541D01*
X875938Y755423D01*
X875990Y755303D01*
X876039Y755182D01*
X876084Y755060D01*
X876126Y754936D01*
X876164Y754811D01*
X876199Y754685D01*
X876230Y754559D01*
X876258Y754431D01*
X876282Y754303D01*
X876302Y754174D01*
X876318Y754044D01*
X876331Y753914D01*
X876341Y753784D01*
X876346Y753654D01*
X876348Y753523D01*
X873243Y753523D02*
X873245Y753392D01*
X873250Y753262D01*
X873260Y753132D01*
X873273Y753002D01*
X873289Y752872D01*
X873309Y752743D01*
X873333Y752615D01*
X873361Y752488D01*
X873392Y752361D01*
X873427Y752235D01*
X873465Y752110D01*
X873507Y751986D01*
X873552Y751864D01*
X873601Y751743D01*
X873653Y751623D01*
X873709Y751505D01*
X873708Y751505D02*
X873731Y751445D01*
X873757Y751385D01*
X873786Y751328D01*
X873819Y751272D01*
X873855Y751218D01*
X873893Y751166D01*
X873935Y751116D01*
X873979Y751069D01*
X874026Y751024D01*
X874076Y750982D01*
X874127Y750943D01*
X874181Y750907D01*
X874237Y750874D01*
X874294Y750844D01*
X874353Y750817D01*
X874414Y750794D01*
X874475Y750774D01*
X874538Y750758D01*
X874602Y750745D01*
X874666Y750736D01*
X874730Y750731D01*
X874795Y750729D01*
X875881Y751505D02*
X875937Y751623D01*
X875989Y751743D01*
X876038Y751864D01*
X876083Y751986D01*
X876125Y752110D01*
X876163Y752235D01*
X876198Y752361D01*
X876229Y752487D01*
X876257Y752615D01*
X876281Y752743D01*
X876301Y752872D01*
X876317Y753002D01*
X876330Y753132D01*
X876340Y753262D01*
X876345Y753392D01*
X876347Y753523D01*
X875882Y751505D02*
X875859Y751445D01*
X875833Y751385D01*
X875804Y751328D01*
X875771Y751272D01*
X875735Y751218D01*
X875697Y751166D01*
X875655Y751116D01*
X875611Y751069D01*
X875564Y751024D01*
X875514Y750982D01*
X875463Y750943D01*
X875409Y750907D01*
X875353Y750874D01*
X875296Y750844D01*
X875237Y750817D01*
X875176Y750794D01*
X875115Y750774D01*
X875052Y750758D01*
X874988Y750745D01*
X874924Y750736D01*
X874860Y750731D01*
X874795Y750729D01*
X873553Y751971D02*
X876037Y755075D01*
D11*
X767619Y502792D02*
X767619Y501183D01*
X767617Y501104D01*
X767611Y501025D01*
X767602Y500947D01*
X767588Y500869D01*
X767571Y500792D01*
X767550Y500716D01*
X767525Y500641D01*
X767497Y500568D01*
X767465Y500495D01*
X767429Y500425D01*
X767390Y500356D01*
X767348Y500290D01*
X767303Y500225D01*
X767254Y500163D01*
X767202Y500103D01*
X767148Y500046D01*
X767091Y499992D01*
X767031Y499940D01*
X766969Y499891D01*
X766904Y499846D01*
X766838Y499804D01*
X766769Y499765D01*
X766699Y499729D01*
X766626Y499697D01*
X766553Y499669D01*
X766478Y499644D01*
X766402Y499623D01*
X766325Y499606D01*
X766247Y499592D01*
X766169Y499583D01*
X766090Y499577D01*
X766011Y499575D01*
X761989Y499575D01*
X761910Y499577D01*
X761831Y499583D01*
X761753Y499592D01*
X761675Y499606D01*
X761598Y499623D01*
X761522Y499644D01*
X761447Y499669D01*
X761373Y499697D01*
X761301Y499729D01*
X761231Y499765D01*
X761162Y499804D01*
X761095Y499846D01*
X761031Y499892D01*
X760968Y499940D01*
X760908Y499992D01*
X760851Y500046D01*
X760797Y500103D01*
X760745Y500163D01*
X760697Y500225D01*
X760651Y500290D01*
X760609Y500357D01*
X760570Y500425D01*
X760535Y500496D01*
X760502Y500568D01*
X760474Y500642D01*
X760449Y500717D01*
X760428Y500793D01*
X760411Y500870D01*
X760397Y500948D01*
X760388Y501026D01*
X760382Y501105D01*
X760380Y501184D01*
X760381Y501183D02*
X760381Y502792D01*
X761989Y505598D02*
X760381Y507608D01*
X767619Y507608D01*
X767619Y505598D02*
X767619Y509619D01*
X738598Y485381D02*
X736989Y485381D01*
X736910Y485383D01*
X736831Y485389D01*
X736753Y485398D01*
X736675Y485412D01*
X736598Y485429D01*
X736522Y485450D01*
X736447Y485475D01*
X736374Y485503D01*
X736301Y485535D01*
X736231Y485571D01*
X736162Y485610D01*
X736096Y485652D01*
X736031Y485697D01*
X735969Y485746D01*
X735909Y485798D01*
X735852Y485852D01*
X735798Y485909D01*
X735746Y485969D01*
X735697Y486031D01*
X735652Y486096D01*
X735610Y486162D01*
X735571Y486231D01*
X735535Y486301D01*
X735503Y486374D01*
X735475Y486447D01*
X735450Y486522D01*
X735429Y486598D01*
X735412Y486675D01*
X735398Y486753D01*
X735389Y486831D01*
X735383Y486910D01*
X735381Y486989D01*
X735381Y491011D01*
X735383Y491090D01*
X735389Y491169D01*
X735398Y491247D01*
X735412Y491325D01*
X735429Y491402D01*
X735450Y491478D01*
X735475Y491553D01*
X735503Y491626D01*
X735535Y491699D01*
X735571Y491769D01*
X735610Y491838D01*
X735652Y491904D01*
X735697Y491969D01*
X735746Y492031D01*
X735798Y492091D01*
X735852Y492148D01*
X735909Y492202D01*
X735969Y492254D01*
X736031Y492303D01*
X736096Y492348D01*
X736162Y492390D01*
X736231Y492429D01*
X736301Y492465D01*
X736374Y492497D01*
X736447Y492525D01*
X736522Y492550D01*
X736598Y492571D01*
X736675Y492588D01*
X736753Y492602D01*
X736831Y492611D01*
X736910Y492617D01*
X736989Y492619D01*
X738598Y492619D01*
X743615Y492620D02*
X743699Y492618D01*
X743782Y492612D01*
X743865Y492603D01*
X743948Y492589D01*
X744029Y492572D01*
X744110Y492551D01*
X744190Y492526D01*
X744269Y492498D01*
X744346Y492466D01*
X744422Y492430D01*
X744496Y492391D01*
X744568Y492349D01*
X744638Y492303D01*
X744706Y492254D01*
X744771Y492202D01*
X744834Y492148D01*
X744895Y492090D01*
X744953Y492029D01*
X745007Y491966D01*
X745059Y491901D01*
X745108Y491833D01*
X745154Y491763D01*
X745196Y491691D01*
X745235Y491617D01*
X745271Y491541D01*
X745303Y491464D01*
X745331Y491385D01*
X745356Y491305D01*
X745377Y491224D01*
X745394Y491143D01*
X745408Y491060D01*
X745417Y490977D01*
X745423Y490894D01*
X745425Y490810D01*
X743615Y492619D02*
X743521Y492617D01*
X743427Y492611D01*
X743333Y492602D01*
X743239Y492588D01*
X743147Y492571D01*
X743055Y492550D01*
X742964Y492526D01*
X742874Y492498D01*
X742785Y492466D01*
X742697Y492430D01*
X742612Y492391D01*
X742527Y492349D01*
X742445Y492303D01*
X742364Y492254D01*
X742286Y492202D01*
X742210Y492146D01*
X742136Y492088D01*
X742064Y492026D01*
X741995Y491962D01*
X741929Y491895D01*
X741865Y491825D01*
X741805Y491753D01*
X741747Y491678D01*
X741692Y491601D01*
X741641Y491522D01*
X741593Y491441D01*
X741548Y491358D01*
X741506Y491274D01*
X741468Y491187D01*
X741434Y491099D01*
X741403Y491010D01*
X744822Y489402D02*
X744884Y489464D01*
X744943Y489528D01*
X744999Y489596D01*
X745052Y489665D01*
X745102Y489737D01*
X745149Y489811D01*
X745192Y489887D01*
X745232Y489965D01*
X745268Y490044D01*
X745300Y490125D01*
X745329Y490208D01*
X745355Y490292D01*
X745376Y490376D01*
X745394Y490462D01*
X745407Y490548D01*
X745417Y490635D01*
X745423Y490723D01*
X745425Y490810D01*
X744822Y489402D02*
X741404Y485381D01*
X745425Y485381D01*
D12*
X769960Y506449D03*
D13*
X775000Y503949D02*
X775000Y510000D01*
X781051Y510000D01*
X815000Y510000D02*
X815000Y503949D01*
X815000Y510000D02*
X808949Y510000D01*
X815000Y476051D02*
X815000Y470000D01*
X808949Y470000D01*
X775000Y470000D02*
X775000Y476051D01*
X775000Y470000D02*
X781051Y470000D01*
D14*
X780583Y624963D02*
X780583Y633853D01*
X780583Y624963D02*
X780581Y624863D01*
X780575Y624764D01*
X780565Y624664D01*
X780552Y624566D01*
X780534Y624467D01*
X780513Y624370D01*
X780488Y624274D01*
X780459Y624178D01*
X780426Y624084D01*
X780390Y623991D01*
X780350Y623900D01*
X780306Y623810D01*
X780259Y623722D01*
X780209Y623636D01*
X780155Y623552D01*
X780098Y623470D01*
X780038Y623391D01*
X779974Y623313D01*
X779908Y623239D01*
X779839Y623167D01*
X779767Y623098D01*
X779693Y623032D01*
X779615Y622968D01*
X779536Y622908D01*
X779454Y622851D01*
X779370Y622797D01*
X779284Y622747D01*
X779196Y622700D01*
X779106Y622656D01*
X779015Y622616D01*
X778922Y622580D01*
X778828Y622547D01*
X778732Y622518D01*
X778636Y622493D01*
X778539Y622472D01*
X778440Y622454D01*
X778342Y622441D01*
X778242Y622431D01*
X778143Y622425D01*
X778043Y622423D01*
X776773Y622423D01*
X786563Y622423D02*
X786563Y633853D01*
X789738Y633853D01*
X789849Y633851D01*
X789959Y633845D01*
X790070Y633836D01*
X790180Y633822D01*
X790289Y633805D01*
X790398Y633784D01*
X790506Y633759D01*
X790613Y633730D01*
X790719Y633698D01*
X790824Y633662D01*
X790927Y633622D01*
X791029Y633579D01*
X791130Y633532D01*
X791229Y633481D01*
X791326Y633428D01*
X791420Y633371D01*
X791513Y633310D01*
X791604Y633247D01*
X791693Y633180D01*
X791779Y633110D01*
X791862Y633037D01*
X791944Y632962D01*
X792022Y632884D01*
X792097Y632802D01*
X792170Y632719D01*
X792240Y632633D01*
X792307Y632544D01*
X792370Y632453D01*
X792431Y632360D01*
X792488Y632265D01*
X792541Y632169D01*
X792592Y632070D01*
X792639Y631969D01*
X792682Y631867D01*
X792722Y631764D01*
X792758Y631659D01*
X792790Y631553D01*
X792819Y631446D01*
X792844Y631338D01*
X792865Y631229D01*
X792882Y631120D01*
X792896Y631010D01*
X792905Y630899D01*
X792911Y630789D01*
X792913Y630678D01*
X792911Y630567D01*
X792905Y630457D01*
X792896Y630346D01*
X792882Y630236D01*
X792865Y630127D01*
X792844Y630018D01*
X792819Y629910D01*
X792790Y629803D01*
X792758Y629697D01*
X792722Y629592D01*
X792682Y629489D01*
X792639Y629387D01*
X792592Y629286D01*
X792541Y629187D01*
X792488Y629091D01*
X792431Y628996D01*
X792370Y628903D01*
X792307Y628812D01*
X792240Y628723D01*
X792170Y628637D01*
X792097Y628554D01*
X792022Y628472D01*
X791944Y628394D01*
X791862Y628319D01*
X791779Y628246D01*
X791693Y628176D01*
X791604Y628109D01*
X791513Y628046D01*
X791420Y627985D01*
X791326Y627928D01*
X791229Y627875D01*
X791130Y627824D01*
X791029Y627777D01*
X790927Y627734D01*
X790824Y627694D01*
X790719Y627658D01*
X790613Y627626D01*
X790506Y627597D01*
X790398Y627572D01*
X790289Y627551D01*
X790180Y627534D01*
X790070Y627520D01*
X789959Y627511D01*
X789849Y627505D01*
X789738Y627503D01*
X786563Y627503D01*
X797422Y631313D02*
X800597Y633853D01*
X800597Y622423D01*
X797422Y622423D02*
X803772Y622423D01*
D11*
X668269Y494031D02*
X661031Y494031D01*
X668269Y494031D02*
X668269Y497248D01*
X662639Y500015D02*
X661031Y502026D01*
X668269Y502026D01*
X668269Y500015D02*
X668269Y504037D01*
X739381Y520149D02*
X746619Y520149D01*
X739381Y520149D02*
X739381Y522159D01*
X739383Y522248D01*
X739389Y522337D01*
X739399Y522425D01*
X739412Y522513D01*
X739430Y522600D01*
X739451Y522687D01*
X739477Y522772D01*
X739506Y522856D01*
X739538Y522939D01*
X739575Y523020D01*
X739615Y523100D01*
X739658Y523177D01*
X739705Y523253D01*
X739755Y523327D01*
X739808Y523398D01*
X739864Y523467D01*
X739924Y523533D01*
X739986Y523597D01*
X740051Y523657D01*
X740118Y523715D01*
X740188Y523770D01*
X740261Y523822D01*
X740336Y523870D01*
X740412Y523915D01*
X740491Y523957D01*
X740571Y523995D01*
X740653Y524029D01*
X740737Y524060D01*
X740822Y524087D01*
X740907Y524111D01*
X740994Y524130D01*
X741082Y524146D01*
X741170Y524158D01*
X741259Y524166D01*
X741348Y524170D01*
X741436Y524170D01*
X741525Y524166D01*
X741614Y524158D01*
X741702Y524146D01*
X741790Y524130D01*
X741877Y524111D01*
X741962Y524087D01*
X742047Y524060D01*
X742131Y524029D01*
X742213Y523995D01*
X742293Y523957D01*
X742372Y523915D01*
X742448Y523870D01*
X742523Y523822D01*
X742596Y523770D01*
X742666Y523715D01*
X742733Y523657D01*
X742798Y523597D01*
X742860Y523533D01*
X742920Y523467D01*
X742976Y523398D01*
X743029Y523327D01*
X743079Y523253D01*
X743126Y523177D01*
X743169Y523100D01*
X743209Y523020D01*
X743246Y522939D01*
X743278Y522856D01*
X743307Y522772D01*
X743333Y522687D01*
X743354Y522600D01*
X743372Y522513D01*
X743385Y522425D01*
X743395Y522337D01*
X743401Y522248D01*
X743403Y522159D01*
X743402Y522159D02*
X743402Y520149D01*
X743402Y522561D02*
X746619Y524170D01*
X741191Y531320D02*
X741107Y531318D01*
X741024Y531312D01*
X740941Y531303D01*
X740858Y531289D01*
X740777Y531272D01*
X740696Y531251D01*
X740616Y531226D01*
X740537Y531198D01*
X740460Y531166D01*
X740384Y531130D01*
X740310Y531091D01*
X740238Y531049D01*
X740168Y531003D01*
X740100Y530954D01*
X740035Y530902D01*
X739972Y530848D01*
X739911Y530790D01*
X739853Y530729D01*
X739799Y530666D01*
X739747Y530601D01*
X739698Y530533D01*
X739652Y530463D01*
X739610Y530391D01*
X739571Y530317D01*
X739535Y530241D01*
X739503Y530164D01*
X739475Y530085D01*
X739450Y530005D01*
X739429Y529924D01*
X739412Y529843D01*
X739398Y529760D01*
X739389Y529677D01*
X739383Y529594D01*
X739381Y529510D01*
X739383Y529416D01*
X739389Y529322D01*
X739398Y529228D01*
X739412Y529134D01*
X739429Y529042D01*
X739450Y528950D01*
X739474Y528859D01*
X739502Y528769D01*
X739534Y528680D01*
X739570Y528592D01*
X739609Y528507D01*
X739651Y528422D01*
X739697Y528340D01*
X739746Y528259D01*
X739798Y528181D01*
X739854Y528105D01*
X739912Y528031D01*
X739974Y527959D01*
X740038Y527890D01*
X740105Y527824D01*
X740175Y527760D01*
X740247Y527700D01*
X740322Y527642D01*
X740399Y527587D01*
X740478Y527536D01*
X740559Y527488D01*
X740642Y527443D01*
X740726Y527401D01*
X740813Y527363D01*
X740901Y527329D01*
X740990Y527298D01*
X742599Y530716D02*
X742537Y530778D01*
X742473Y530837D01*
X742406Y530893D01*
X742336Y530946D01*
X742264Y530996D01*
X742190Y531043D01*
X742114Y531086D01*
X742036Y531126D01*
X741957Y531162D01*
X741876Y531194D01*
X741793Y531223D01*
X741709Y531249D01*
X741625Y531270D01*
X741539Y531288D01*
X741453Y531301D01*
X741366Y531311D01*
X741278Y531317D01*
X741191Y531319D01*
X742598Y530716D02*
X746619Y527298D01*
X746619Y531319D01*
X729031Y453969D02*
X729031Y446731D01*
X729031Y453969D02*
X731042Y453969D01*
X731131Y453967D01*
X731220Y453961D01*
X731308Y453951D01*
X731396Y453938D01*
X731483Y453920D01*
X731570Y453899D01*
X731655Y453873D01*
X731739Y453844D01*
X731822Y453812D01*
X731903Y453775D01*
X731983Y453735D01*
X732060Y453692D01*
X732136Y453645D01*
X732210Y453595D01*
X732281Y453542D01*
X732350Y453486D01*
X732416Y453426D01*
X732480Y453364D01*
X732540Y453299D01*
X732598Y453232D01*
X732653Y453162D01*
X732705Y453089D01*
X732753Y453014D01*
X732798Y452938D01*
X732840Y452859D01*
X732878Y452779D01*
X732912Y452697D01*
X732943Y452613D01*
X732970Y452528D01*
X732994Y452443D01*
X733013Y452356D01*
X733029Y452268D01*
X733041Y452180D01*
X733049Y452091D01*
X733053Y452002D01*
X733053Y451914D01*
X733049Y451825D01*
X733041Y451736D01*
X733029Y451648D01*
X733013Y451560D01*
X732994Y451473D01*
X732970Y451388D01*
X732943Y451303D01*
X732912Y451219D01*
X732878Y451137D01*
X732840Y451057D01*
X732798Y450978D01*
X732753Y450902D01*
X732705Y450827D01*
X732653Y450754D01*
X732598Y450684D01*
X732540Y450617D01*
X732480Y450552D01*
X732416Y450490D01*
X732350Y450430D01*
X732281Y450374D01*
X732210Y450321D01*
X732136Y450271D01*
X732060Y450224D01*
X731983Y450181D01*
X731903Y450141D01*
X731822Y450104D01*
X731739Y450072D01*
X731655Y450043D01*
X731570Y450017D01*
X731483Y449996D01*
X731396Y449978D01*
X731308Y449965D01*
X731220Y449955D01*
X731131Y449949D01*
X731042Y449947D01*
X731042Y449948D02*
X729031Y449948D01*
X731444Y449948D02*
X733052Y446731D01*
X736180Y446731D02*
X738191Y446731D01*
X738280Y446733D01*
X738369Y446739D01*
X738457Y446749D01*
X738545Y446762D01*
X738632Y446780D01*
X738719Y446801D01*
X738804Y446827D01*
X738888Y446856D01*
X738971Y446888D01*
X739052Y446925D01*
X739132Y446965D01*
X739209Y447008D01*
X739285Y447055D01*
X739359Y447105D01*
X739430Y447158D01*
X739499Y447214D01*
X739565Y447274D01*
X739629Y447336D01*
X739689Y447401D01*
X739747Y447468D01*
X739802Y447538D01*
X739854Y447611D01*
X739902Y447686D01*
X739947Y447762D01*
X739989Y447841D01*
X740027Y447921D01*
X740061Y448003D01*
X740092Y448087D01*
X740119Y448172D01*
X740143Y448257D01*
X740162Y448344D01*
X740178Y448432D01*
X740190Y448520D01*
X740198Y448609D01*
X740202Y448698D01*
X740202Y448786D01*
X740198Y448875D01*
X740190Y448964D01*
X740178Y449052D01*
X740162Y449140D01*
X740143Y449227D01*
X740119Y449312D01*
X740092Y449397D01*
X740061Y449481D01*
X740027Y449563D01*
X739989Y449643D01*
X739947Y449722D01*
X739902Y449798D01*
X739854Y449873D01*
X739802Y449946D01*
X739747Y450016D01*
X739689Y450083D01*
X739629Y450148D01*
X739565Y450210D01*
X739499Y450270D01*
X739430Y450326D01*
X739359Y450379D01*
X739285Y450429D01*
X739209Y450476D01*
X739132Y450519D01*
X739052Y450559D01*
X738971Y450596D01*
X738888Y450628D01*
X738804Y450657D01*
X738719Y450683D01*
X738632Y450704D01*
X738545Y450722D01*
X738457Y450735D01*
X738369Y450745D01*
X738280Y450751D01*
X738191Y450753D01*
X738593Y453969D02*
X736180Y453969D01*
X738593Y453969D02*
X738672Y453967D01*
X738751Y453961D01*
X738829Y453952D01*
X738907Y453938D01*
X738984Y453921D01*
X739060Y453900D01*
X739135Y453875D01*
X739208Y453847D01*
X739281Y453815D01*
X739351Y453779D01*
X739420Y453740D01*
X739486Y453698D01*
X739551Y453653D01*
X739613Y453604D01*
X739673Y453552D01*
X739730Y453498D01*
X739784Y453441D01*
X739836Y453381D01*
X739885Y453319D01*
X739930Y453254D01*
X739972Y453188D01*
X740011Y453119D01*
X740047Y453049D01*
X740079Y452976D01*
X740107Y452903D01*
X740132Y452828D01*
X740153Y452752D01*
X740170Y452675D01*
X740184Y452597D01*
X740193Y452519D01*
X740199Y452440D01*
X740201Y452361D01*
X740199Y452282D01*
X740193Y452203D01*
X740184Y452125D01*
X740170Y452047D01*
X740153Y451970D01*
X740132Y451894D01*
X740107Y451819D01*
X740079Y451746D01*
X740047Y451673D01*
X740011Y451603D01*
X739972Y451534D01*
X739930Y451468D01*
X739885Y451403D01*
X739836Y451341D01*
X739784Y451281D01*
X739730Y451224D01*
X739673Y451170D01*
X739613Y451118D01*
X739551Y451069D01*
X739486Y451024D01*
X739420Y450982D01*
X739351Y450943D01*
X739281Y450907D01*
X739208Y450875D01*
X739135Y450847D01*
X739060Y450822D01*
X738984Y450801D01*
X738907Y450784D01*
X738829Y450770D01*
X738751Y450761D01*
X738672Y450755D01*
X738593Y450753D01*
X738593Y450752D02*
X736984Y450752D01*
D14*
X664300Y537800D02*
X611300Y537800D01*
X664300Y537800D02*
X664300Y457800D01*
X611300Y457800D01*
X611300Y537800D01*
D11*
X613681Y543981D02*
X618506Y551219D01*
X613681Y551219D02*
X618506Y543981D01*
X621283Y549611D02*
X623294Y551219D01*
X623294Y543981D01*
X625304Y543981D02*
X621283Y543981D01*
D15*
X955500Y570000D02*
X955500Y596500D01*
X955500Y570000D02*
X977000Y570000D01*
X984500Y577500D01*
X1022500Y577500D01*
X1022500Y569000D01*
X1034250Y569000D01*
X1034250Y531000D01*
X1022500Y531000D01*
X1022500Y522500D01*
X984500Y522500D01*
X977000Y530000D01*
X955500Y530000D01*
X955500Y503500D01*
X941000Y511500D02*
X941000Y588500D01*
X941000Y503500D02*
X955500Y503500D01*
X955500Y596500D02*
X941000Y596500D01*
D11*
X927996Y602381D02*
X932821Y609619D01*
X927996Y609619D02*
X932821Y602381D01*
X939620Y607810D02*
X939618Y607894D01*
X939612Y607977D01*
X939603Y608060D01*
X939589Y608143D01*
X939572Y608224D01*
X939551Y608305D01*
X939526Y608385D01*
X939498Y608464D01*
X939466Y608541D01*
X939430Y608617D01*
X939391Y608691D01*
X939349Y608763D01*
X939303Y608833D01*
X939254Y608901D01*
X939202Y608966D01*
X939148Y609029D01*
X939090Y609090D01*
X939029Y609148D01*
X938966Y609202D01*
X938901Y609254D01*
X938833Y609303D01*
X938763Y609349D01*
X938691Y609391D01*
X938617Y609430D01*
X938541Y609466D01*
X938464Y609498D01*
X938385Y609526D01*
X938305Y609551D01*
X938224Y609572D01*
X938143Y609589D01*
X938060Y609603D01*
X937977Y609612D01*
X937894Y609618D01*
X937810Y609620D01*
X937810Y609619D02*
X937716Y609617D01*
X937622Y609611D01*
X937528Y609602D01*
X937434Y609588D01*
X937342Y609571D01*
X937250Y609550D01*
X937159Y609526D01*
X937069Y609498D01*
X936980Y609466D01*
X936892Y609430D01*
X936807Y609391D01*
X936722Y609349D01*
X936640Y609303D01*
X936559Y609254D01*
X936481Y609202D01*
X936405Y609146D01*
X936331Y609088D01*
X936259Y609026D01*
X936190Y608962D01*
X936124Y608895D01*
X936060Y608825D01*
X936000Y608753D01*
X935942Y608678D01*
X935887Y608601D01*
X935836Y608522D01*
X935788Y608441D01*
X935743Y608358D01*
X935701Y608274D01*
X935663Y608187D01*
X935629Y608099D01*
X935598Y608010D01*
X939016Y606402D02*
X939078Y606464D01*
X939137Y606528D01*
X939193Y606596D01*
X939246Y606665D01*
X939296Y606737D01*
X939343Y606811D01*
X939386Y606887D01*
X939426Y606965D01*
X939462Y607044D01*
X939494Y607125D01*
X939523Y607208D01*
X939549Y607292D01*
X939570Y607376D01*
X939588Y607462D01*
X939601Y607548D01*
X939611Y607635D01*
X939617Y607723D01*
X939619Y607810D01*
X939016Y606402D02*
X935598Y602381D01*
X939619Y602381D01*
X802248Y601731D02*
X800639Y601731D01*
X800560Y601733D01*
X800481Y601739D01*
X800403Y601748D01*
X800325Y601762D01*
X800248Y601779D01*
X800172Y601800D01*
X800097Y601825D01*
X800024Y601853D01*
X799951Y601885D01*
X799881Y601921D01*
X799812Y601960D01*
X799746Y602002D01*
X799681Y602047D01*
X799619Y602096D01*
X799559Y602148D01*
X799502Y602202D01*
X799448Y602259D01*
X799396Y602319D01*
X799347Y602381D01*
X799302Y602446D01*
X799260Y602512D01*
X799221Y602581D01*
X799185Y602651D01*
X799153Y602724D01*
X799125Y602797D01*
X799100Y602872D01*
X799079Y602948D01*
X799062Y603025D01*
X799048Y603103D01*
X799039Y603181D01*
X799033Y603260D01*
X799031Y603339D01*
X799031Y607361D01*
X799033Y607440D01*
X799039Y607519D01*
X799048Y607597D01*
X799062Y607675D01*
X799079Y607752D01*
X799100Y607828D01*
X799125Y607903D01*
X799153Y607976D01*
X799185Y608049D01*
X799221Y608119D01*
X799260Y608188D01*
X799302Y608254D01*
X799347Y608319D01*
X799396Y608381D01*
X799448Y608441D01*
X799502Y608498D01*
X799559Y608552D01*
X799619Y608604D01*
X799681Y608653D01*
X799746Y608698D01*
X799812Y608740D01*
X799881Y608779D01*
X799951Y608815D01*
X800024Y608847D01*
X800097Y608875D01*
X800172Y608900D01*
X800248Y608921D01*
X800325Y608938D01*
X800403Y608952D01*
X800481Y608961D01*
X800560Y608967D01*
X800639Y608969D01*
X802248Y608969D01*
X805054Y601731D02*
X807064Y601731D01*
X807153Y601733D01*
X807242Y601739D01*
X807330Y601749D01*
X807418Y601762D01*
X807505Y601780D01*
X807592Y601801D01*
X807677Y601827D01*
X807761Y601856D01*
X807844Y601888D01*
X807925Y601925D01*
X808005Y601965D01*
X808082Y602008D01*
X808158Y602055D01*
X808232Y602105D01*
X808303Y602158D01*
X808372Y602214D01*
X808438Y602274D01*
X808502Y602336D01*
X808562Y602401D01*
X808620Y602468D01*
X808675Y602538D01*
X808727Y602611D01*
X808775Y602686D01*
X808820Y602762D01*
X808862Y602841D01*
X808900Y602921D01*
X808934Y603003D01*
X808965Y603087D01*
X808992Y603172D01*
X809016Y603257D01*
X809035Y603344D01*
X809051Y603432D01*
X809063Y603520D01*
X809071Y603609D01*
X809075Y603698D01*
X809075Y603786D01*
X809071Y603875D01*
X809063Y603964D01*
X809051Y604052D01*
X809035Y604140D01*
X809016Y604227D01*
X808992Y604312D01*
X808965Y604397D01*
X808934Y604481D01*
X808900Y604563D01*
X808862Y604643D01*
X808820Y604722D01*
X808775Y604798D01*
X808727Y604873D01*
X808675Y604946D01*
X808620Y605016D01*
X808562Y605083D01*
X808502Y605148D01*
X808438Y605210D01*
X808372Y605270D01*
X808303Y605326D01*
X808232Y605379D01*
X808158Y605429D01*
X808082Y605476D01*
X808005Y605519D01*
X807925Y605559D01*
X807844Y605596D01*
X807761Y605628D01*
X807677Y605657D01*
X807592Y605683D01*
X807505Y605704D01*
X807418Y605722D01*
X807330Y605735D01*
X807242Y605745D01*
X807153Y605751D01*
X807064Y605753D01*
X807467Y608969D02*
X805054Y608969D01*
X807467Y608969D02*
X807546Y608967D01*
X807625Y608961D01*
X807703Y608952D01*
X807781Y608938D01*
X807858Y608921D01*
X807934Y608900D01*
X808009Y608875D01*
X808082Y608847D01*
X808155Y608815D01*
X808225Y608779D01*
X808294Y608740D01*
X808360Y608698D01*
X808425Y608653D01*
X808487Y608604D01*
X808547Y608552D01*
X808604Y608498D01*
X808658Y608441D01*
X808710Y608381D01*
X808759Y608319D01*
X808804Y608254D01*
X808846Y608188D01*
X808885Y608119D01*
X808921Y608049D01*
X808953Y607976D01*
X808981Y607903D01*
X809006Y607828D01*
X809027Y607752D01*
X809044Y607675D01*
X809058Y607597D01*
X809067Y607519D01*
X809073Y607440D01*
X809075Y607361D01*
X809073Y607282D01*
X809067Y607203D01*
X809058Y607125D01*
X809044Y607047D01*
X809027Y606970D01*
X809006Y606894D01*
X808981Y606819D01*
X808953Y606746D01*
X808921Y606673D01*
X808885Y606603D01*
X808846Y606534D01*
X808804Y606468D01*
X808759Y606403D01*
X808710Y606341D01*
X808658Y606281D01*
X808604Y606224D01*
X808547Y606170D01*
X808487Y606118D01*
X808425Y606069D01*
X808360Y606024D01*
X808294Y605982D01*
X808225Y605943D01*
X808155Y605907D01*
X808082Y605875D01*
X808009Y605847D01*
X807934Y605822D01*
X807858Y605801D01*
X807781Y605784D01*
X807703Y605770D01*
X807625Y605761D01*
X807546Y605755D01*
X807467Y605753D01*
X807467Y605752D02*
X805858Y605752D01*
X798598Y565381D02*
X796989Y565381D01*
X796910Y565383D01*
X796831Y565389D01*
X796753Y565398D01*
X796675Y565412D01*
X796598Y565429D01*
X796522Y565450D01*
X796447Y565475D01*
X796374Y565503D01*
X796301Y565535D01*
X796231Y565571D01*
X796162Y565610D01*
X796096Y565652D01*
X796031Y565697D01*
X795969Y565746D01*
X795909Y565798D01*
X795852Y565852D01*
X795798Y565909D01*
X795746Y565969D01*
X795697Y566031D01*
X795652Y566096D01*
X795610Y566162D01*
X795571Y566231D01*
X795535Y566301D01*
X795503Y566374D01*
X795475Y566447D01*
X795450Y566522D01*
X795429Y566598D01*
X795412Y566675D01*
X795398Y566753D01*
X795389Y566831D01*
X795383Y566910D01*
X795381Y566989D01*
X795381Y571011D01*
X795383Y571090D01*
X795389Y571169D01*
X795398Y571247D01*
X795412Y571325D01*
X795429Y571402D01*
X795450Y571478D01*
X795475Y571553D01*
X795503Y571626D01*
X795535Y571699D01*
X795571Y571769D01*
X795610Y571838D01*
X795652Y571904D01*
X795697Y571969D01*
X795746Y572031D01*
X795798Y572091D01*
X795852Y572148D01*
X795909Y572202D01*
X795969Y572254D01*
X796031Y572303D01*
X796096Y572348D01*
X796162Y572390D01*
X796231Y572429D01*
X796301Y572465D01*
X796374Y572497D01*
X796447Y572525D01*
X796522Y572550D01*
X796598Y572571D01*
X796675Y572588D01*
X796753Y572602D01*
X796831Y572611D01*
X796910Y572617D01*
X796989Y572619D01*
X798598Y572619D01*
X803012Y572619D02*
X801404Y566989D01*
X805425Y566989D01*
X804219Y568598D02*
X804219Y565381D01*
X703969Y489799D02*
X696731Y489799D01*
X696731Y491809D01*
X696733Y491898D01*
X696739Y491987D01*
X696749Y492075D01*
X696762Y492163D01*
X696780Y492250D01*
X696801Y492337D01*
X696827Y492422D01*
X696856Y492506D01*
X696888Y492589D01*
X696925Y492670D01*
X696965Y492750D01*
X697008Y492827D01*
X697055Y492903D01*
X697105Y492977D01*
X697158Y493048D01*
X697214Y493117D01*
X697274Y493183D01*
X697336Y493247D01*
X697401Y493307D01*
X697468Y493365D01*
X697538Y493420D01*
X697611Y493472D01*
X697686Y493520D01*
X697762Y493565D01*
X697841Y493607D01*
X697921Y493645D01*
X698003Y493679D01*
X698087Y493710D01*
X698172Y493737D01*
X698257Y493761D01*
X698344Y493780D01*
X698432Y493796D01*
X698520Y493808D01*
X698609Y493816D01*
X698698Y493820D01*
X698786Y493820D01*
X698875Y493816D01*
X698964Y493808D01*
X699052Y493796D01*
X699140Y493780D01*
X699227Y493761D01*
X699312Y493737D01*
X699397Y493710D01*
X699481Y493679D01*
X699563Y493645D01*
X699643Y493607D01*
X699722Y493565D01*
X699798Y493520D01*
X699873Y493472D01*
X699946Y493420D01*
X700016Y493365D01*
X700083Y493307D01*
X700148Y493247D01*
X700210Y493183D01*
X700270Y493117D01*
X700326Y493048D01*
X700379Y492977D01*
X700429Y492903D01*
X700476Y492827D01*
X700519Y492750D01*
X700559Y492670D01*
X700596Y492589D01*
X700628Y492506D01*
X700657Y492422D01*
X700683Y492337D01*
X700704Y492250D01*
X700722Y492163D01*
X700735Y492075D01*
X700745Y491987D01*
X700751Y491898D01*
X700753Y491809D01*
X700752Y491809D02*
X700752Y489799D01*
X700752Y492211D02*
X703969Y493820D01*
X702361Y496948D02*
X696731Y498556D01*
X702361Y496948D02*
X702361Y500969D01*
X700752Y499763D02*
X703969Y499763D01*
D15*
X955500Y476500D02*
X955500Y450000D01*
X977000Y450000D01*
X984500Y457500D01*
X1022500Y457500D01*
X1022500Y449000D01*
X1034250Y449000D01*
X1034250Y411000D01*
X1022500Y411000D01*
X1022500Y402500D01*
X984500Y402500D01*
X977000Y410000D01*
X955500Y410000D01*
X955500Y383500D01*
X941000Y391500D02*
X941000Y468500D01*
X941000Y383500D02*
X955500Y383500D01*
X955500Y476500D02*
X941000Y476500D01*
D11*
X937821Y379619D02*
X932996Y372381D01*
X937821Y372381D02*
X932996Y379619D01*
X940598Y372381D02*
X942608Y372381D01*
X942697Y372383D01*
X942786Y372389D01*
X942874Y372399D01*
X942962Y372412D01*
X943049Y372430D01*
X943136Y372451D01*
X943221Y372477D01*
X943305Y372506D01*
X943388Y372538D01*
X943469Y372575D01*
X943549Y372615D01*
X943626Y372658D01*
X943702Y372705D01*
X943776Y372755D01*
X943847Y372808D01*
X943916Y372864D01*
X943982Y372924D01*
X944046Y372986D01*
X944106Y373051D01*
X944164Y373118D01*
X944219Y373188D01*
X944271Y373261D01*
X944319Y373336D01*
X944364Y373412D01*
X944406Y373491D01*
X944444Y373571D01*
X944478Y373653D01*
X944509Y373737D01*
X944536Y373822D01*
X944560Y373907D01*
X944579Y373994D01*
X944595Y374082D01*
X944607Y374170D01*
X944615Y374259D01*
X944619Y374348D01*
X944619Y374436D01*
X944615Y374525D01*
X944607Y374614D01*
X944595Y374702D01*
X944579Y374790D01*
X944560Y374877D01*
X944536Y374962D01*
X944509Y375047D01*
X944478Y375131D01*
X944444Y375213D01*
X944406Y375293D01*
X944364Y375372D01*
X944319Y375448D01*
X944271Y375523D01*
X944219Y375596D01*
X944164Y375666D01*
X944106Y375733D01*
X944046Y375798D01*
X943982Y375860D01*
X943916Y375920D01*
X943847Y375976D01*
X943776Y376029D01*
X943702Y376079D01*
X943626Y376126D01*
X943549Y376169D01*
X943469Y376209D01*
X943388Y376246D01*
X943305Y376278D01*
X943221Y376307D01*
X943136Y376333D01*
X943049Y376354D01*
X942962Y376372D01*
X942874Y376385D01*
X942786Y376395D01*
X942697Y376401D01*
X942608Y376403D01*
X943011Y379619D02*
X940598Y379619D01*
X943011Y379619D02*
X943090Y379617D01*
X943169Y379611D01*
X943247Y379602D01*
X943325Y379588D01*
X943402Y379571D01*
X943478Y379550D01*
X943553Y379525D01*
X943626Y379497D01*
X943699Y379465D01*
X943769Y379429D01*
X943838Y379390D01*
X943904Y379348D01*
X943969Y379303D01*
X944031Y379254D01*
X944091Y379202D01*
X944148Y379148D01*
X944202Y379091D01*
X944254Y379031D01*
X944303Y378969D01*
X944348Y378904D01*
X944390Y378838D01*
X944429Y378769D01*
X944465Y378699D01*
X944497Y378626D01*
X944525Y378553D01*
X944550Y378478D01*
X944571Y378402D01*
X944588Y378325D01*
X944602Y378247D01*
X944611Y378169D01*
X944617Y378090D01*
X944619Y378011D01*
X944617Y377932D01*
X944611Y377853D01*
X944602Y377775D01*
X944588Y377697D01*
X944571Y377620D01*
X944550Y377544D01*
X944525Y377469D01*
X944497Y377396D01*
X944465Y377323D01*
X944429Y377253D01*
X944390Y377184D01*
X944348Y377118D01*
X944303Y377053D01*
X944254Y376991D01*
X944202Y376931D01*
X944148Y376874D01*
X944091Y376820D01*
X944031Y376768D01*
X943969Y376719D01*
X943904Y376674D01*
X943838Y376632D01*
X943769Y376593D01*
X943699Y376557D01*
X943626Y376525D01*
X943553Y376497D01*
X943478Y376472D01*
X943402Y376451D01*
X943325Y376434D01*
X943247Y376420D01*
X943169Y376411D01*
X943090Y376405D01*
X943011Y376403D01*
X943011Y376402D02*
X941402Y376402D01*
X837248Y501731D02*
X835639Y501731D01*
X835560Y501733D01*
X835481Y501739D01*
X835403Y501748D01*
X835325Y501762D01*
X835248Y501779D01*
X835172Y501800D01*
X835097Y501825D01*
X835024Y501853D01*
X834951Y501885D01*
X834881Y501921D01*
X834812Y501960D01*
X834746Y502002D01*
X834681Y502047D01*
X834619Y502096D01*
X834559Y502148D01*
X834502Y502202D01*
X834448Y502259D01*
X834396Y502319D01*
X834347Y502381D01*
X834302Y502446D01*
X834260Y502512D01*
X834221Y502581D01*
X834185Y502651D01*
X834153Y502724D01*
X834125Y502797D01*
X834100Y502872D01*
X834079Y502948D01*
X834062Y503025D01*
X834048Y503103D01*
X834039Y503181D01*
X834033Y503260D01*
X834031Y503339D01*
X834031Y507361D01*
X834033Y507440D01*
X834039Y507519D01*
X834048Y507597D01*
X834062Y507675D01*
X834079Y507752D01*
X834100Y507828D01*
X834125Y507903D01*
X834153Y507976D01*
X834185Y508049D01*
X834221Y508119D01*
X834260Y508188D01*
X834302Y508254D01*
X834347Y508319D01*
X834396Y508381D01*
X834448Y508441D01*
X834502Y508498D01*
X834559Y508552D01*
X834619Y508604D01*
X834681Y508653D01*
X834746Y508698D01*
X834812Y508740D01*
X834881Y508779D01*
X834951Y508815D01*
X835024Y508847D01*
X835097Y508875D01*
X835172Y508900D01*
X835248Y508921D01*
X835325Y508938D01*
X835403Y508952D01*
X835481Y508961D01*
X835560Y508967D01*
X835639Y508969D01*
X837248Y508969D01*
X840054Y501731D02*
X842467Y501731D01*
X842546Y501733D01*
X842625Y501739D01*
X842703Y501748D01*
X842781Y501762D01*
X842858Y501779D01*
X842934Y501800D01*
X843009Y501825D01*
X843082Y501853D01*
X843155Y501885D01*
X843225Y501921D01*
X843294Y501960D01*
X843360Y502002D01*
X843425Y502047D01*
X843487Y502096D01*
X843547Y502148D01*
X843604Y502202D01*
X843658Y502259D01*
X843710Y502319D01*
X843759Y502381D01*
X843804Y502446D01*
X843846Y502512D01*
X843885Y502581D01*
X843921Y502651D01*
X843953Y502724D01*
X843981Y502797D01*
X844006Y502872D01*
X844027Y502948D01*
X844044Y503025D01*
X844058Y503103D01*
X844067Y503181D01*
X844073Y503260D01*
X844075Y503339D01*
X844075Y504144D01*
X844073Y504223D01*
X844067Y504302D01*
X844058Y504380D01*
X844044Y504458D01*
X844027Y504535D01*
X844006Y504611D01*
X843981Y504686D01*
X843953Y504759D01*
X843921Y504832D01*
X843885Y504902D01*
X843846Y504971D01*
X843804Y505037D01*
X843759Y505102D01*
X843710Y505164D01*
X843658Y505224D01*
X843604Y505281D01*
X843547Y505335D01*
X843487Y505387D01*
X843425Y505436D01*
X843360Y505481D01*
X843294Y505523D01*
X843225Y505562D01*
X843155Y505598D01*
X843082Y505630D01*
X843009Y505658D01*
X842934Y505683D01*
X842858Y505704D01*
X842781Y505721D01*
X842703Y505735D01*
X842625Y505744D01*
X842546Y505750D01*
X842467Y505752D01*
X840054Y505752D01*
X840054Y508969D01*
X844075Y508969D01*
X839142Y471031D02*
X837533Y471031D01*
X837454Y471033D01*
X837375Y471039D01*
X837297Y471048D01*
X837219Y471062D01*
X837142Y471079D01*
X837066Y471100D01*
X836991Y471125D01*
X836918Y471153D01*
X836845Y471185D01*
X836775Y471221D01*
X836706Y471260D01*
X836640Y471302D01*
X836575Y471347D01*
X836513Y471396D01*
X836453Y471448D01*
X836396Y471502D01*
X836342Y471559D01*
X836290Y471619D01*
X836241Y471681D01*
X836196Y471746D01*
X836154Y471812D01*
X836115Y471881D01*
X836079Y471951D01*
X836047Y472024D01*
X836019Y472097D01*
X835994Y472172D01*
X835973Y472248D01*
X835956Y472325D01*
X835942Y472403D01*
X835933Y472481D01*
X835927Y472560D01*
X835925Y472639D01*
X835925Y476661D01*
X835926Y476661D02*
X835928Y476740D01*
X835934Y476819D01*
X835943Y476897D01*
X835957Y476975D01*
X835974Y477052D01*
X835995Y477128D01*
X836020Y477203D01*
X836048Y477276D01*
X836080Y477349D01*
X836116Y477419D01*
X836155Y477488D01*
X836197Y477554D01*
X836242Y477619D01*
X836291Y477681D01*
X836343Y477741D01*
X836397Y477798D01*
X836454Y477852D01*
X836514Y477904D01*
X836576Y477953D01*
X836641Y477998D01*
X836707Y478040D01*
X836776Y478079D01*
X836846Y478115D01*
X836919Y478147D01*
X836992Y478175D01*
X837067Y478200D01*
X837143Y478221D01*
X837220Y478238D01*
X837298Y478252D01*
X837376Y478261D01*
X837455Y478267D01*
X837534Y478269D01*
X837533Y478269D02*
X839142Y478269D01*
X841948Y475052D02*
X844361Y475052D01*
X844440Y475050D01*
X844519Y475044D01*
X844597Y475035D01*
X844675Y475021D01*
X844752Y475004D01*
X844828Y474983D01*
X844903Y474958D01*
X844976Y474930D01*
X845049Y474898D01*
X845119Y474862D01*
X845188Y474823D01*
X845254Y474781D01*
X845319Y474736D01*
X845381Y474687D01*
X845441Y474635D01*
X845498Y474581D01*
X845552Y474524D01*
X845604Y474464D01*
X845653Y474402D01*
X845698Y474337D01*
X845740Y474271D01*
X845779Y474202D01*
X845815Y474132D01*
X845847Y474059D01*
X845875Y473986D01*
X845900Y473911D01*
X845921Y473835D01*
X845938Y473758D01*
X845952Y473680D01*
X845961Y473602D01*
X845967Y473523D01*
X845969Y473444D01*
X845969Y473042D01*
X845967Y472953D01*
X845961Y472864D01*
X845951Y472776D01*
X845938Y472688D01*
X845920Y472601D01*
X845899Y472514D01*
X845873Y472429D01*
X845844Y472345D01*
X845812Y472262D01*
X845775Y472181D01*
X845735Y472101D01*
X845692Y472024D01*
X845645Y471948D01*
X845595Y471874D01*
X845542Y471803D01*
X845486Y471734D01*
X845426Y471668D01*
X845364Y471604D01*
X845299Y471544D01*
X845232Y471486D01*
X845162Y471431D01*
X845089Y471379D01*
X845014Y471331D01*
X844938Y471286D01*
X844859Y471244D01*
X844779Y471206D01*
X844697Y471172D01*
X844613Y471141D01*
X844528Y471114D01*
X844443Y471090D01*
X844356Y471071D01*
X844268Y471055D01*
X844180Y471043D01*
X844091Y471035D01*
X844002Y471031D01*
X843914Y471031D01*
X843825Y471035D01*
X843736Y471043D01*
X843648Y471055D01*
X843560Y471071D01*
X843473Y471090D01*
X843388Y471114D01*
X843303Y471141D01*
X843219Y471172D01*
X843137Y471206D01*
X843057Y471244D01*
X842978Y471286D01*
X842902Y471331D01*
X842827Y471379D01*
X842754Y471431D01*
X842684Y471486D01*
X842617Y471544D01*
X842552Y471604D01*
X842490Y471668D01*
X842430Y471734D01*
X842374Y471803D01*
X842321Y471874D01*
X842271Y471948D01*
X842224Y472024D01*
X842181Y472101D01*
X842141Y472181D01*
X842104Y472262D01*
X842072Y472345D01*
X842043Y472429D01*
X842017Y472514D01*
X841996Y472601D01*
X841978Y472688D01*
X841965Y472776D01*
X841955Y472864D01*
X841949Y472953D01*
X841947Y473042D01*
X841948Y473042D02*
X841948Y475052D01*
X841950Y475164D01*
X841956Y475276D01*
X841966Y475388D01*
X841979Y475500D01*
X841997Y475611D01*
X842018Y475721D01*
X842044Y475830D01*
X842073Y475939D01*
X842105Y476046D01*
X842142Y476152D01*
X842182Y476257D01*
X842226Y476360D01*
X842274Y476462D01*
X842325Y476562D01*
X842379Y476660D01*
X842437Y476757D01*
X842498Y476851D01*
X842562Y476943D01*
X842630Y477033D01*
X842701Y477120D01*
X842774Y477205D01*
X842851Y477287D01*
X842930Y477366D01*
X843012Y477443D01*
X843097Y477516D01*
X843184Y477587D01*
X843274Y477655D01*
X843366Y477719D01*
X843460Y477780D01*
X843556Y477838D01*
X843655Y477892D01*
X843755Y477943D01*
X843857Y477991D01*
X843960Y478035D01*
X844065Y478075D01*
X844171Y478112D01*
X844278Y478144D01*
X844387Y478173D01*
X844496Y478199D01*
X844606Y478220D01*
X844717Y478238D01*
X844829Y478251D01*
X844941Y478261D01*
X845053Y478267D01*
X845165Y478269D01*
X777792Y437381D02*
X776183Y437381D01*
X776104Y437383D01*
X776025Y437389D01*
X775947Y437398D01*
X775869Y437412D01*
X775792Y437429D01*
X775716Y437450D01*
X775641Y437475D01*
X775568Y437503D01*
X775495Y437535D01*
X775425Y437571D01*
X775356Y437610D01*
X775290Y437652D01*
X775225Y437697D01*
X775163Y437746D01*
X775103Y437798D01*
X775046Y437852D01*
X774992Y437909D01*
X774940Y437969D01*
X774891Y438031D01*
X774846Y438096D01*
X774804Y438162D01*
X774765Y438231D01*
X774729Y438301D01*
X774697Y438374D01*
X774669Y438447D01*
X774644Y438522D01*
X774623Y438598D01*
X774606Y438675D01*
X774592Y438753D01*
X774583Y438831D01*
X774577Y438910D01*
X774575Y438989D01*
X774575Y443011D01*
X774576Y443011D02*
X774578Y443090D01*
X774584Y443169D01*
X774593Y443247D01*
X774607Y443325D01*
X774624Y443402D01*
X774645Y443478D01*
X774670Y443553D01*
X774698Y443626D01*
X774730Y443699D01*
X774766Y443769D01*
X774805Y443838D01*
X774847Y443904D01*
X774892Y443969D01*
X774941Y444031D01*
X774993Y444091D01*
X775047Y444148D01*
X775104Y444202D01*
X775164Y444254D01*
X775226Y444303D01*
X775291Y444348D01*
X775357Y444390D01*
X775426Y444429D01*
X775496Y444465D01*
X775569Y444497D01*
X775642Y444525D01*
X775717Y444550D01*
X775793Y444571D01*
X775870Y444588D01*
X775948Y444602D01*
X776026Y444611D01*
X776105Y444617D01*
X776184Y444619D01*
X776183Y444619D02*
X777792Y444619D01*
X780598Y444619D02*
X780598Y443815D01*
X780598Y444619D02*
X784619Y444619D01*
X782608Y437381D01*
D16*
X795000Y550160D02*
X797540Y552700D01*
X795000Y550160D02*
X792460Y552700D01*
X795000Y529840D02*
X797540Y527300D01*
X795000Y529840D02*
X792460Y527300D01*
X772140Y527300D01*
X769600Y529840D01*
X817860Y527300D02*
X820400Y529840D01*
X817860Y527300D02*
X797540Y527300D01*
X820400Y529840D02*
X820400Y550160D01*
X817860Y552700D01*
X797540Y552700D01*
X792460Y552700D02*
X772140Y552700D01*
X769600Y550160D01*
X769600Y529840D01*
D11*
X772394Y558499D02*
X772394Y564129D01*
X772393Y558499D02*
X772391Y558420D01*
X772385Y558341D01*
X772376Y558263D01*
X772362Y558185D01*
X772345Y558108D01*
X772324Y558032D01*
X772299Y557957D01*
X772271Y557884D01*
X772239Y557811D01*
X772203Y557741D01*
X772164Y557672D01*
X772122Y557606D01*
X772077Y557541D01*
X772028Y557479D01*
X771976Y557419D01*
X771922Y557362D01*
X771865Y557308D01*
X771805Y557256D01*
X771743Y557207D01*
X771678Y557162D01*
X771612Y557120D01*
X771543Y557081D01*
X771473Y557045D01*
X771400Y557013D01*
X771327Y556985D01*
X771252Y556960D01*
X771176Y556939D01*
X771099Y556922D01*
X771021Y556908D01*
X770943Y556899D01*
X770864Y556893D01*
X770785Y556891D01*
X769981Y556891D01*
X776137Y556891D02*
X776137Y564129D01*
X778148Y564129D01*
X778237Y564127D01*
X778326Y564121D01*
X778414Y564111D01*
X778502Y564098D01*
X778589Y564080D01*
X778676Y564059D01*
X778761Y564033D01*
X778845Y564004D01*
X778928Y563972D01*
X779009Y563935D01*
X779089Y563895D01*
X779166Y563852D01*
X779242Y563805D01*
X779316Y563755D01*
X779387Y563702D01*
X779456Y563646D01*
X779522Y563586D01*
X779586Y563524D01*
X779646Y563459D01*
X779704Y563392D01*
X779759Y563322D01*
X779811Y563249D01*
X779859Y563174D01*
X779904Y563098D01*
X779946Y563019D01*
X779984Y562939D01*
X780018Y562857D01*
X780049Y562773D01*
X780076Y562688D01*
X780100Y562603D01*
X780119Y562516D01*
X780135Y562428D01*
X780147Y562340D01*
X780155Y562251D01*
X780159Y562162D01*
X780159Y562074D01*
X780155Y561985D01*
X780147Y561896D01*
X780135Y561808D01*
X780119Y561720D01*
X780100Y561633D01*
X780076Y561548D01*
X780049Y561463D01*
X780018Y561379D01*
X779984Y561297D01*
X779946Y561217D01*
X779904Y561138D01*
X779859Y561062D01*
X779811Y560987D01*
X779759Y560914D01*
X779704Y560844D01*
X779646Y560777D01*
X779586Y560712D01*
X779522Y560650D01*
X779456Y560590D01*
X779387Y560534D01*
X779316Y560481D01*
X779242Y560431D01*
X779166Y560384D01*
X779089Y560341D01*
X779009Y560301D01*
X778928Y560264D01*
X778845Y560232D01*
X778761Y560203D01*
X778676Y560177D01*
X778589Y560156D01*
X778502Y560138D01*
X778414Y560125D01*
X778326Y560115D01*
X778237Y560109D01*
X778148Y560107D01*
X778148Y560108D02*
X776137Y560108D01*
X782980Y556891D02*
X784991Y556891D01*
X785080Y556893D01*
X785169Y556899D01*
X785257Y556909D01*
X785345Y556922D01*
X785432Y556940D01*
X785519Y556961D01*
X785604Y556987D01*
X785688Y557016D01*
X785771Y557048D01*
X785852Y557085D01*
X785932Y557125D01*
X786009Y557168D01*
X786085Y557215D01*
X786159Y557265D01*
X786230Y557318D01*
X786299Y557374D01*
X786365Y557434D01*
X786429Y557496D01*
X786489Y557561D01*
X786547Y557628D01*
X786602Y557698D01*
X786654Y557771D01*
X786702Y557846D01*
X786747Y557922D01*
X786789Y558001D01*
X786827Y558081D01*
X786861Y558163D01*
X786892Y558247D01*
X786919Y558332D01*
X786943Y558417D01*
X786962Y558504D01*
X786978Y558592D01*
X786990Y558680D01*
X786998Y558769D01*
X787002Y558858D01*
X787002Y558946D01*
X786998Y559035D01*
X786990Y559124D01*
X786978Y559212D01*
X786962Y559300D01*
X786943Y559387D01*
X786919Y559472D01*
X786892Y559557D01*
X786861Y559641D01*
X786827Y559723D01*
X786789Y559803D01*
X786747Y559882D01*
X786702Y559958D01*
X786654Y560033D01*
X786602Y560106D01*
X786547Y560176D01*
X786489Y560243D01*
X786429Y560308D01*
X786365Y560370D01*
X786299Y560430D01*
X786230Y560486D01*
X786159Y560539D01*
X786085Y560589D01*
X786009Y560636D01*
X785932Y560679D01*
X785852Y560719D01*
X785771Y560756D01*
X785688Y560788D01*
X785604Y560817D01*
X785519Y560843D01*
X785432Y560864D01*
X785345Y560882D01*
X785257Y560895D01*
X785169Y560905D01*
X785080Y560911D01*
X784991Y560913D01*
X785393Y564129D02*
X782980Y564129D01*
X785393Y564129D02*
X785472Y564127D01*
X785551Y564121D01*
X785629Y564112D01*
X785707Y564098D01*
X785784Y564081D01*
X785860Y564060D01*
X785935Y564035D01*
X786008Y564007D01*
X786081Y563975D01*
X786151Y563939D01*
X786220Y563900D01*
X786286Y563858D01*
X786351Y563813D01*
X786413Y563764D01*
X786473Y563712D01*
X786530Y563658D01*
X786584Y563601D01*
X786636Y563541D01*
X786685Y563479D01*
X786730Y563414D01*
X786772Y563348D01*
X786811Y563279D01*
X786847Y563209D01*
X786879Y563136D01*
X786907Y563063D01*
X786932Y562988D01*
X786953Y562912D01*
X786970Y562835D01*
X786984Y562757D01*
X786993Y562679D01*
X786999Y562600D01*
X787001Y562521D01*
X786999Y562442D01*
X786993Y562363D01*
X786984Y562285D01*
X786970Y562207D01*
X786953Y562130D01*
X786932Y562054D01*
X786907Y561979D01*
X786879Y561906D01*
X786847Y561833D01*
X786811Y561763D01*
X786772Y561694D01*
X786730Y561628D01*
X786685Y561563D01*
X786636Y561501D01*
X786584Y561441D01*
X786530Y561384D01*
X786473Y561330D01*
X786413Y561278D01*
X786351Y561229D01*
X786286Y561184D01*
X786220Y561142D01*
X786151Y561103D01*
X786081Y561067D01*
X786008Y561035D01*
X785935Y561007D01*
X785860Y560982D01*
X785784Y560961D01*
X785707Y560944D01*
X785629Y560930D01*
X785551Y560921D01*
X785472Y560915D01*
X785393Y560913D01*
X785393Y560912D02*
X783785Y560912D01*
D17*
X663000Y618000D03*
D14*
X659500Y593500D02*
X652500Y593500D01*
X637500Y593500D02*
X630500Y593500D01*
X630500Y601500D01*
X659500Y601500D02*
X659500Y593500D01*
D11*
X655495Y574490D02*
X655495Y571211D01*
X655495Y574490D02*
X655497Y574579D01*
X655503Y574669D01*
X655513Y574757D01*
X655526Y574846D01*
X655544Y574933D01*
X655565Y575020D01*
X655590Y575106D01*
X655619Y575191D01*
X655651Y575274D01*
X655687Y575356D01*
X655727Y575436D01*
X655770Y575515D01*
X655816Y575591D01*
X655866Y575665D01*
X655918Y575737D01*
X655974Y575807D01*
X656033Y575874D01*
X656095Y575939D01*
X656160Y576001D01*
X656227Y576060D01*
X656297Y576116D01*
X656369Y576168D01*
X656443Y576218D01*
X656520Y576264D01*
X656598Y576307D01*
X656678Y576347D01*
X656760Y576383D01*
X656843Y576415D01*
X656928Y576444D01*
X657014Y576469D01*
X657101Y576490D01*
X657188Y576508D01*
X657277Y576521D01*
X657365Y576531D01*
X657455Y576537D01*
X657544Y576539D01*
X657633Y576537D01*
X657723Y576531D01*
X657811Y576521D01*
X657900Y576508D01*
X657987Y576490D01*
X658074Y576469D01*
X658160Y576444D01*
X658245Y576415D01*
X658328Y576383D01*
X658410Y576347D01*
X658490Y576307D01*
X658569Y576264D01*
X658645Y576218D01*
X658719Y576168D01*
X658791Y576116D01*
X658861Y576060D01*
X658928Y576001D01*
X658993Y575939D01*
X659055Y575874D01*
X659114Y575807D01*
X659170Y575737D01*
X659222Y575665D01*
X659272Y575591D01*
X659318Y575515D01*
X659361Y575436D01*
X659401Y575356D01*
X659437Y575274D01*
X659469Y575191D01*
X659498Y575106D01*
X659523Y575020D01*
X659544Y574933D01*
X659562Y574846D01*
X659575Y574757D01*
X659585Y574669D01*
X659591Y574579D01*
X659593Y574490D01*
X659593Y571211D01*
X659591Y571122D01*
X659585Y571032D01*
X659575Y570944D01*
X659562Y570855D01*
X659544Y570768D01*
X659523Y570681D01*
X659498Y570595D01*
X659469Y570510D01*
X659437Y570427D01*
X659401Y570345D01*
X659361Y570265D01*
X659318Y570187D01*
X659272Y570110D01*
X659222Y570036D01*
X659170Y569964D01*
X659114Y569894D01*
X659055Y569827D01*
X658993Y569762D01*
X658928Y569700D01*
X658861Y569641D01*
X658791Y569585D01*
X658719Y569533D01*
X658645Y569483D01*
X658569Y569437D01*
X658490Y569394D01*
X658410Y569354D01*
X658328Y569318D01*
X658245Y569286D01*
X658160Y569257D01*
X658074Y569232D01*
X657987Y569211D01*
X657900Y569193D01*
X657811Y569180D01*
X657723Y569170D01*
X657633Y569164D01*
X657544Y569162D01*
X657455Y569164D01*
X657365Y569170D01*
X657277Y569180D01*
X657188Y569193D01*
X657101Y569211D01*
X657014Y569232D01*
X656928Y569257D01*
X656843Y569286D01*
X656760Y569318D01*
X656678Y569354D01*
X656598Y569394D01*
X656520Y569437D01*
X656443Y569483D01*
X656369Y569533D01*
X656297Y569585D01*
X656227Y569641D01*
X656160Y569700D01*
X656095Y569762D01*
X656033Y569827D01*
X655974Y569894D01*
X655918Y569964D01*
X655866Y570036D01*
X655816Y570110D01*
X655770Y570187D01*
X655727Y570265D01*
X655687Y570345D01*
X655651Y570427D01*
X655619Y570510D01*
X655590Y570595D01*
X655565Y570681D01*
X655544Y570768D01*
X655526Y570855D01*
X655513Y570944D01*
X655503Y571032D01*
X655497Y571122D01*
X655495Y571211D01*
X658773Y570802D02*
X660412Y569162D01*
X662600Y574900D02*
X664649Y576539D01*
X664649Y569162D01*
X662600Y569162D02*
X666698Y569162D01*
D18*
X709158Y601858D02*
X709158Y613542D01*
X712404Y613542D01*
X712517Y613540D01*
X712630Y613534D01*
X712743Y613524D01*
X712856Y613510D01*
X712968Y613493D01*
X713079Y613471D01*
X713189Y613446D01*
X713299Y613416D01*
X713407Y613383D01*
X713514Y613346D01*
X713620Y613306D01*
X713724Y613261D01*
X713827Y613213D01*
X713928Y613162D01*
X714027Y613107D01*
X714124Y613049D01*
X714219Y612987D01*
X714312Y612922D01*
X714402Y612854D01*
X714490Y612783D01*
X714576Y612708D01*
X714659Y612631D01*
X714739Y612551D01*
X714816Y612468D01*
X714891Y612382D01*
X714962Y612294D01*
X715030Y612204D01*
X715095Y612111D01*
X715157Y612016D01*
X715215Y611919D01*
X715270Y611820D01*
X715321Y611719D01*
X715369Y611616D01*
X715414Y611512D01*
X715454Y611406D01*
X715491Y611299D01*
X715524Y611191D01*
X715554Y611081D01*
X715579Y610971D01*
X715601Y610860D01*
X715618Y610748D01*
X715632Y610635D01*
X715642Y610522D01*
X715648Y610409D01*
X715650Y610296D01*
X715648Y610183D01*
X715642Y610070D01*
X715632Y609957D01*
X715618Y609844D01*
X715601Y609732D01*
X715579Y609621D01*
X715554Y609511D01*
X715524Y609401D01*
X715491Y609293D01*
X715454Y609186D01*
X715414Y609080D01*
X715369Y608976D01*
X715321Y608873D01*
X715270Y608772D01*
X715215Y608673D01*
X715157Y608576D01*
X715095Y608481D01*
X715030Y608388D01*
X714962Y608298D01*
X714891Y608210D01*
X714816Y608124D01*
X714739Y608041D01*
X714659Y607961D01*
X714576Y607884D01*
X714490Y607809D01*
X714402Y607738D01*
X714312Y607670D01*
X714219Y607605D01*
X714124Y607543D01*
X714027Y607485D01*
X713928Y607430D01*
X713827Y607379D01*
X713724Y607331D01*
X713620Y607286D01*
X713514Y607246D01*
X713407Y607209D01*
X713299Y607176D01*
X713189Y607146D01*
X713079Y607121D01*
X712968Y607099D01*
X712856Y607082D01*
X712743Y607068D01*
X712630Y607058D01*
X712517Y607052D01*
X712404Y607050D01*
X712404Y607051D02*
X709158Y607051D01*
X713053Y607051D02*
X715649Y601858D01*
X720514Y610946D02*
X723760Y613542D01*
X723760Y601858D01*
X727005Y601858D02*
X720514Y601858D01*
D11*
X713269Y459031D02*
X706031Y459031D01*
X706031Y461042D01*
X706033Y461131D01*
X706039Y461220D01*
X706049Y461308D01*
X706062Y461396D01*
X706080Y461483D01*
X706101Y461570D01*
X706127Y461655D01*
X706156Y461739D01*
X706188Y461822D01*
X706225Y461903D01*
X706265Y461983D01*
X706308Y462060D01*
X706355Y462136D01*
X706405Y462210D01*
X706458Y462281D01*
X706514Y462350D01*
X706574Y462416D01*
X706636Y462480D01*
X706701Y462540D01*
X706768Y462598D01*
X706838Y462653D01*
X706911Y462705D01*
X706986Y462753D01*
X707062Y462798D01*
X707141Y462840D01*
X707221Y462878D01*
X707303Y462912D01*
X707387Y462943D01*
X707472Y462970D01*
X707557Y462994D01*
X707644Y463013D01*
X707732Y463029D01*
X707820Y463041D01*
X707909Y463049D01*
X707998Y463053D01*
X708086Y463053D01*
X708175Y463049D01*
X708264Y463041D01*
X708352Y463029D01*
X708440Y463013D01*
X708527Y462994D01*
X708612Y462970D01*
X708697Y462943D01*
X708781Y462912D01*
X708863Y462878D01*
X708943Y462840D01*
X709022Y462798D01*
X709098Y462753D01*
X709173Y462705D01*
X709246Y462653D01*
X709316Y462598D01*
X709383Y462540D01*
X709448Y462480D01*
X709510Y462416D01*
X709570Y462350D01*
X709626Y462281D01*
X709679Y462210D01*
X709729Y462136D01*
X709776Y462060D01*
X709819Y461983D01*
X709859Y461903D01*
X709896Y461822D01*
X709928Y461739D01*
X709957Y461655D01*
X709983Y461570D01*
X710004Y461483D01*
X710022Y461396D01*
X710035Y461308D01*
X710045Y461220D01*
X710051Y461131D01*
X710053Y461042D01*
X710052Y461042D02*
X710052Y459031D01*
X710052Y461444D02*
X713269Y463052D01*
X713269Y466180D02*
X713269Y468593D01*
X713267Y468672D01*
X713261Y468751D01*
X713252Y468829D01*
X713238Y468907D01*
X713221Y468984D01*
X713200Y469060D01*
X713175Y469135D01*
X713147Y469208D01*
X713115Y469281D01*
X713079Y469351D01*
X713040Y469420D01*
X712998Y469486D01*
X712953Y469551D01*
X712904Y469613D01*
X712852Y469673D01*
X712798Y469730D01*
X712741Y469784D01*
X712681Y469836D01*
X712619Y469885D01*
X712554Y469930D01*
X712488Y469972D01*
X712419Y470011D01*
X712349Y470047D01*
X712276Y470079D01*
X712203Y470107D01*
X712128Y470132D01*
X712052Y470153D01*
X711975Y470170D01*
X711897Y470184D01*
X711819Y470193D01*
X711740Y470199D01*
X711661Y470201D01*
X710856Y470201D01*
X710777Y470199D01*
X710698Y470193D01*
X710620Y470184D01*
X710542Y470170D01*
X710465Y470153D01*
X710389Y470132D01*
X710314Y470107D01*
X710241Y470079D01*
X710168Y470047D01*
X710098Y470011D01*
X710029Y469972D01*
X709963Y469930D01*
X709898Y469885D01*
X709836Y469836D01*
X709776Y469784D01*
X709719Y469730D01*
X709665Y469673D01*
X709613Y469613D01*
X709564Y469551D01*
X709519Y469486D01*
X709477Y469420D01*
X709438Y469351D01*
X709402Y469281D01*
X709370Y469208D01*
X709342Y469135D01*
X709317Y469060D01*
X709296Y468984D01*
X709279Y468907D01*
X709265Y468829D01*
X709256Y468751D01*
X709250Y468672D01*
X709248Y468593D01*
X709248Y466180D01*
X706031Y466180D01*
X706031Y470201D01*
D16*
X663540Y399600D02*
X661000Y397060D01*
X658460Y399600D01*
X661000Y376740D02*
X663540Y374200D01*
X661000Y376740D02*
X658460Y374200D01*
X638140Y374200D01*
X635600Y376740D01*
X683860Y374200D02*
X686400Y376740D01*
X683860Y374200D02*
X663540Y374200D01*
X686400Y376740D02*
X686400Y397060D01*
X683860Y399600D01*
X663540Y399600D01*
X658460Y399600D02*
X638140Y399600D01*
X635600Y397060D01*
X635600Y376740D01*
D11*
X638394Y405399D02*
X638394Y411029D01*
X638393Y405399D02*
X638391Y405320D01*
X638385Y405241D01*
X638376Y405163D01*
X638362Y405085D01*
X638345Y405008D01*
X638324Y404932D01*
X638299Y404857D01*
X638271Y404784D01*
X638239Y404711D01*
X638203Y404641D01*
X638164Y404572D01*
X638122Y404506D01*
X638077Y404441D01*
X638028Y404379D01*
X637976Y404319D01*
X637922Y404262D01*
X637865Y404208D01*
X637805Y404156D01*
X637743Y404107D01*
X637678Y404062D01*
X637612Y404020D01*
X637543Y403981D01*
X637473Y403945D01*
X637400Y403913D01*
X637327Y403885D01*
X637252Y403860D01*
X637176Y403839D01*
X637099Y403822D01*
X637021Y403808D01*
X636943Y403799D01*
X636864Y403793D01*
X636785Y403791D01*
X635981Y403791D01*
X642137Y403791D02*
X642137Y411029D01*
X644148Y411029D01*
X644237Y411027D01*
X644326Y411021D01*
X644414Y411011D01*
X644502Y410998D01*
X644589Y410980D01*
X644676Y410959D01*
X644761Y410933D01*
X644845Y410904D01*
X644928Y410872D01*
X645009Y410835D01*
X645089Y410795D01*
X645166Y410752D01*
X645242Y410705D01*
X645316Y410655D01*
X645387Y410602D01*
X645456Y410546D01*
X645522Y410486D01*
X645586Y410424D01*
X645646Y410359D01*
X645704Y410292D01*
X645759Y410222D01*
X645811Y410149D01*
X645859Y410074D01*
X645904Y409998D01*
X645946Y409919D01*
X645984Y409839D01*
X646018Y409757D01*
X646049Y409673D01*
X646076Y409588D01*
X646100Y409503D01*
X646119Y409416D01*
X646135Y409328D01*
X646147Y409240D01*
X646155Y409151D01*
X646159Y409062D01*
X646159Y408974D01*
X646155Y408885D01*
X646147Y408796D01*
X646135Y408708D01*
X646119Y408620D01*
X646100Y408533D01*
X646076Y408448D01*
X646049Y408363D01*
X646018Y408279D01*
X645984Y408197D01*
X645946Y408117D01*
X645904Y408038D01*
X645859Y407962D01*
X645811Y407887D01*
X645759Y407814D01*
X645704Y407744D01*
X645646Y407677D01*
X645586Y407612D01*
X645522Y407550D01*
X645456Y407490D01*
X645387Y407434D01*
X645316Y407381D01*
X645242Y407331D01*
X645166Y407284D01*
X645089Y407241D01*
X645009Y407201D01*
X644928Y407164D01*
X644845Y407132D01*
X644761Y407103D01*
X644676Y407077D01*
X644589Y407056D01*
X644502Y407038D01*
X644414Y407025D01*
X644326Y407015D01*
X644237Y407009D01*
X644148Y407007D01*
X644148Y407008D02*
X642137Y407008D01*
X648980Y405399D02*
X650589Y411029D01*
X648980Y405399D02*
X653002Y405399D01*
X651795Y403791D02*
X651795Y407008D01*
X657431Y356469D02*
X657431Y349231D01*
X657431Y356469D02*
X659442Y356469D01*
X659531Y356467D01*
X659620Y356461D01*
X659708Y356451D01*
X659796Y356438D01*
X659883Y356420D01*
X659970Y356399D01*
X660055Y356373D01*
X660139Y356344D01*
X660222Y356312D01*
X660303Y356275D01*
X660383Y356235D01*
X660460Y356192D01*
X660536Y356145D01*
X660610Y356095D01*
X660681Y356042D01*
X660750Y355986D01*
X660816Y355926D01*
X660880Y355864D01*
X660940Y355799D01*
X660998Y355732D01*
X661053Y355662D01*
X661105Y355589D01*
X661153Y355514D01*
X661198Y355438D01*
X661240Y355359D01*
X661278Y355279D01*
X661312Y355197D01*
X661343Y355113D01*
X661370Y355028D01*
X661394Y354943D01*
X661413Y354856D01*
X661429Y354768D01*
X661441Y354680D01*
X661449Y354591D01*
X661453Y354502D01*
X661453Y354414D01*
X661449Y354325D01*
X661441Y354236D01*
X661429Y354148D01*
X661413Y354060D01*
X661394Y353973D01*
X661370Y353888D01*
X661343Y353803D01*
X661312Y353719D01*
X661278Y353637D01*
X661240Y353557D01*
X661198Y353478D01*
X661153Y353402D01*
X661105Y353327D01*
X661053Y353254D01*
X660998Y353184D01*
X660940Y353117D01*
X660880Y353052D01*
X660816Y352990D01*
X660750Y352930D01*
X660681Y352874D01*
X660610Y352821D01*
X660536Y352771D01*
X660460Y352724D01*
X660383Y352681D01*
X660303Y352641D01*
X660222Y352604D01*
X660139Y352572D01*
X660055Y352543D01*
X659970Y352517D01*
X659883Y352496D01*
X659796Y352478D01*
X659708Y352465D01*
X659620Y352455D01*
X659531Y352449D01*
X659442Y352447D01*
X659442Y352448D02*
X657431Y352448D01*
X659844Y352448D02*
X661452Y349231D01*
X664580Y353252D02*
X666993Y353252D01*
X667072Y353250D01*
X667151Y353244D01*
X667229Y353235D01*
X667307Y353221D01*
X667384Y353204D01*
X667460Y353183D01*
X667535Y353158D01*
X667608Y353130D01*
X667681Y353098D01*
X667751Y353062D01*
X667820Y353023D01*
X667886Y352981D01*
X667951Y352936D01*
X668013Y352887D01*
X668073Y352835D01*
X668130Y352781D01*
X668184Y352724D01*
X668236Y352664D01*
X668285Y352602D01*
X668330Y352537D01*
X668372Y352471D01*
X668411Y352402D01*
X668447Y352332D01*
X668479Y352259D01*
X668507Y352186D01*
X668532Y352111D01*
X668553Y352035D01*
X668570Y351958D01*
X668584Y351880D01*
X668593Y351802D01*
X668599Y351723D01*
X668601Y351644D01*
X668601Y351242D01*
X668602Y351242D02*
X668600Y351153D01*
X668594Y351064D01*
X668584Y350976D01*
X668571Y350888D01*
X668553Y350801D01*
X668532Y350714D01*
X668506Y350629D01*
X668477Y350545D01*
X668445Y350462D01*
X668408Y350381D01*
X668368Y350301D01*
X668325Y350224D01*
X668278Y350148D01*
X668228Y350074D01*
X668175Y350003D01*
X668119Y349934D01*
X668059Y349868D01*
X667997Y349804D01*
X667932Y349744D01*
X667865Y349686D01*
X667795Y349631D01*
X667722Y349579D01*
X667647Y349531D01*
X667571Y349486D01*
X667492Y349444D01*
X667412Y349406D01*
X667330Y349372D01*
X667246Y349341D01*
X667161Y349314D01*
X667076Y349290D01*
X666989Y349271D01*
X666901Y349255D01*
X666813Y349243D01*
X666724Y349235D01*
X666635Y349231D01*
X666547Y349231D01*
X666458Y349235D01*
X666369Y349243D01*
X666281Y349255D01*
X666193Y349271D01*
X666106Y349290D01*
X666021Y349314D01*
X665936Y349341D01*
X665852Y349372D01*
X665770Y349406D01*
X665690Y349444D01*
X665611Y349486D01*
X665535Y349531D01*
X665460Y349579D01*
X665387Y349631D01*
X665317Y349686D01*
X665250Y349744D01*
X665185Y349804D01*
X665123Y349868D01*
X665063Y349934D01*
X665007Y350003D01*
X664954Y350074D01*
X664904Y350148D01*
X664857Y350224D01*
X664814Y350301D01*
X664774Y350381D01*
X664737Y350462D01*
X664705Y350545D01*
X664676Y350629D01*
X664650Y350714D01*
X664629Y350801D01*
X664611Y350888D01*
X664598Y350976D01*
X664588Y351064D01*
X664582Y351153D01*
X664580Y351242D01*
X664580Y353252D01*
X664582Y353364D01*
X664588Y353476D01*
X664598Y353588D01*
X664611Y353700D01*
X664629Y353811D01*
X664650Y353921D01*
X664676Y354030D01*
X664705Y354139D01*
X664737Y354246D01*
X664774Y354352D01*
X664814Y354457D01*
X664858Y354560D01*
X664906Y354662D01*
X664957Y354762D01*
X665011Y354860D01*
X665069Y354957D01*
X665130Y355051D01*
X665194Y355143D01*
X665262Y355233D01*
X665333Y355320D01*
X665406Y355405D01*
X665483Y355487D01*
X665562Y355566D01*
X665644Y355643D01*
X665729Y355716D01*
X665816Y355787D01*
X665906Y355855D01*
X665998Y355919D01*
X666092Y355980D01*
X666188Y356038D01*
X666287Y356092D01*
X666387Y356143D01*
X666489Y356191D01*
X666592Y356235D01*
X666697Y356275D01*
X666803Y356312D01*
X666910Y356344D01*
X667019Y356373D01*
X667128Y356399D01*
X667238Y356420D01*
X667349Y356438D01*
X667461Y356451D01*
X667573Y356461D01*
X667685Y356467D01*
X667797Y356469D01*
X812533Y431031D02*
X814142Y431031D01*
X812533Y431031D02*
X812454Y431033D01*
X812375Y431039D01*
X812297Y431048D01*
X812219Y431062D01*
X812142Y431079D01*
X812066Y431100D01*
X811991Y431125D01*
X811918Y431153D01*
X811845Y431185D01*
X811775Y431221D01*
X811706Y431260D01*
X811640Y431302D01*
X811575Y431347D01*
X811513Y431396D01*
X811453Y431448D01*
X811396Y431502D01*
X811342Y431559D01*
X811290Y431619D01*
X811241Y431681D01*
X811196Y431746D01*
X811154Y431812D01*
X811115Y431881D01*
X811079Y431951D01*
X811047Y432024D01*
X811019Y432097D01*
X810994Y432172D01*
X810973Y432248D01*
X810956Y432325D01*
X810942Y432403D01*
X810933Y432481D01*
X810927Y432560D01*
X810925Y432639D01*
X810925Y436661D01*
X810926Y436661D02*
X810928Y436740D01*
X810934Y436819D01*
X810943Y436897D01*
X810957Y436975D01*
X810974Y437052D01*
X810995Y437128D01*
X811020Y437203D01*
X811048Y437276D01*
X811080Y437349D01*
X811116Y437419D01*
X811155Y437488D01*
X811197Y437554D01*
X811242Y437619D01*
X811291Y437681D01*
X811343Y437741D01*
X811397Y437798D01*
X811454Y437852D01*
X811514Y437904D01*
X811576Y437953D01*
X811641Y437998D01*
X811707Y438040D01*
X811776Y438079D01*
X811846Y438115D01*
X811919Y438147D01*
X811992Y438175D01*
X812067Y438200D01*
X812143Y438221D01*
X812220Y438238D01*
X812298Y438252D01*
X812376Y438261D01*
X812455Y438267D01*
X812534Y438269D01*
X812533Y438269D02*
X814142Y438269D01*
X816947Y433042D02*
X816949Y433131D01*
X816955Y433220D01*
X816965Y433308D01*
X816978Y433396D01*
X816996Y433483D01*
X817017Y433570D01*
X817043Y433655D01*
X817072Y433739D01*
X817104Y433822D01*
X817141Y433903D01*
X817181Y433983D01*
X817224Y434060D01*
X817271Y434136D01*
X817321Y434210D01*
X817374Y434281D01*
X817430Y434350D01*
X817490Y434416D01*
X817552Y434480D01*
X817617Y434540D01*
X817684Y434598D01*
X817754Y434653D01*
X817827Y434705D01*
X817902Y434753D01*
X817978Y434798D01*
X818057Y434840D01*
X818137Y434878D01*
X818219Y434912D01*
X818303Y434943D01*
X818388Y434970D01*
X818473Y434994D01*
X818560Y435013D01*
X818648Y435029D01*
X818736Y435041D01*
X818825Y435049D01*
X818914Y435053D01*
X819002Y435053D01*
X819091Y435049D01*
X819180Y435041D01*
X819268Y435029D01*
X819356Y435013D01*
X819443Y434994D01*
X819528Y434970D01*
X819613Y434943D01*
X819697Y434912D01*
X819779Y434878D01*
X819859Y434840D01*
X819938Y434798D01*
X820014Y434753D01*
X820089Y434705D01*
X820162Y434653D01*
X820232Y434598D01*
X820299Y434540D01*
X820364Y434480D01*
X820426Y434416D01*
X820486Y434350D01*
X820542Y434281D01*
X820595Y434210D01*
X820645Y434136D01*
X820692Y434060D01*
X820735Y433983D01*
X820775Y433903D01*
X820812Y433822D01*
X820844Y433739D01*
X820873Y433655D01*
X820899Y433570D01*
X820920Y433483D01*
X820938Y433396D01*
X820951Y433308D01*
X820961Y433220D01*
X820967Y433131D01*
X820969Y433042D01*
X820967Y432953D01*
X820961Y432864D01*
X820951Y432776D01*
X820938Y432688D01*
X820920Y432601D01*
X820899Y432514D01*
X820873Y432429D01*
X820844Y432345D01*
X820812Y432262D01*
X820775Y432181D01*
X820735Y432101D01*
X820692Y432024D01*
X820645Y431948D01*
X820595Y431874D01*
X820542Y431803D01*
X820486Y431734D01*
X820426Y431668D01*
X820364Y431604D01*
X820299Y431544D01*
X820232Y431486D01*
X820162Y431431D01*
X820089Y431379D01*
X820014Y431331D01*
X819938Y431286D01*
X819859Y431244D01*
X819779Y431206D01*
X819697Y431172D01*
X819613Y431141D01*
X819528Y431114D01*
X819443Y431090D01*
X819356Y431071D01*
X819268Y431055D01*
X819180Y431043D01*
X819091Y431035D01*
X819002Y431031D01*
X818914Y431031D01*
X818825Y431035D01*
X818736Y431043D01*
X818648Y431055D01*
X818560Y431071D01*
X818473Y431090D01*
X818388Y431114D01*
X818303Y431141D01*
X818219Y431172D01*
X818137Y431206D01*
X818057Y431244D01*
X817978Y431286D01*
X817902Y431331D01*
X817827Y431379D01*
X817754Y431431D01*
X817684Y431486D01*
X817617Y431544D01*
X817552Y431604D01*
X817490Y431668D01*
X817430Y431734D01*
X817374Y431803D01*
X817321Y431874D01*
X817271Y431948D01*
X817224Y432024D01*
X817181Y432101D01*
X817141Y432181D01*
X817104Y432262D01*
X817072Y432345D01*
X817043Y432429D01*
X817017Y432514D01*
X816996Y432601D01*
X816978Y432688D01*
X816965Y432776D01*
X816955Y432864D01*
X816949Y432953D01*
X816947Y433042D01*
X817350Y436661D02*
X817352Y436740D01*
X817358Y436819D01*
X817367Y436897D01*
X817381Y436975D01*
X817398Y437052D01*
X817419Y437128D01*
X817444Y437203D01*
X817472Y437276D01*
X817504Y437349D01*
X817540Y437419D01*
X817579Y437488D01*
X817621Y437554D01*
X817666Y437619D01*
X817715Y437681D01*
X817767Y437741D01*
X817821Y437798D01*
X817878Y437852D01*
X817938Y437904D01*
X818000Y437953D01*
X818065Y437998D01*
X818131Y438040D01*
X818200Y438079D01*
X818270Y438115D01*
X818343Y438147D01*
X818416Y438175D01*
X818491Y438200D01*
X818567Y438221D01*
X818644Y438238D01*
X818722Y438252D01*
X818800Y438261D01*
X818879Y438267D01*
X818958Y438269D01*
X819037Y438267D01*
X819116Y438261D01*
X819194Y438252D01*
X819272Y438238D01*
X819349Y438221D01*
X819425Y438200D01*
X819500Y438175D01*
X819573Y438147D01*
X819646Y438115D01*
X819716Y438079D01*
X819785Y438040D01*
X819851Y437998D01*
X819916Y437953D01*
X819978Y437904D01*
X820038Y437852D01*
X820095Y437798D01*
X820149Y437741D01*
X820201Y437681D01*
X820250Y437619D01*
X820295Y437554D01*
X820337Y437488D01*
X820376Y437419D01*
X820412Y437349D01*
X820444Y437276D01*
X820472Y437203D01*
X820497Y437128D01*
X820518Y437052D01*
X820535Y436975D01*
X820549Y436897D01*
X820558Y436819D01*
X820564Y436740D01*
X820566Y436661D01*
X820564Y436582D01*
X820558Y436503D01*
X820549Y436425D01*
X820535Y436347D01*
X820518Y436270D01*
X820497Y436194D01*
X820472Y436119D01*
X820444Y436046D01*
X820412Y435973D01*
X820376Y435903D01*
X820337Y435834D01*
X820295Y435768D01*
X820250Y435703D01*
X820201Y435641D01*
X820149Y435581D01*
X820095Y435524D01*
X820038Y435470D01*
X819978Y435418D01*
X819916Y435369D01*
X819851Y435324D01*
X819785Y435282D01*
X819716Y435243D01*
X819646Y435207D01*
X819573Y435175D01*
X819500Y435147D01*
X819425Y435122D01*
X819349Y435101D01*
X819272Y435084D01*
X819194Y435070D01*
X819116Y435061D01*
X819037Y435055D01*
X818958Y435053D01*
X818879Y435055D01*
X818800Y435061D01*
X818722Y435070D01*
X818644Y435084D01*
X818567Y435101D01*
X818491Y435122D01*
X818416Y435147D01*
X818343Y435175D01*
X818270Y435207D01*
X818200Y435243D01*
X818131Y435282D01*
X818065Y435324D01*
X818000Y435369D01*
X817938Y435418D01*
X817878Y435470D01*
X817821Y435524D01*
X817767Y435581D01*
X817715Y435641D01*
X817666Y435703D01*
X817621Y435768D01*
X817579Y435834D01*
X817540Y435903D01*
X817504Y435973D01*
X817472Y436046D01*
X817444Y436119D01*
X817419Y436194D01*
X817398Y436270D01*
X817381Y436347D01*
X817367Y436425D01*
X817358Y436503D01*
X817352Y436582D01*
X817350Y436661D01*
D15*
X771500Y390000D02*
X771500Y375875D01*
X771500Y390000D02*
X779925Y390000D01*
X800075Y390000D02*
X808500Y390000D01*
X808500Y375875D01*
X795800Y360000D02*
X784200Y360000D01*
D18*
X795245Y382250D02*
X795247Y382395D01*
X795253Y382539D01*
X795263Y382684D01*
X795277Y382828D01*
X795295Y382972D01*
X795317Y383115D01*
X795342Y383257D01*
X795372Y383399D01*
X795406Y383540D01*
X795443Y383680D01*
X795485Y383819D01*
X795530Y383956D01*
X795579Y384093D01*
X795631Y384228D01*
X795688Y384361D01*
X795748Y384493D01*
X795811Y384623D01*
X795878Y384751D01*
X795949Y384877D01*
X796023Y385002D01*
X796101Y385124D01*
X796182Y385244D01*
X796266Y385362D01*
X796353Y385478D01*
X796444Y385591D01*
X796537Y385701D01*
X796634Y385809D01*
X796733Y385914D01*
X796836Y386017D01*
X796941Y386116D01*
X797049Y386213D01*
X797159Y386306D01*
X797272Y386397D01*
X797388Y386484D01*
X797506Y386568D01*
X797626Y386649D01*
X797748Y386727D01*
X797872Y386801D01*
X797999Y386872D01*
X798127Y386939D01*
X798257Y387002D01*
X798389Y387062D01*
X798522Y387119D01*
X798657Y387171D01*
X798794Y387220D01*
X798931Y387265D01*
X799070Y387307D01*
X799210Y387344D01*
X799351Y387378D01*
X799493Y387408D01*
X799635Y387433D01*
X799778Y387455D01*
X799922Y387473D01*
X800066Y387487D01*
X800211Y387497D01*
X800355Y387503D01*
X800500Y387505D01*
X800645Y387503D01*
X800789Y387497D01*
X800934Y387487D01*
X801078Y387473D01*
X801222Y387455D01*
X801365Y387433D01*
X801507Y387408D01*
X801649Y387378D01*
X801790Y387344D01*
X801930Y387307D01*
X802069Y387265D01*
X802206Y387220D01*
X802343Y387171D01*
X802478Y387119D01*
X802611Y387062D01*
X802743Y387002D01*
X802873Y386939D01*
X803001Y386872D01*
X803127Y386801D01*
X803252Y386727D01*
X803374Y386649D01*
X803494Y386568D01*
X803612Y386484D01*
X803728Y386397D01*
X803841Y386306D01*
X803951Y386213D01*
X804059Y386116D01*
X804164Y386017D01*
X804267Y385914D01*
X804366Y385809D01*
X804463Y385701D01*
X804556Y385591D01*
X804647Y385478D01*
X804734Y385362D01*
X804818Y385244D01*
X804899Y385124D01*
X804977Y385002D01*
X805051Y384877D01*
X805122Y384751D01*
X805189Y384623D01*
X805252Y384493D01*
X805312Y384361D01*
X805369Y384228D01*
X805421Y384093D01*
X805470Y383956D01*
X805515Y383819D01*
X805557Y383680D01*
X805594Y383540D01*
X805628Y383399D01*
X805658Y383257D01*
X805683Y383115D01*
X805705Y382972D01*
X805723Y382828D01*
X805737Y382684D01*
X805747Y382539D01*
X805753Y382395D01*
X805755Y382250D01*
X805753Y382105D01*
X805747Y381961D01*
X805737Y381816D01*
X805723Y381672D01*
X805705Y381528D01*
X805683Y381385D01*
X805658Y381243D01*
X805628Y381101D01*
X805594Y380960D01*
X805557Y380820D01*
X805515Y380681D01*
X805470Y380544D01*
X805421Y380407D01*
X805369Y380272D01*
X805312Y380139D01*
X805252Y380007D01*
X805189Y379877D01*
X805122Y379749D01*
X805051Y379623D01*
X804977Y379498D01*
X804899Y379376D01*
X804818Y379256D01*
X804734Y379138D01*
X804647Y379022D01*
X804556Y378909D01*
X804463Y378799D01*
X804366Y378691D01*
X804267Y378586D01*
X804164Y378483D01*
X804059Y378384D01*
X803951Y378287D01*
X803841Y378194D01*
X803728Y378103D01*
X803612Y378016D01*
X803494Y377932D01*
X803374Y377851D01*
X803252Y377773D01*
X803128Y377699D01*
X803001Y377628D01*
X802873Y377561D01*
X802743Y377498D01*
X802611Y377438D01*
X802478Y377381D01*
X802343Y377329D01*
X802206Y377280D01*
X802069Y377235D01*
X801930Y377193D01*
X801790Y377156D01*
X801649Y377122D01*
X801507Y377092D01*
X801365Y377067D01*
X801222Y377045D01*
X801078Y377027D01*
X800934Y377013D01*
X800789Y377003D01*
X800645Y376997D01*
X800500Y376995D01*
X800355Y376997D01*
X800211Y377003D01*
X800066Y377013D01*
X799922Y377027D01*
X799778Y377045D01*
X799635Y377067D01*
X799493Y377092D01*
X799351Y377122D01*
X799210Y377156D01*
X799070Y377193D01*
X798931Y377235D01*
X798794Y377280D01*
X798657Y377329D01*
X798522Y377381D01*
X798389Y377438D01*
X798257Y377498D01*
X798127Y377561D01*
X797999Y377628D01*
X797872Y377699D01*
X797748Y377773D01*
X797626Y377851D01*
X797506Y377932D01*
X797388Y378016D01*
X797272Y378103D01*
X797159Y378194D01*
X797049Y378287D01*
X796941Y378384D01*
X796836Y378483D01*
X796733Y378586D01*
X796634Y378691D01*
X796537Y378799D01*
X796444Y378909D01*
X796353Y379022D01*
X796266Y379138D01*
X796182Y379256D01*
X796101Y379376D01*
X796023Y379498D01*
X795949Y379622D01*
X795878Y379749D01*
X795811Y379877D01*
X795748Y380007D01*
X795688Y380139D01*
X795631Y380272D01*
X795579Y380407D01*
X795530Y380544D01*
X795485Y380681D01*
X795443Y380820D01*
X795406Y380960D01*
X795372Y381101D01*
X795342Y381243D01*
X795317Y381385D01*
X795295Y381528D01*
X795277Y381672D01*
X795263Y381816D01*
X795253Y381961D01*
X795247Y382105D01*
X795245Y382250D01*
D19*
X800500Y382250D03*
D11*
X774506Y397606D02*
X774506Y404844D01*
X776517Y404844D01*
X776606Y404842D01*
X776695Y404836D01*
X776783Y404826D01*
X776871Y404813D01*
X776958Y404795D01*
X777045Y404774D01*
X777130Y404748D01*
X777214Y404719D01*
X777297Y404687D01*
X777378Y404650D01*
X777458Y404610D01*
X777535Y404567D01*
X777611Y404520D01*
X777685Y404470D01*
X777756Y404417D01*
X777825Y404361D01*
X777891Y404301D01*
X777955Y404239D01*
X778015Y404174D01*
X778073Y404107D01*
X778128Y404037D01*
X778180Y403964D01*
X778228Y403889D01*
X778273Y403813D01*
X778315Y403734D01*
X778353Y403654D01*
X778387Y403572D01*
X778418Y403488D01*
X778445Y403403D01*
X778469Y403318D01*
X778488Y403231D01*
X778504Y403143D01*
X778516Y403055D01*
X778524Y402966D01*
X778528Y402877D01*
X778528Y402789D01*
X778524Y402700D01*
X778516Y402611D01*
X778504Y402523D01*
X778488Y402435D01*
X778469Y402348D01*
X778445Y402263D01*
X778418Y402178D01*
X778387Y402094D01*
X778353Y402012D01*
X778315Y401932D01*
X778273Y401853D01*
X778228Y401777D01*
X778180Y401702D01*
X778128Y401629D01*
X778073Y401559D01*
X778015Y401492D01*
X777955Y401427D01*
X777891Y401365D01*
X777825Y401305D01*
X777756Y401249D01*
X777685Y401196D01*
X777611Y401146D01*
X777535Y401099D01*
X777458Y401056D01*
X777378Y401016D01*
X777297Y400979D01*
X777214Y400947D01*
X777130Y400918D01*
X777045Y400892D01*
X776958Y400871D01*
X776871Y400853D01*
X776783Y400840D01*
X776695Y400830D01*
X776606Y400824D01*
X776517Y400822D01*
X776517Y400823D02*
X774506Y400823D01*
X776919Y400823D02*
X778527Y397606D01*
X781655Y404040D02*
X781655Y404844D01*
X785676Y404844D01*
X783666Y397606D01*
X809392Y366620D02*
X809392Y359382D01*
X811402Y366620D02*
X807381Y366620D01*
X814458Y366620D02*
X814458Y359382D01*
X814458Y366620D02*
X816468Y366620D01*
X816557Y366618D01*
X816646Y366612D01*
X816734Y366602D01*
X816822Y366589D01*
X816909Y366571D01*
X816996Y366550D01*
X817081Y366524D01*
X817165Y366495D01*
X817248Y366463D01*
X817329Y366426D01*
X817409Y366386D01*
X817486Y366343D01*
X817562Y366296D01*
X817636Y366246D01*
X817707Y366193D01*
X817776Y366137D01*
X817842Y366077D01*
X817906Y366015D01*
X817966Y365950D01*
X818024Y365883D01*
X818079Y365813D01*
X818131Y365740D01*
X818179Y365665D01*
X818224Y365589D01*
X818266Y365510D01*
X818304Y365430D01*
X818338Y365348D01*
X818369Y365264D01*
X818396Y365179D01*
X818420Y365094D01*
X818439Y365007D01*
X818455Y364919D01*
X818467Y364831D01*
X818475Y364742D01*
X818479Y364653D01*
X818479Y364565D01*
X818475Y364476D01*
X818467Y364387D01*
X818455Y364299D01*
X818439Y364211D01*
X818420Y364124D01*
X818396Y364039D01*
X818369Y363954D01*
X818338Y363870D01*
X818304Y363788D01*
X818266Y363708D01*
X818224Y363629D01*
X818179Y363553D01*
X818131Y363478D01*
X818079Y363405D01*
X818024Y363335D01*
X817966Y363268D01*
X817906Y363203D01*
X817842Y363141D01*
X817776Y363081D01*
X817707Y363025D01*
X817636Y362972D01*
X817562Y362922D01*
X817486Y362875D01*
X817409Y362832D01*
X817329Y362792D01*
X817248Y362755D01*
X817165Y362723D01*
X817081Y362694D01*
X816996Y362668D01*
X816909Y362647D01*
X816822Y362629D01*
X816734Y362616D01*
X816646Y362606D01*
X816557Y362600D01*
X816468Y362598D01*
X816468Y362599D02*
X814458Y362599D01*
X821301Y365012D02*
X823311Y366620D01*
X823311Y359382D01*
X821301Y359382D02*
X825322Y359382D01*
X818269Y460639D02*
X818269Y462248D01*
X818269Y460639D02*
X818267Y460560D01*
X818261Y460481D01*
X818252Y460403D01*
X818238Y460325D01*
X818221Y460248D01*
X818200Y460172D01*
X818175Y460097D01*
X818147Y460024D01*
X818115Y459951D01*
X818079Y459881D01*
X818040Y459812D01*
X817998Y459746D01*
X817953Y459681D01*
X817904Y459619D01*
X817852Y459559D01*
X817798Y459502D01*
X817741Y459448D01*
X817681Y459396D01*
X817619Y459347D01*
X817554Y459302D01*
X817488Y459260D01*
X817419Y459221D01*
X817349Y459185D01*
X817276Y459153D01*
X817203Y459125D01*
X817128Y459100D01*
X817052Y459079D01*
X816975Y459062D01*
X816897Y459048D01*
X816819Y459039D01*
X816740Y459033D01*
X816661Y459031D01*
X812639Y459031D01*
X812560Y459033D01*
X812481Y459039D01*
X812403Y459048D01*
X812325Y459062D01*
X812248Y459079D01*
X812172Y459100D01*
X812097Y459125D01*
X812023Y459153D01*
X811951Y459185D01*
X811881Y459221D01*
X811812Y459260D01*
X811745Y459302D01*
X811681Y459348D01*
X811618Y459396D01*
X811558Y459448D01*
X811501Y459502D01*
X811447Y459559D01*
X811395Y459619D01*
X811347Y459681D01*
X811301Y459746D01*
X811259Y459813D01*
X811220Y459881D01*
X811185Y459952D01*
X811152Y460024D01*
X811124Y460098D01*
X811099Y460173D01*
X811078Y460249D01*
X811061Y460326D01*
X811047Y460404D01*
X811038Y460482D01*
X811032Y460561D01*
X811030Y460640D01*
X811031Y460639D02*
X811031Y462248D01*
X815052Y466662D02*
X815052Y469075D01*
X815052Y466662D02*
X815050Y466583D01*
X815044Y466504D01*
X815035Y466426D01*
X815021Y466348D01*
X815004Y466271D01*
X814983Y466195D01*
X814958Y466120D01*
X814930Y466047D01*
X814898Y465974D01*
X814862Y465904D01*
X814823Y465835D01*
X814781Y465769D01*
X814736Y465704D01*
X814687Y465642D01*
X814635Y465582D01*
X814581Y465525D01*
X814524Y465471D01*
X814464Y465419D01*
X814402Y465370D01*
X814337Y465325D01*
X814271Y465283D01*
X814202Y465244D01*
X814132Y465208D01*
X814059Y465176D01*
X813986Y465148D01*
X813911Y465123D01*
X813835Y465102D01*
X813758Y465085D01*
X813680Y465071D01*
X813602Y465062D01*
X813523Y465056D01*
X813444Y465054D01*
X813042Y465054D01*
X813042Y465053D02*
X812953Y465055D01*
X812864Y465061D01*
X812776Y465071D01*
X812688Y465084D01*
X812601Y465102D01*
X812514Y465123D01*
X812429Y465149D01*
X812345Y465178D01*
X812262Y465210D01*
X812181Y465247D01*
X812101Y465287D01*
X812024Y465330D01*
X811948Y465377D01*
X811874Y465427D01*
X811803Y465480D01*
X811734Y465536D01*
X811668Y465596D01*
X811604Y465658D01*
X811544Y465723D01*
X811486Y465790D01*
X811431Y465860D01*
X811379Y465933D01*
X811331Y466008D01*
X811286Y466084D01*
X811244Y466163D01*
X811206Y466243D01*
X811172Y466325D01*
X811141Y466409D01*
X811114Y466494D01*
X811090Y466579D01*
X811071Y466666D01*
X811055Y466754D01*
X811043Y466842D01*
X811035Y466931D01*
X811031Y467020D01*
X811031Y467108D01*
X811035Y467197D01*
X811043Y467286D01*
X811055Y467374D01*
X811071Y467462D01*
X811090Y467549D01*
X811114Y467634D01*
X811141Y467719D01*
X811172Y467803D01*
X811206Y467885D01*
X811244Y467965D01*
X811286Y468044D01*
X811331Y468120D01*
X811379Y468195D01*
X811431Y468268D01*
X811486Y468338D01*
X811544Y468405D01*
X811604Y468470D01*
X811668Y468532D01*
X811734Y468592D01*
X811803Y468648D01*
X811874Y468701D01*
X811948Y468751D01*
X812024Y468798D01*
X812101Y468841D01*
X812181Y468881D01*
X812262Y468918D01*
X812345Y468950D01*
X812429Y468979D01*
X812514Y469005D01*
X812601Y469026D01*
X812688Y469044D01*
X812776Y469057D01*
X812864Y469067D01*
X812953Y469073D01*
X813042Y469075D01*
X815052Y469075D01*
X815164Y469073D01*
X815276Y469067D01*
X815388Y469057D01*
X815500Y469044D01*
X815611Y469026D01*
X815721Y469005D01*
X815830Y468979D01*
X815939Y468950D01*
X816046Y468918D01*
X816152Y468881D01*
X816257Y468841D01*
X816360Y468797D01*
X816462Y468749D01*
X816562Y468698D01*
X816661Y468644D01*
X816757Y468586D01*
X816851Y468525D01*
X816943Y468461D01*
X817033Y468393D01*
X817120Y468322D01*
X817205Y468249D01*
X817287Y468172D01*
X817366Y468093D01*
X817443Y468011D01*
X817516Y467926D01*
X817587Y467839D01*
X817655Y467749D01*
X817719Y467657D01*
X817780Y467563D01*
X817838Y467467D01*
X817892Y467368D01*
X817943Y467268D01*
X817991Y467166D01*
X818035Y467063D01*
X818075Y466958D01*
X818112Y466852D01*
X818144Y466745D01*
X818173Y466636D01*
X818199Y466527D01*
X818220Y466417D01*
X818238Y466306D01*
X818251Y466194D01*
X818261Y466082D01*
X818267Y465970D01*
X818269Y465858D01*
D15*
X831500Y390000D02*
X831500Y375875D01*
X831500Y390000D02*
X839925Y390000D01*
X860075Y390000D02*
X868500Y390000D01*
X868500Y375875D01*
X855800Y360000D02*
X844200Y360000D01*
D18*
X855245Y382250D02*
X855247Y382395D01*
X855253Y382539D01*
X855263Y382684D01*
X855277Y382828D01*
X855295Y382972D01*
X855317Y383115D01*
X855342Y383257D01*
X855372Y383399D01*
X855406Y383540D01*
X855443Y383680D01*
X855485Y383819D01*
X855530Y383956D01*
X855579Y384093D01*
X855631Y384228D01*
X855688Y384361D01*
X855748Y384493D01*
X855811Y384623D01*
X855878Y384751D01*
X855949Y384877D01*
X856023Y385002D01*
X856101Y385124D01*
X856182Y385244D01*
X856266Y385362D01*
X856353Y385478D01*
X856444Y385591D01*
X856537Y385701D01*
X856634Y385809D01*
X856733Y385914D01*
X856836Y386017D01*
X856941Y386116D01*
X857049Y386213D01*
X857159Y386306D01*
X857272Y386397D01*
X857388Y386484D01*
X857506Y386568D01*
X857626Y386649D01*
X857748Y386727D01*
X857872Y386801D01*
X857999Y386872D01*
X858127Y386939D01*
X858257Y387002D01*
X858389Y387062D01*
X858522Y387119D01*
X858657Y387171D01*
X858794Y387220D01*
X858931Y387265D01*
X859070Y387307D01*
X859210Y387344D01*
X859351Y387378D01*
X859493Y387408D01*
X859635Y387433D01*
X859778Y387455D01*
X859922Y387473D01*
X860066Y387487D01*
X860211Y387497D01*
X860355Y387503D01*
X860500Y387505D01*
X860645Y387503D01*
X860789Y387497D01*
X860934Y387487D01*
X861078Y387473D01*
X861222Y387455D01*
X861365Y387433D01*
X861507Y387408D01*
X861649Y387378D01*
X861790Y387344D01*
X861930Y387307D01*
X862069Y387265D01*
X862206Y387220D01*
X862343Y387171D01*
X862478Y387119D01*
X862611Y387062D01*
X862743Y387002D01*
X862873Y386939D01*
X863001Y386872D01*
X863127Y386801D01*
X863252Y386727D01*
X863374Y386649D01*
X863494Y386568D01*
X863612Y386484D01*
X863728Y386397D01*
X863841Y386306D01*
X863951Y386213D01*
X864059Y386116D01*
X864164Y386017D01*
X864267Y385914D01*
X864366Y385809D01*
X864463Y385701D01*
X864556Y385591D01*
X864647Y385478D01*
X864734Y385362D01*
X864818Y385244D01*
X864899Y385124D01*
X864977Y385002D01*
X865051Y384877D01*
X865122Y384751D01*
X865189Y384623D01*
X865252Y384493D01*
X865312Y384361D01*
X865369Y384228D01*
X865421Y384093D01*
X865470Y383956D01*
X865515Y383819D01*
X865557Y383680D01*
X865594Y383540D01*
X865628Y383399D01*
X865658Y383257D01*
X865683Y383115D01*
X865705Y382972D01*
X865723Y382828D01*
X865737Y382684D01*
X865747Y382539D01*
X865753Y382395D01*
X865755Y382250D01*
X865753Y382105D01*
X865747Y381961D01*
X865737Y381816D01*
X865723Y381672D01*
X865705Y381528D01*
X865683Y381385D01*
X865658Y381243D01*
X865628Y381101D01*
X865594Y380960D01*
X865557Y380820D01*
X865515Y380681D01*
X865470Y380544D01*
X865421Y380407D01*
X865369Y380272D01*
X865312Y380139D01*
X865252Y380007D01*
X865189Y379877D01*
X865122Y379749D01*
X865051Y379623D01*
X864977Y379498D01*
X864899Y379376D01*
X864818Y379256D01*
X864734Y379138D01*
X864647Y379022D01*
X864556Y378909D01*
X864463Y378799D01*
X864366Y378691D01*
X864267Y378586D01*
X864164Y378483D01*
X864059Y378384D01*
X863951Y378287D01*
X863841Y378194D01*
X863728Y378103D01*
X863612Y378016D01*
X863494Y377932D01*
X863374Y377851D01*
X863252Y377773D01*
X863128Y377699D01*
X863001Y377628D01*
X862873Y377561D01*
X862743Y377498D01*
X862611Y377438D01*
X862478Y377381D01*
X862343Y377329D01*
X862206Y377280D01*
X862069Y377235D01*
X861930Y377193D01*
X861790Y377156D01*
X861649Y377122D01*
X861507Y377092D01*
X861365Y377067D01*
X861222Y377045D01*
X861078Y377027D01*
X860934Y377013D01*
X860789Y377003D01*
X860645Y376997D01*
X860500Y376995D01*
X860355Y376997D01*
X860211Y377003D01*
X860066Y377013D01*
X859922Y377027D01*
X859778Y377045D01*
X859635Y377067D01*
X859493Y377092D01*
X859351Y377122D01*
X859210Y377156D01*
X859070Y377193D01*
X858931Y377235D01*
X858794Y377280D01*
X858657Y377329D01*
X858522Y377381D01*
X858389Y377438D01*
X858257Y377498D01*
X858127Y377561D01*
X857999Y377628D01*
X857872Y377699D01*
X857748Y377773D01*
X857626Y377851D01*
X857506Y377932D01*
X857388Y378016D01*
X857272Y378103D01*
X857159Y378194D01*
X857049Y378287D01*
X856941Y378384D01*
X856836Y378483D01*
X856733Y378586D01*
X856634Y378691D01*
X856537Y378799D01*
X856444Y378909D01*
X856353Y379022D01*
X856266Y379138D01*
X856182Y379256D01*
X856101Y379376D01*
X856023Y379498D01*
X855949Y379622D01*
X855878Y379749D01*
X855811Y379877D01*
X855748Y380007D01*
X855688Y380139D01*
X855631Y380272D01*
X855579Y380407D01*
X855530Y380544D01*
X855485Y380681D01*
X855443Y380820D01*
X855406Y380960D01*
X855372Y381101D01*
X855342Y381243D01*
X855317Y381385D01*
X855295Y381528D01*
X855277Y381672D01*
X855263Y381816D01*
X855253Y381961D01*
X855247Y382105D01*
X855245Y382250D01*
D19*
X860500Y382250D03*
D11*
X834506Y397606D02*
X834506Y404844D01*
X836517Y404844D01*
X836606Y404842D01*
X836695Y404836D01*
X836783Y404826D01*
X836871Y404813D01*
X836958Y404795D01*
X837045Y404774D01*
X837130Y404748D01*
X837214Y404719D01*
X837297Y404687D01*
X837378Y404650D01*
X837458Y404610D01*
X837535Y404567D01*
X837611Y404520D01*
X837685Y404470D01*
X837756Y404417D01*
X837825Y404361D01*
X837891Y404301D01*
X837955Y404239D01*
X838015Y404174D01*
X838073Y404107D01*
X838128Y404037D01*
X838180Y403964D01*
X838228Y403889D01*
X838273Y403813D01*
X838315Y403734D01*
X838353Y403654D01*
X838387Y403572D01*
X838418Y403488D01*
X838445Y403403D01*
X838469Y403318D01*
X838488Y403231D01*
X838504Y403143D01*
X838516Y403055D01*
X838524Y402966D01*
X838528Y402877D01*
X838528Y402789D01*
X838524Y402700D01*
X838516Y402611D01*
X838504Y402523D01*
X838488Y402435D01*
X838469Y402348D01*
X838445Y402263D01*
X838418Y402178D01*
X838387Y402094D01*
X838353Y402012D01*
X838315Y401932D01*
X838273Y401853D01*
X838228Y401777D01*
X838180Y401702D01*
X838128Y401629D01*
X838073Y401559D01*
X838015Y401492D01*
X837955Y401427D01*
X837891Y401365D01*
X837825Y401305D01*
X837756Y401249D01*
X837685Y401196D01*
X837611Y401146D01*
X837535Y401099D01*
X837458Y401056D01*
X837378Y401016D01*
X837297Y400979D01*
X837214Y400947D01*
X837130Y400918D01*
X837045Y400892D01*
X836958Y400871D01*
X836871Y400853D01*
X836783Y400840D01*
X836695Y400830D01*
X836606Y400824D01*
X836517Y400822D01*
X836517Y400823D02*
X834506Y400823D01*
X836919Y400823D02*
X838527Y397606D01*
X841655Y399617D02*
X841657Y399706D01*
X841663Y399795D01*
X841673Y399883D01*
X841686Y399971D01*
X841704Y400058D01*
X841725Y400145D01*
X841751Y400230D01*
X841780Y400314D01*
X841812Y400397D01*
X841849Y400478D01*
X841889Y400558D01*
X841932Y400635D01*
X841979Y400711D01*
X842029Y400785D01*
X842082Y400856D01*
X842138Y400925D01*
X842198Y400991D01*
X842260Y401055D01*
X842325Y401115D01*
X842392Y401173D01*
X842462Y401228D01*
X842535Y401280D01*
X842610Y401328D01*
X842686Y401373D01*
X842765Y401415D01*
X842845Y401453D01*
X842927Y401487D01*
X843011Y401518D01*
X843096Y401545D01*
X843181Y401569D01*
X843268Y401588D01*
X843356Y401604D01*
X843444Y401616D01*
X843533Y401624D01*
X843622Y401628D01*
X843710Y401628D01*
X843799Y401624D01*
X843888Y401616D01*
X843976Y401604D01*
X844064Y401588D01*
X844151Y401569D01*
X844236Y401545D01*
X844321Y401518D01*
X844405Y401487D01*
X844487Y401453D01*
X844567Y401415D01*
X844646Y401373D01*
X844722Y401328D01*
X844797Y401280D01*
X844870Y401228D01*
X844940Y401173D01*
X845007Y401115D01*
X845072Y401055D01*
X845134Y400991D01*
X845194Y400925D01*
X845250Y400856D01*
X845303Y400785D01*
X845353Y400711D01*
X845400Y400635D01*
X845443Y400558D01*
X845483Y400478D01*
X845520Y400397D01*
X845552Y400314D01*
X845581Y400230D01*
X845607Y400145D01*
X845628Y400058D01*
X845646Y399971D01*
X845659Y399883D01*
X845669Y399795D01*
X845675Y399706D01*
X845677Y399617D01*
X845675Y399528D01*
X845669Y399439D01*
X845659Y399351D01*
X845646Y399263D01*
X845628Y399176D01*
X845607Y399089D01*
X845581Y399004D01*
X845552Y398920D01*
X845520Y398837D01*
X845483Y398756D01*
X845443Y398676D01*
X845400Y398599D01*
X845353Y398523D01*
X845303Y398449D01*
X845250Y398378D01*
X845194Y398309D01*
X845134Y398243D01*
X845072Y398179D01*
X845007Y398119D01*
X844940Y398061D01*
X844870Y398006D01*
X844797Y397954D01*
X844722Y397906D01*
X844646Y397861D01*
X844567Y397819D01*
X844487Y397781D01*
X844405Y397747D01*
X844321Y397716D01*
X844236Y397689D01*
X844151Y397665D01*
X844064Y397646D01*
X843976Y397630D01*
X843888Y397618D01*
X843799Y397610D01*
X843710Y397606D01*
X843622Y397606D01*
X843533Y397610D01*
X843444Y397618D01*
X843356Y397630D01*
X843268Y397646D01*
X843181Y397665D01*
X843096Y397689D01*
X843011Y397716D01*
X842927Y397747D01*
X842845Y397781D01*
X842765Y397819D01*
X842686Y397861D01*
X842610Y397906D01*
X842535Y397954D01*
X842462Y398006D01*
X842392Y398061D01*
X842325Y398119D01*
X842260Y398179D01*
X842198Y398243D01*
X842138Y398309D01*
X842082Y398378D01*
X842029Y398449D01*
X841979Y398523D01*
X841932Y398599D01*
X841889Y398676D01*
X841849Y398756D01*
X841812Y398837D01*
X841780Y398920D01*
X841751Y399004D01*
X841725Y399089D01*
X841704Y399176D01*
X841686Y399263D01*
X841673Y399351D01*
X841663Y399439D01*
X841657Y399528D01*
X841655Y399617D01*
X842058Y403236D02*
X842060Y403315D01*
X842066Y403394D01*
X842075Y403472D01*
X842089Y403550D01*
X842106Y403627D01*
X842127Y403703D01*
X842152Y403778D01*
X842180Y403851D01*
X842212Y403924D01*
X842248Y403994D01*
X842287Y404063D01*
X842329Y404129D01*
X842374Y404194D01*
X842423Y404256D01*
X842475Y404316D01*
X842529Y404373D01*
X842586Y404427D01*
X842646Y404479D01*
X842708Y404528D01*
X842773Y404573D01*
X842839Y404615D01*
X842908Y404654D01*
X842978Y404690D01*
X843051Y404722D01*
X843124Y404750D01*
X843199Y404775D01*
X843275Y404796D01*
X843352Y404813D01*
X843430Y404827D01*
X843508Y404836D01*
X843587Y404842D01*
X843666Y404844D01*
X843745Y404842D01*
X843824Y404836D01*
X843902Y404827D01*
X843980Y404813D01*
X844057Y404796D01*
X844133Y404775D01*
X844208Y404750D01*
X844281Y404722D01*
X844354Y404690D01*
X844424Y404654D01*
X844493Y404615D01*
X844559Y404573D01*
X844624Y404528D01*
X844686Y404479D01*
X844746Y404427D01*
X844803Y404373D01*
X844857Y404316D01*
X844909Y404256D01*
X844958Y404194D01*
X845003Y404129D01*
X845045Y404063D01*
X845084Y403994D01*
X845120Y403924D01*
X845152Y403851D01*
X845180Y403778D01*
X845205Y403703D01*
X845226Y403627D01*
X845243Y403550D01*
X845257Y403472D01*
X845266Y403394D01*
X845272Y403315D01*
X845274Y403236D01*
X845272Y403157D01*
X845266Y403078D01*
X845257Y403000D01*
X845243Y402922D01*
X845226Y402845D01*
X845205Y402769D01*
X845180Y402694D01*
X845152Y402621D01*
X845120Y402548D01*
X845084Y402478D01*
X845045Y402409D01*
X845003Y402343D01*
X844958Y402278D01*
X844909Y402216D01*
X844857Y402156D01*
X844803Y402099D01*
X844746Y402045D01*
X844686Y401993D01*
X844624Y401944D01*
X844559Y401899D01*
X844493Y401857D01*
X844424Y401818D01*
X844354Y401782D01*
X844281Y401750D01*
X844208Y401722D01*
X844133Y401697D01*
X844057Y401676D01*
X843980Y401659D01*
X843902Y401645D01*
X843824Y401636D01*
X843745Y401630D01*
X843666Y401628D01*
X843587Y401630D01*
X843508Y401636D01*
X843430Y401645D01*
X843352Y401659D01*
X843275Y401676D01*
X843199Y401697D01*
X843124Y401722D01*
X843051Y401750D01*
X842978Y401782D01*
X842908Y401818D01*
X842839Y401857D01*
X842773Y401899D01*
X842708Y401944D01*
X842646Y401993D01*
X842586Y402045D01*
X842529Y402099D01*
X842475Y402156D01*
X842423Y402216D01*
X842374Y402278D01*
X842329Y402343D01*
X842287Y402409D01*
X842248Y402478D01*
X842212Y402548D01*
X842180Y402621D01*
X842152Y402694D01*
X842127Y402769D01*
X842106Y402845D01*
X842089Y402922D01*
X842075Y403000D01*
X842066Y403078D01*
X842060Y403157D01*
X842058Y403236D01*
X808892Y395120D02*
X808892Y387882D01*
X810902Y395120D02*
X806881Y395120D01*
X813958Y395120D02*
X813958Y387882D01*
X813958Y395120D02*
X815968Y395120D01*
X816057Y395118D01*
X816146Y395112D01*
X816234Y395102D01*
X816322Y395089D01*
X816409Y395071D01*
X816496Y395050D01*
X816581Y395024D01*
X816665Y394995D01*
X816748Y394963D01*
X816829Y394926D01*
X816909Y394886D01*
X816986Y394843D01*
X817062Y394796D01*
X817136Y394746D01*
X817207Y394693D01*
X817276Y394637D01*
X817342Y394577D01*
X817406Y394515D01*
X817466Y394450D01*
X817524Y394383D01*
X817579Y394313D01*
X817631Y394240D01*
X817679Y394165D01*
X817724Y394089D01*
X817766Y394010D01*
X817804Y393930D01*
X817838Y393848D01*
X817869Y393764D01*
X817896Y393679D01*
X817920Y393594D01*
X817939Y393507D01*
X817955Y393419D01*
X817967Y393331D01*
X817975Y393242D01*
X817979Y393153D01*
X817979Y393065D01*
X817975Y392976D01*
X817967Y392887D01*
X817955Y392799D01*
X817939Y392711D01*
X817920Y392624D01*
X817896Y392539D01*
X817869Y392454D01*
X817838Y392370D01*
X817804Y392288D01*
X817766Y392208D01*
X817724Y392129D01*
X817679Y392053D01*
X817631Y391978D01*
X817579Y391905D01*
X817524Y391835D01*
X817466Y391768D01*
X817406Y391703D01*
X817342Y391641D01*
X817276Y391581D01*
X817207Y391525D01*
X817136Y391472D01*
X817062Y391422D01*
X816986Y391375D01*
X816909Y391332D01*
X816829Y391292D01*
X816748Y391255D01*
X816665Y391223D01*
X816581Y391194D01*
X816496Y391168D01*
X816409Y391147D01*
X816322Y391129D01*
X816234Y391116D01*
X816146Y391106D01*
X816057Y391100D01*
X815968Y391098D01*
X815968Y391099D02*
X813958Y391099D01*
X823013Y395121D02*
X823097Y395119D01*
X823180Y395113D01*
X823263Y395104D01*
X823346Y395090D01*
X823427Y395073D01*
X823508Y395052D01*
X823588Y395027D01*
X823667Y394999D01*
X823744Y394967D01*
X823820Y394931D01*
X823894Y394892D01*
X823966Y394850D01*
X824036Y394804D01*
X824104Y394755D01*
X824169Y394703D01*
X824232Y394649D01*
X824293Y394591D01*
X824351Y394530D01*
X824405Y394467D01*
X824457Y394402D01*
X824506Y394334D01*
X824552Y394264D01*
X824594Y394192D01*
X824633Y394118D01*
X824669Y394042D01*
X824701Y393965D01*
X824729Y393886D01*
X824754Y393806D01*
X824775Y393725D01*
X824792Y393644D01*
X824806Y393561D01*
X824815Y393478D01*
X824821Y393395D01*
X824823Y393311D01*
X823013Y395120D02*
X822919Y395118D01*
X822825Y395112D01*
X822731Y395103D01*
X822637Y395089D01*
X822545Y395072D01*
X822453Y395051D01*
X822362Y395027D01*
X822272Y394999D01*
X822183Y394967D01*
X822095Y394931D01*
X822010Y394892D01*
X821925Y394850D01*
X821843Y394804D01*
X821762Y394755D01*
X821684Y394703D01*
X821608Y394647D01*
X821534Y394589D01*
X821462Y394527D01*
X821393Y394463D01*
X821327Y394396D01*
X821263Y394326D01*
X821203Y394254D01*
X821145Y394179D01*
X821090Y394102D01*
X821039Y394023D01*
X820991Y393942D01*
X820946Y393859D01*
X820904Y393775D01*
X820866Y393688D01*
X820832Y393600D01*
X820801Y393511D01*
X824219Y391903D02*
X824281Y391965D01*
X824340Y392029D01*
X824396Y392097D01*
X824449Y392166D01*
X824499Y392238D01*
X824546Y392312D01*
X824589Y392388D01*
X824629Y392466D01*
X824665Y392545D01*
X824697Y392626D01*
X824726Y392709D01*
X824752Y392793D01*
X824773Y392877D01*
X824791Y392963D01*
X824804Y393049D01*
X824814Y393136D01*
X824820Y393224D01*
X824822Y393311D01*
X824219Y391903D02*
X820801Y387882D01*
X824822Y387882D01*
D15*
X703800Y407250D02*
X698250Y407250D01*
X698250Y342750D01*
X703800Y342750D02*
X710750Y342750D01*
X698250Y342750D01*
X709800Y395000D02*
X724800Y395000D01*
X724800Y355000D01*
X709800Y355000D01*
X709800Y395000D01*
X698500Y355000D02*
X710750Y342750D01*
X761500Y342750D02*
X761500Y407250D01*
X761500Y342750D02*
X755950Y342750D01*
X755950Y407250D02*
X761500Y407250D01*
X730550Y407250D02*
X729200Y407250D01*
X729200Y342750D02*
X730550Y342750D01*
X735200Y395000D02*
X750200Y395000D01*
X750200Y355000D01*
X735200Y355000D01*
X735200Y395000D01*
D10*
X712554Y399556D02*
X712554Y402040D01*
X712556Y402117D01*
X712562Y402195D01*
X712571Y402271D01*
X712585Y402348D01*
X712602Y402423D01*
X712623Y402497D01*
X712648Y402571D01*
X712676Y402643D01*
X712708Y402713D01*
X712743Y402782D01*
X712782Y402849D01*
X712824Y402914D01*
X712869Y402977D01*
X712917Y403038D01*
X712968Y403096D01*
X713022Y403151D01*
X713079Y403204D01*
X713138Y403253D01*
X713200Y403300D01*
X713264Y403344D01*
X713330Y403384D01*
X713398Y403421D01*
X713468Y403455D01*
X713539Y403485D01*
X713612Y403511D01*
X713686Y403534D01*
X713761Y403553D01*
X713836Y403568D01*
X713913Y403580D01*
X713990Y403588D01*
X714067Y403592D01*
X714145Y403592D01*
X714222Y403588D01*
X714299Y403580D01*
X714376Y403568D01*
X714451Y403553D01*
X714526Y403534D01*
X714600Y403511D01*
X714673Y403485D01*
X714744Y403455D01*
X714814Y403421D01*
X714882Y403384D01*
X714948Y403344D01*
X715012Y403300D01*
X715074Y403253D01*
X715133Y403204D01*
X715190Y403151D01*
X715244Y403096D01*
X715295Y403038D01*
X715343Y402977D01*
X715388Y402914D01*
X715430Y402849D01*
X715469Y402782D01*
X715504Y402713D01*
X715536Y402643D01*
X715564Y402571D01*
X715589Y402497D01*
X715610Y402423D01*
X715627Y402348D01*
X715641Y402271D01*
X715650Y402195D01*
X715656Y402117D01*
X715658Y402040D01*
X715658Y399556D01*
X715656Y399479D01*
X715650Y399401D01*
X715641Y399325D01*
X715627Y399248D01*
X715610Y399173D01*
X715589Y399099D01*
X715564Y399025D01*
X715536Y398953D01*
X715504Y398883D01*
X715469Y398814D01*
X715430Y398747D01*
X715388Y398682D01*
X715343Y398619D01*
X715295Y398558D01*
X715244Y398500D01*
X715190Y398445D01*
X715133Y398392D01*
X715074Y398343D01*
X715012Y398296D01*
X714948Y398252D01*
X714882Y398212D01*
X714814Y398175D01*
X714744Y398141D01*
X714673Y398111D01*
X714600Y398085D01*
X714526Y398062D01*
X714451Y398043D01*
X714376Y398028D01*
X714299Y398016D01*
X714222Y398008D01*
X714145Y398004D01*
X714067Y398004D01*
X713990Y398008D01*
X713913Y398016D01*
X713836Y398028D01*
X713761Y398043D01*
X713686Y398062D01*
X713612Y398085D01*
X713539Y398111D01*
X713468Y398141D01*
X713398Y398175D01*
X713330Y398212D01*
X713264Y398252D01*
X713200Y398296D01*
X713138Y398343D01*
X713079Y398392D01*
X713022Y398445D01*
X712968Y398500D01*
X712917Y398558D01*
X712869Y398619D01*
X712824Y398682D01*
X712782Y398747D01*
X712743Y398814D01*
X712708Y398883D01*
X712676Y398953D01*
X712648Y399025D01*
X712623Y399099D01*
X712602Y399173D01*
X712585Y399248D01*
X712571Y399325D01*
X712562Y399401D01*
X712556Y399479D01*
X712554Y399556D01*
X718223Y398004D02*
X718223Y403592D01*
X721328Y398004D01*
X721328Y403592D01*
X717106Y352342D02*
X715554Y351100D01*
X717106Y352342D02*
X717106Y346754D01*
X715554Y346754D02*
X718658Y346754D01*
X742661Y352342D02*
X742734Y352340D01*
X742807Y352334D01*
X742880Y352325D01*
X742951Y352311D01*
X743023Y352294D01*
X743093Y352274D01*
X743162Y352249D01*
X743229Y352221D01*
X743295Y352190D01*
X743360Y352155D01*
X743422Y352117D01*
X743482Y352075D01*
X743540Y352031D01*
X743596Y351983D01*
X743649Y351933D01*
X743699Y351880D01*
X743747Y351824D01*
X743791Y351766D01*
X743833Y351706D01*
X743871Y351644D01*
X743906Y351579D01*
X743937Y351513D01*
X743965Y351446D01*
X743990Y351377D01*
X744010Y351307D01*
X744027Y351235D01*
X744041Y351164D01*
X744050Y351091D01*
X744056Y351018D01*
X744058Y350945D01*
X742661Y352342D02*
X742577Y352340D01*
X742494Y352334D01*
X742411Y352325D01*
X742329Y352311D01*
X742247Y352294D01*
X742166Y352272D01*
X742086Y352247D01*
X742008Y352219D01*
X741930Y352187D01*
X741855Y352151D01*
X741781Y352112D01*
X741709Y352069D01*
X741639Y352023D01*
X741572Y351974D01*
X741506Y351921D01*
X741444Y351866D01*
X741384Y351808D01*
X741326Y351747D01*
X741272Y351684D01*
X741220Y351618D01*
X741172Y351550D01*
X741127Y351479D01*
X741085Y351407D01*
X741047Y351332D01*
X741012Y351256D01*
X740981Y351179D01*
X740953Y351100D01*
X743592Y349859D02*
X743646Y349912D01*
X743697Y349969D01*
X743745Y350028D01*
X743790Y350089D01*
X743831Y350152D01*
X743870Y350218D01*
X743905Y350285D01*
X743937Y350354D01*
X743965Y350425D01*
X743989Y350496D01*
X744010Y350569D01*
X744027Y350643D01*
X744041Y350718D01*
X744050Y350793D01*
X744056Y350869D01*
X744058Y350945D01*
X743593Y349858D02*
X740954Y346754D01*
X744058Y346754D01*
D20*
X717300Y362500D03*
X742700Y362500D03*
D18*
X689092Y354403D02*
X689090Y354502D01*
X689084Y354602D01*
X689075Y354701D01*
X689062Y354799D01*
X689045Y354897D01*
X689024Y354995D01*
X688999Y355091D01*
X688971Y355186D01*
X688939Y355280D01*
X688904Y355373D01*
X688865Y355465D01*
X688822Y355555D01*
X688777Y355643D01*
X688727Y355730D01*
X688675Y355814D01*
X688619Y355897D01*
X688561Y355977D01*
X688499Y356055D01*
X688434Y356130D01*
X688366Y356203D01*
X688296Y356273D01*
X688223Y356341D01*
X688148Y356406D01*
X688070Y356468D01*
X687990Y356526D01*
X687907Y356582D01*
X687823Y356634D01*
X687736Y356684D01*
X687648Y356729D01*
X687558Y356772D01*
X687466Y356811D01*
X687373Y356846D01*
X687279Y356878D01*
X687184Y356906D01*
X687088Y356931D01*
X686990Y356952D01*
X686892Y356969D01*
X686794Y356982D01*
X686695Y356991D01*
X686595Y356997D01*
X686496Y356999D01*
X689092Y354403D02*
X689090Y354259D01*
X689084Y354114D01*
X689075Y353970D01*
X689062Y353827D01*
X689045Y353683D01*
X689024Y353540D01*
X688999Y353398D01*
X688971Y353257D01*
X688939Y353116D01*
X688903Y352976D01*
X688864Y352837D01*
X688821Y352699D01*
X688774Y352563D01*
X688724Y352427D01*
X688670Y352293D01*
X688613Y352161D01*
X688552Y352030D01*
X688488Y351901D01*
X688420Y351773D01*
X688350Y351647D01*
X688275Y351523D01*
X688198Y351402D01*
X688117Y351282D01*
X688034Y351164D01*
X687947Y351049D01*
X687857Y350936D01*
X687764Y350825D01*
X687669Y350717D01*
X687570Y350611D01*
X687469Y350508D01*
X680004Y350833D02*
X679905Y350835D01*
X679805Y350841D01*
X679706Y350850D01*
X679608Y350863D01*
X679510Y350880D01*
X679412Y350901D01*
X679316Y350926D01*
X679221Y350954D01*
X679127Y350986D01*
X679034Y351021D01*
X678942Y351060D01*
X678852Y351103D01*
X678764Y351148D01*
X678677Y351198D01*
X678593Y351250D01*
X678510Y351306D01*
X678430Y351364D01*
X678352Y351426D01*
X678277Y351491D01*
X678204Y351559D01*
X678134Y351629D01*
X678066Y351702D01*
X678001Y351777D01*
X677939Y351855D01*
X677881Y351935D01*
X677825Y352018D01*
X677773Y352102D01*
X677723Y352189D01*
X677678Y352277D01*
X677635Y352367D01*
X677596Y352459D01*
X677561Y352552D01*
X677529Y352646D01*
X677501Y352741D01*
X677476Y352837D01*
X677455Y352935D01*
X677438Y353033D01*
X677425Y353131D01*
X677416Y353230D01*
X677410Y353330D01*
X677408Y353429D01*
X677410Y353565D01*
X677416Y353701D01*
X677425Y353837D01*
X677438Y353973D01*
X677456Y354108D01*
X677476Y354242D01*
X677501Y354376D01*
X677529Y354510D01*
X677562Y354642D01*
X677597Y354773D01*
X677637Y354904D01*
X677680Y355033D01*
X677726Y355161D01*
X677777Y355287D01*
X677830Y355413D01*
X677888Y355536D01*
X677948Y355658D01*
X678012Y355778D01*
X678080Y355897D01*
X678150Y356013D01*
X678224Y356127D01*
X678301Y356240D01*
X678382Y356350D01*
X682276Y352131D02*
X682223Y352045D01*
X682166Y351961D01*
X682107Y351879D01*
X682044Y351799D01*
X681978Y351722D01*
X681910Y351647D01*
X681838Y351575D01*
X681764Y351506D01*
X681687Y351440D01*
X681608Y351377D01*
X681526Y351317D01*
X681442Y351260D01*
X681356Y351206D01*
X681268Y351156D01*
X681178Y351109D01*
X681087Y351065D01*
X680993Y351026D01*
X680899Y350989D01*
X680803Y350957D01*
X680705Y350928D01*
X680607Y350903D01*
X680508Y350882D01*
X680408Y350864D01*
X680308Y350851D01*
X680207Y350841D01*
X680105Y350835D01*
X680004Y350833D01*
X684224Y355701D02*
X684277Y355787D01*
X684334Y355871D01*
X684393Y355953D01*
X684456Y356033D01*
X684522Y356110D01*
X684590Y356185D01*
X684662Y356257D01*
X684736Y356326D01*
X684813Y356392D01*
X684892Y356455D01*
X684974Y356515D01*
X685058Y356572D01*
X685144Y356626D01*
X685232Y356676D01*
X685322Y356723D01*
X685413Y356767D01*
X685507Y356806D01*
X685601Y356843D01*
X685697Y356875D01*
X685795Y356904D01*
X685893Y356929D01*
X685992Y356950D01*
X686092Y356968D01*
X686192Y356981D01*
X686293Y356991D01*
X686395Y356997D01*
X686496Y356999D01*
X684224Y355701D02*
X682276Y352131D01*
X677408Y365127D02*
X677410Y365234D01*
X677416Y365340D01*
X677426Y365446D01*
X677439Y365552D01*
X677457Y365658D01*
X677478Y365762D01*
X677503Y365866D01*
X677532Y365969D01*
X677564Y366070D01*
X677601Y366170D01*
X677641Y366269D01*
X677684Y366367D01*
X677731Y366463D01*
X677782Y366557D01*
X677836Y366649D01*
X677893Y366739D01*
X677953Y366827D01*
X678017Y366912D01*
X678084Y366995D01*
X678154Y367076D01*
X678226Y367154D01*
X678302Y367230D01*
X678380Y367302D01*
X678461Y367372D01*
X678544Y367439D01*
X678629Y367503D01*
X678717Y367563D01*
X678807Y367620D01*
X678899Y367674D01*
X678993Y367725D01*
X679089Y367772D01*
X679187Y367815D01*
X679286Y367855D01*
X679386Y367892D01*
X679487Y367924D01*
X679590Y367953D01*
X679694Y367978D01*
X679798Y367999D01*
X679904Y368017D01*
X680010Y368030D01*
X680116Y368040D01*
X680222Y368046D01*
X680329Y368048D01*
X677408Y365127D02*
X677410Y365006D01*
X677416Y364885D01*
X677426Y364765D01*
X677439Y364644D01*
X677457Y364525D01*
X677478Y364405D01*
X677503Y364287D01*
X677532Y364170D01*
X677565Y364053D01*
X677601Y363938D01*
X677642Y363824D01*
X677685Y363711D01*
X677733Y363599D01*
X677784Y363490D01*
X677839Y363382D01*
X677897Y363275D01*
X677958Y363171D01*
X678023Y363069D01*
X678091Y362969D01*
X678162Y362871D01*
X678236Y362775D01*
X678313Y362682D01*
X678394Y362592D01*
X678477Y362504D01*
X678563Y362419D01*
X678652Y362336D01*
X678743Y362257D01*
X678837Y362180D01*
X678933Y362107D01*
X679031Y362037D01*
X679132Y361970D01*
X679235Y361906D01*
X679340Y361846D01*
X679447Y361788D01*
X679555Y361735D01*
X679665Y361685D01*
X679777Y361639D01*
X679890Y361596D01*
X680005Y361557D01*
X682601Y367074D02*
X682523Y367153D01*
X682443Y367229D01*
X682360Y367302D01*
X682274Y367372D01*
X682187Y367439D01*
X682096Y367503D01*
X682004Y367563D01*
X681910Y367621D01*
X681813Y367675D01*
X681715Y367725D01*
X681615Y367772D01*
X681514Y367816D01*
X681411Y367856D01*
X681306Y367892D01*
X681201Y367924D01*
X681094Y367953D01*
X680987Y367978D01*
X680878Y368000D01*
X680769Y368017D01*
X680660Y368031D01*
X680550Y368040D01*
X680439Y368046D01*
X680329Y368048D01*
X682601Y367074D02*
X689092Y361557D01*
X689092Y368048D01*
D14*
X625583Y639963D02*
X625583Y648853D01*
X625583Y639963D02*
X625581Y639863D01*
X625575Y639764D01*
X625565Y639664D01*
X625552Y639566D01*
X625534Y639467D01*
X625513Y639370D01*
X625488Y639274D01*
X625459Y639178D01*
X625426Y639084D01*
X625390Y638991D01*
X625350Y638900D01*
X625306Y638810D01*
X625259Y638722D01*
X625209Y638636D01*
X625155Y638552D01*
X625098Y638470D01*
X625038Y638391D01*
X624974Y638313D01*
X624908Y638239D01*
X624839Y638167D01*
X624767Y638098D01*
X624693Y638032D01*
X624615Y637968D01*
X624536Y637908D01*
X624454Y637851D01*
X624370Y637797D01*
X624284Y637747D01*
X624196Y637700D01*
X624106Y637656D01*
X624015Y637616D01*
X623922Y637580D01*
X623828Y637547D01*
X623732Y637518D01*
X623636Y637493D01*
X623539Y637472D01*
X623440Y637454D01*
X623342Y637441D01*
X623242Y637431D01*
X623143Y637425D01*
X623043Y637423D01*
X621773Y637423D01*
X631563Y637423D02*
X631563Y648853D01*
X634738Y648853D01*
X634849Y648851D01*
X634959Y648845D01*
X635070Y648836D01*
X635180Y648822D01*
X635289Y648805D01*
X635398Y648784D01*
X635506Y648759D01*
X635613Y648730D01*
X635719Y648698D01*
X635824Y648662D01*
X635927Y648622D01*
X636029Y648579D01*
X636130Y648532D01*
X636229Y648481D01*
X636326Y648428D01*
X636420Y648371D01*
X636513Y648310D01*
X636604Y648247D01*
X636693Y648180D01*
X636779Y648110D01*
X636862Y648037D01*
X636944Y647962D01*
X637022Y647884D01*
X637097Y647802D01*
X637170Y647719D01*
X637240Y647633D01*
X637307Y647544D01*
X637370Y647453D01*
X637431Y647360D01*
X637488Y647265D01*
X637541Y647169D01*
X637592Y647070D01*
X637639Y646969D01*
X637682Y646867D01*
X637722Y646764D01*
X637758Y646659D01*
X637790Y646553D01*
X637819Y646446D01*
X637844Y646338D01*
X637865Y646229D01*
X637882Y646120D01*
X637896Y646010D01*
X637905Y645899D01*
X637911Y645789D01*
X637913Y645678D01*
X637911Y645567D01*
X637905Y645457D01*
X637896Y645346D01*
X637882Y645236D01*
X637865Y645127D01*
X637844Y645018D01*
X637819Y644910D01*
X637790Y644803D01*
X637758Y644697D01*
X637722Y644592D01*
X637682Y644489D01*
X637639Y644387D01*
X637592Y644286D01*
X637541Y644187D01*
X637488Y644091D01*
X637431Y643996D01*
X637370Y643903D01*
X637307Y643812D01*
X637240Y643723D01*
X637170Y643637D01*
X637097Y643554D01*
X637022Y643472D01*
X636944Y643394D01*
X636862Y643319D01*
X636779Y643246D01*
X636693Y643176D01*
X636604Y643109D01*
X636513Y643046D01*
X636420Y642985D01*
X636326Y642928D01*
X636229Y642875D01*
X636130Y642824D01*
X636029Y642777D01*
X635927Y642734D01*
X635824Y642694D01*
X635719Y642658D01*
X635613Y642626D01*
X635506Y642597D01*
X635398Y642572D01*
X635289Y642551D01*
X635180Y642534D01*
X635070Y642520D01*
X634959Y642511D01*
X634849Y642505D01*
X634738Y642503D01*
X631563Y642503D01*
X645914Y648854D02*
X646018Y648852D01*
X646123Y648846D01*
X646227Y648837D01*
X646330Y648824D01*
X646433Y648806D01*
X646535Y648786D01*
X646637Y648761D01*
X646737Y648733D01*
X646837Y648701D01*
X646935Y648665D01*
X647032Y648626D01*
X647127Y648584D01*
X647221Y648538D01*
X647313Y648488D01*
X647403Y648436D01*
X647491Y648380D01*
X647577Y648320D01*
X647661Y648258D01*
X647742Y648193D01*
X647821Y648125D01*
X647898Y648053D01*
X647971Y647980D01*
X648043Y647903D01*
X648111Y647824D01*
X648176Y647743D01*
X648238Y647659D01*
X648298Y647573D01*
X648354Y647485D01*
X648406Y647395D01*
X648456Y647303D01*
X648502Y647209D01*
X648544Y647114D01*
X648583Y647017D01*
X648619Y646919D01*
X648651Y646819D01*
X648679Y646719D01*
X648704Y646617D01*
X648724Y646515D01*
X648742Y646412D01*
X648755Y646309D01*
X648764Y646205D01*
X648770Y646100D01*
X648772Y645996D01*
X645914Y648853D02*
X645796Y648851D01*
X645677Y648845D01*
X645559Y648836D01*
X645442Y648823D01*
X645325Y648805D01*
X645208Y648785D01*
X645092Y648760D01*
X644977Y648732D01*
X644864Y648699D01*
X644751Y648664D01*
X644639Y648624D01*
X644529Y648582D01*
X644420Y648535D01*
X644312Y648485D01*
X644207Y648432D01*
X644103Y648375D01*
X644001Y648315D01*
X643901Y648252D01*
X643803Y648185D01*
X643707Y648116D01*
X643614Y648043D01*
X643523Y647967D01*
X643434Y647889D01*
X643348Y647807D01*
X643265Y647723D01*
X643184Y647637D01*
X643107Y647547D01*
X643032Y647456D01*
X642960Y647362D01*
X642891Y647265D01*
X642826Y647167D01*
X642763Y647066D01*
X642704Y646963D01*
X642648Y646859D01*
X642596Y646753D01*
X642547Y646645D01*
X642502Y646536D01*
X642460Y646425D01*
X642422Y646313D01*
X647820Y643774D02*
X647896Y643849D01*
X647971Y643928D01*
X648042Y644009D01*
X648111Y644093D01*
X648176Y644179D01*
X648238Y644267D01*
X648298Y644357D01*
X648354Y644449D01*
X648407Y644544D01*
X648456Y644640D01*
X648502Y644738D01*
X648545Y644837D01*
X648584Y644938D01*
X648619Y645040D01*
X648651Y645143D01*
X648679Y645247D01*
X648704Y645352D01*
X648725Y645459D01*
X648742Y645565D01*
X648755Y645672D01*
X648764Y645780D01*
X648770Y645888D01*
X648772Y645996D01*
X647819Y643773D02*
X642422Y637423D01*
X648772Y637423D01*
D21*
X659000Y431500D03*
X671000Y431500D03*
D22*
X665000Y431500D03*
D11*
X651919Y417681D02*
X644681Y417681D01*
X651919Y417681D02*
X651919Y420898D01*
X651919Y423921D02*
X651919Y427138D01*
X651919Y423921D02*
X644681Y423921D01*
X644681Y427138D01*
X647898Y426334D02*
X647898Y423921D01*
X644681Y430145D02*
X651919Y430145D01*
X644681Y430145D02*
X644681Y432156D01*
X644683Y432244D01*
X644689Y432331D01*
X644698Y432418D01*
X644712Y432505D01*
X644729Y432591D01*
X644750Y432676D01*
X644774Y432761D01*
X644802Y432844D01*
X644834Y432926D01*
X644869Y433006D01*
X644908Y433085D01*
X644950Y433162D01*
X644996Y433237D01*
X645045Y433309D01*
X645097Y433380D01*
X645151Y433449D01*
X645209Y433515D01*
X645270Y433578D01*
X645333Y433639D01*
X645399Y433697D01*
X645468Y433751D01*
X645539Y433803D01*
X645611Y433852D01*
X645687Y433898D01*
X645763Y433940D01*
X645842Y433979D01*
X645922Y434014D01*
X646004Y434046D01*
X646087Y434074D01*
X646172Y434098D01*
X646257Y434119D01*
X646343Y434136D01*
X646430Y434150D01*
X646517Y434159D01*
X646604Y434165D01*
X646692Y434167D01*
X649908Y434167D01*
X649996Y434165D01*
X650083Y434159D01*
X650170Y434150D01*
X650257Y434136D01*
X650343Y434119D01*
X650428Y434098D01*
X650513Y434074D01*
X650596Y434046D01*
X650678Y434014D01*
X650758Y433979D01*
X650837Y433940D01*
X650914Y433898D01*
X650989Y433852D01*
X651061Y433803D01*
X651132Y433751D01*
X651201Y433697D01*
X651267Y433639D01*
X651330Y433578D01*
X651391Y433515D01*
X651449Y433449D01*
X651503Y433380D01*
X651555Y433309D01*
X651604Y433236D01*
X651650Y433161D01*
X651692Y433085D01*
X651731Y433006D01*
X651766Y432926D01*
X651798Y432844D01*
X651826Y432761D01*
X651850Y432676D01*
X651871Y432591D01*
X651888Y432505D01*
X651902Y432418D01*
X651911Y432331D01*
X651917Y432244D01*
X651919Y432156D01*
X651919Y430145D01*
X646289Y437585D02*
X644681Y439596D01*
X651919Y439596D01*
X651919Y441606D02*
X651919Y437585D01*
M02*
