G04 EAGLE Gerber RS-274X export*
G75*
%MOMM*%
%FSLAX34Y34*%
%LPD*%
%INSoldermask Top*%
%IPPOS*%
%AMOC8*
5,1,8,0,0,1.08239X$1,22.5*%
G01*
%ADD10R,0.700000X0.600000*%
%ADD11R,0.600000X0.700000*%
%ADD12C,0.331800*%
%ADD13R,2.600000X2.600000*%
%ADD14C,12.000000*%
%ADD15R,2.300000X0.700000*%
%ADD16R,4.900000X1.580000*%
%ADD17R,2.350000X1.500000*%
%ADD18R,4.900000X1.600000*%
%ADD19C,1.016000*%
%ADD20C,1.371600*%
%ADD21R,1.000000X1.400000*%
%ADD22R,0.900000X1.600000*%
%ADD23R,1.300000X1.300000*%
%ADD24C,0.600000*%
%ADD25R,1.130000X2.440000*%
%ADD26R,1.200000X1.200000*%


D10*
X755000Y505000D03*
X755000Y495000D03*
D11*
X740000Y480000D03*
X750000Y480000D03*
D12*
X773100Y499750D02*
X777900Y499750D01*
X777900Y493250D02*
X773100Y493250D01*
X773100Y486750D02*
X777900Y486750D01*
X777900Y480250D02*
X773100Y480250D01*
X785250Y472900D02*
X785250Y468100D01*
X791750Y468100D02*
X791750Y472900D01*
X798250Y472900D02*
X798250Y468100D01*
X804750Y468100D02*
X804750Y472900D01*
X812100Y480250D02*
X816900Y480250D01*
X816900Y486750D02*
X812100Y486750D01*
X812100Y493250D02*
X816900Y493250D01*
X816900Y499750D02*
X812100Y499750D01*
X804750Y507100D02*
X804750Y511900D01*
X798250Y511900D02*
X798250Y507100D01*
X791750Y507100D02*
X791750Y511900D01*
X785250Y511900D02*
X785250Y507100D01*
D13*
X795000Y490000D03*
D14*
X840000Y685000D03*
D10*
X675000Y495000D03*
X675000Y505000D03*
X730000Y530000D03*
X730000Y520000D03*
D11*
X730000Y460000D03*
X740000Y460000D03*
D15*
X624800Y497800D03*
D16*
X637800Y527800D03*
X637800Y467800D03*
D17*
X928250Y550000D03*
D18*
X914000Y507500D03*
X914000Y592500D03*
D11*
X800000Y595000D03*
X810000Y595000D03*
X800000Y580000D03*
X810000Y580000D03*
D10*
X690000Y505000D03*
X690000Y495000D03*
D17*
X928250Y430000D03*
D18*
X914000Y387500D03*
X914000Y472500D03*
D11*
X835000Y495000D03*
X845000Y495000D03*
X845000Y485000D03*
X835000Y485000D03*
X780000Y450000D03*
X770000Y450000D03*
D19*
X930000Y765000D03*
X625000Y765000D03*
X625000Y340000D03*
X930000Y340000D03*
D20*
X782300Y533142D02*
X782300Y546858D01*
X807700Y546858D02*
X807700Y533142D01*
D21*
X645000Y589000D03*
X635500Y611000D03*
X654500Y611000D03*
D11*
X710000Y595000D03*
X720000Y595000D03*
D10*
X700000Y460000D03*
X700000Y470000D03*
D20*
X648300Y393758D02*
X648300Y380042D01*
X673700Y380042D02*
X673700Y393758D01*
D11*
X658400Y342500D03*
X668400Y342500D03*
X820000Y445000D03*
X810000Y445000D03*
D22*
X776000Y362850D03*
X804000Y362850D03*
D23*
X790000Y387150D03*
D24*
X820000Y370000D03*
D10*
X825000Y460000D03*
X825000Y470000D03*
D22*
X836000Y362850D03*
X864000Y362850D03*
D23*
X850000Y387150D03*
D24*
X819500Y383500D03*
D25*
X717300Y342850D03*
X742700Y342850D03*
X742700Y407150D03*
X717300Y407150D03*
D14*
X700000Y685000D03*
D26*
X665000Y440500D03*
X665000Y419500D03*
M02*
